/* XPM */
static char *arbok[] = {
/* columns rows colors chars-per-pixel */
"30 20 162 2 ",
"   c None",
".  c #030203",
"X  c #09070A",
"o  c #0C0A0D",
"O  c #0F0C13",
"+  c #110F14",
"@  c #141116",
"#  c #1C151E",
"$  c #1F1D1F",
"%  c #22231F",
"&  c #1D1822",
"*  c #231C24",
"=  c #2A1E2F",
"-  c #25192B",
";  c #2C1F31",
":  c #2E252D",
">  c #292828",
",  c #242326",
"<  c #34272E",
"1  c #2D2534",
"2  c #342A34",
"3  c #302838",
"4  c #37283B",
"5  c #343137",
"6  c #3E3B3D",
"7  c #333F35",
"8  c #4B3D38",
"9  c #593830",
"0  c #673234",
"q  c #763C37",
"w  c #723938",
"e  c #3A4037",
"r  c #30413A",
"t  c #3B3144",
"y  c #433747",
"u  c #463846",
"i  c #45394F",
"p  c #4D3F4D",
"a  c #43374C",
"s  c #573F5A",
"d  c #513C53",
"f  c #6E374C",
"g  c #53444D",
"h  c #515A48",
"j  c #4D405C",
"k  c #4B4954",
"l  c #514257",
"z  c #514955",
"x  c #59425A",
"c  c #554C59",
"v  c #5B4E5E",
"b  c #5C535C",
"n  c #754644",
"m  c #66595A",
"M  c #564562",
"N  c #554E61",
"B  c #5F4F6D",
"V  c #5E436A",
"C  c #5D5262",
"Z  c #5F546D",
"A  c #63466E",
"S  c #654C69",
"D  c #63546C",
"F  c #6C576D",
"G  c #625B6A",
"H  c #775A6C",
"J  c #654771",
"K  c #684973",
"L  c #6C4D79",
"P  c #704F7D",
"I  c #665675",
"U  c #6A5771",
"Y  c #735676",
"T  c #705870",
"R  c #7D5D73",
"E  c #75567C",
"W  c #725D7D",
"Q  c #7C5C7D",
"!  c #65657F",
"~  c #7D6077",
"^  c #73627C",
"/  c #7E697B",
"(  c #9A4E33",
")  c #BA553F",
"_  c #9F5546",
"`  c #D04E49",
"'  c #EAAB2E",
"]  c #ABA84A",
"[  c #755F83",
"{  c #7A5688",
"}  c #7F5F88",
"|  c #795885",
" . c #786187",
".. c #7A6885",
"X. c #7E668D",
"o. c #7E7382",
"O. c #7F6890",
"+. c #7E6F9E",
"@. c #895F8A",
"#. c #826383",
"$. c #8B6487",
"%. c #84668A",
"&. c #89668B",
"*. c #8B6A8D",
"=. c #836A8B",
"-. c #857A89",
";. c #876D90",
":. c #8A6A92",
">. c #8C6D9C",
",. c #8B6392",
"<. c #956F95",
"1. c #947E9C",
"2. c #99799C",
"3. c #93739D",
"4. c #8F6FA5",
"5. c #956CA4",
"6. c #8D74A1",
"7. c #9375A3",
"8. c #9874A7",
"9. c #937BA7",
"0. c #9B7BA3",
"q. c #9B77A9",
"w. c #9B7DAB",
"e. c #957AA9",
"r. c #9A7DB1",
"t. c #A07FAE",
"y. c #A27DB3",
"u. c #A37BB8",
"i. c #9F95A4",
"p. c #A59AAA",
"a. c #A483B3",
"s. c #A788B4",
"d. c #AA8CB6",
"f. c #A286BA",
"g. c #AA87BA",
"h. c #AA8ABB",
"j. c #B195BD",
"k. c #B39ABC",
"l. c #B2A6B7",
"z. c #AD8DC5",
"x. c #B28EC0",
"c. c #B69CC1",
"v. c #B291CA",
"b. c #BA95CE",
"n. c #B78FD0",
"m. c #B997D3",
"M. c #B798D0",
"N. c #BB9AD6",
"B. c #BA96D8",
"V. c #BD9CD9",
"C. c #BCA4C5",
"Z. c #C19EDD",
"A. c #C4B7C9",
"S. c #CAB7D2",
"D. c #CCBAD3",
"F. c #C6A2E1",
"G. c #C9A6E7",
"H. c #CBA7E8",
"J. c #D1C0D7",
"K. c #D5C6DB",
"L. c #D6C8DC",
"P. c #D4DAD1",
/* pixels */
"                                1 1 1                       ",
"                          . i O.F.V.F.;.a                   ",
"                      . 1 w.b.V.v.v.v.Z.>.X                 ",
"                    i 7.F.V.m.v.z.z.v.v.V.X.3 { | L L L J K ",
"                  W F.a.;.*.C v.0.&.r.n.v.V.* w.w.a.g.s.s.d.",
"                t b.R b Y @.b W d.P.6 1.z.V.9.t j.c.c.c.c.A.",
"              X r.<.D 9 g k Y 6 S i./ / z.F.7.z S.D.D.D.D.D.",
"              @ g.#.F w _ n 6 7 r 8 m @.E B c L.J.L.J.L.L.J.",
"              + b.&.I 0 ] ' f ! q ` h 1 2 -.J.J.J.J.J.J.J.J.",
"                M h.r.M ) ( I f.R T j i.L.L.L.L.L.L.L.L.L.L.",
"                & f.b.c N +.7.k N.B p.L.L.L.J.L.L.L.J.L.L.L.",
"                  & 9. .b C 6 6 , l.L.L.L.A.J.L.L.L.L.L.L.L.",
"                    : ^ V.u.^ 6 5 o.J.D.S 3 < o.D.D.D.D.D.S.",
"              @  . .$.H Z V.Z.r.M.I I d.k p Q u > x.d.d.s.s.",
"            > w.G.F.h.Q g =.a.a.f.O.& - 4 Q Q &.$ 8.w.w.t.t.",
"          @ #.#.3.h.:. .T C w.9.f.v.[ _ &.E *.x - A A J K L ",
"          * <.Q R | >.K C y.m.N.m.V...F &.x d +   ; ; ; ; = ",
"          o S &.@.7.7.>.z.0.2.2.0.y.D * < .                 ",
"            . x E x.&.>.V.N.h.a.b.X.O                       ",
"                3 c a.,.5.z.H.z.Z o                         "
};
