/* XPM */
static char *beedrill[] = {
/* columns rows colors chars-per-pixel */
"30 20 227 2 ",
"   c None",
".  c black",
"X  c #000005",
"o  c #040A03",
"O  c #040B03",
"+  c #060E04",
"@  c #05060E",
"#  c #0B0C0D",
"$  c #0A1308",
"%  c #0C130B",
"&  c #0F150E",
"*  c #0B1C08",
"=  c #161200",
"-  c #000013",
";  c #0A0B14",
":  c #0D0E18",
">  c #0C1219",
",  c #121315",
"<  c #131B11",
"1  c #121D10",
"2  c #111119",
"3  c #16171A",
"4  c #10290C",
"5  c #1B211A",
"6  c #1F281D",
"7  c #193F12",
"8  c #242800",
"9  c #29260F",
"0  c #36331B",
"q  c #141620",
"w  c #1C1F22",
"e  c #1C1E36",
"r  c #252523",
"t  c #262525",
"y  c #282F26",
"u  c #2F3C22",
"i  c #2F3B2D",
"p  c #3A3B2D",
"a  c #3F3E36",
"s  c #3A3A39",
"d  c gray23",
"f  c #3B393F",
"g  c #423E22",
"h  c #194012",
"j  c #1A4112",
"k  c #1A4212",
"l  c #1A4213",
"z  c #24431E",
"x  c #3F5A3A",
"c  c #5A4606",
"v  c #5C5015",
"b  c #5D5517",
"n  c #5B5813",
"m  c #4A4B27",
"M  c #494E39",
"N  c #405C3B",
"B  c #6D6F2E",
"V  c #726426",
"C  c #717126",
"Z  c #686639",
"A  c #343743",
"S  c #363A5C",
"D  c #3A3E62",
"F  c #6C394B",
"G  c #3C4260",
"H  c #595744",
"J  c #484D56",
"K  c #414658",
"L  c #48435A",
"P  c #4B4F59",
"I  c #4B5059",
"U  c #4C505A",
"Y  c #595955",
"T  c #5E5E58",
"R  c #6C5741",
"E  c #4A6A44",
"W  c #62635E",
"Q  c #787650",
"!  c #414462",
"~  c #53576E",
"^  c #4F5275",
"/  c #595C76",
"(  c #5E606B",
")  c #5F6177",
"_  c #6F6E6A",
"`  c #626771",
"'  c #626874",
"]  c #636F7D",
"[  c #727173",
"{  c #7D7E79",
"}  c #973030",
"|  c #887F1A",
" . c #924F3A",
".. c #887A2A",
"X. c #8E7838",
"o. c #CB5537",
"O. c #FD693C",
"+. c #C45841",
"@. c #FF5B4E",
"#. c #DD6D6C",
"$. c #338124",
"%. c #338325",
"&. c #358826",
"*. c #388E28",
"=. c #3A9329",
"-. c #3A952A",
";. c #3B962A",
":. c #3C982B",
">. c #3D9C2C",
",. c #3E9D2C",
"<. c #3FA22E",
"1. c #40A32E",
"2. c #42A82F",
"3. c #49BB35",
"4. c #529D44",
"5. c #549D46",
"6. c #70CC5F",
"7. c #6BD058",
"8. c #6BD059",
"9. c #6CD059",
"0. c #6CD05A",
"q. c #6DD15B",
"w. c #70D25E",
"e. c #74D362",
"r. c #78D468",
"t. c #7AD56A",
"y. c #7ED66E",
"u. c #8A8624",
"i. c #978526",
"p. c #988B2E",
"a. c #8B8236",
"s. c #938739",
"d. c #A19729",
"f. c #B29B21",
"g. c #B8A623",
"h. c #B9A524",
"j. c #AEA430",
"k. c #AFA630",
"l. c #DA8637",
"z. c #DEA029",
"x. c #EEDE25",
"c. c #F1CE34",
"v. c #F1EB27",
"b. c #FFFE2D",
"n. c #EDE632",
"m. c #F0E030",
"M. c #F0E930",
"N. c #F1EE30",
"B. c #FBEA31",
"V. c #F9F330",
"C. c #FCF230",
"Z. c #FFF730",
"A. c #FFF533",
"S. c #FFFC30",
"D. c #999143",
"F. c #9A976B",
"G. c #DB9942",
"H. c #E18463",
"J. c #81CE73",
"K. c #85C17A",
"L. c #82D773",
"P. c #84D875",
"I. c #85D876",
"U. c #88D979",
"Y. c #89DA7A",
"T. c #89DA7B",
"R. c #8ADA7C",
"E. c #8CDA7D",
"W. c #8DDB7F",
"Q. c #636787",
"!. c #6C7381",
"~. c #6E7582",
"^. c #6D708C",
"/. c #757D8E",
"(. c #6D73A6",
"). c #767CA7",
"_. c #7B7FA7",
"`. c #80829B",
"'. c #AAAA9F",
"]. c #8991A2",
"[. c #919AAC",
"{. c #929BAD",
"}. c #8E97B8",
"|. c #99A2B5",
" X c #D794B2",
".X c #93DD86",
"XX c #95DD88",
"oX c #99DF8C",
"OX c #9BDF8E",
"+X c #9DE091",
"@X c #A2E196",
"#X c #A9E49E",
"$X c #B1CCAC",
"%X c #B4DCAC",
"&X c #B7D3B1",
"*X c #B7D2B2",
"=X c #B8E9B0",
"-X c #BBE9B3",
";X c #BCEAB4",
":X c #BDEAB5",
">X c #BFEBB7",
",X c #FACCB1",
"<X c #C0EBB8",
"1X c #C1EBB9",
"2X c #C3ECBB",
"3X c #878DCA",
"4X c #858EDA",
"5X c #8B91D1",
"6X c #8690D8",
"7X c #A7B1DE",
"8X c #A7B1FD",
"9X c #B4BBFF",
"0X c #C8EDC1",
"qX c #C8EEC1",
"wX c #C9EEC2",
"eX c #CAEEC3",
"rX c #CEEFC8",
"tX c #CFF0C9",
"yX c #D0F0CA",
"uX c #D1F0CB",
"iX c #E1E1DA",
"pX c #C4CBFF",
"aX c #CAD1FF",
"sX c #D2D7FF",
"dX c #ECF2FF",
"fX c #EFF2FF",
"gX c white",
/* pixels */
"                                                            ",
"                      , 3                                   ",
"                      U [..     . .         +               ",
"                      U [.J   . .   . o 3.& . o 4 2.<.<.>.=.",
"                      U |.] . .     J.Y.< % 0.z . y.I.Y.Y.Y.",
"            s s       A ].' . .   4.OXx & #XI.Y..XoXoX+X@X#X",
"          t gXgX^.W   . !.!.    ; u.B 5 %X1X=X:X:X:X1X:X1X1X",
"            ) pX9XsX_   w /.- u.H D.k.C m tXuXuXuXtXtXtXtXtX",
"              { iXfXaX/ t Q.a.b.n.Z B.A.H.y eX2X0X0X0XeXeXeX",
"              e ^ _.'.gX~ V x.c.z.A.x.M.,X> *XuXtXuXuXuXyXyX",
"              ~ 7X` (.`.s.g.X.o. XG.N.N.O.L G $XtXuXuXtXrXuX",
"              . _.}.5XA f.d.F @.#.+.V.A.R 4X8XG *XuXuXuXuXuX",
"                . . 9 Q . = k. .} l.S.h.6 i K }.3 1X>X>X:X:X",
"                    ..c . M p.8 < n b u .Xy.y.N E .X.XR.Y.I.",
"                  # F.0 . g b . . % 5.6.e.r.7.7.0.0.0.e.r.r.",
"                    @ . i.. [ gXs   -.-.>.<.N &.&.*.=.=.>.1.",
"                    . . p ; 4XdXgXW               k k k 7 k ",
"                  . . .     q S D Y .                       ",
"                .                                           ",
"                                                            "
};
