/* XPM */
static char *blastoise[] = {
/* columns rows colors chars-per-pixel */
"30 20 184 2 ",
"   c None",
".  c #070604",
"X  c #130A03",
"o  c #000712",
"O  c #161512",
"+  c #362B14",
"@  c #04202E",
"#  c #152234",
"$  c #1B2835",
"%  c #2D2C2A",
"&  c #272626",
"*  c #3E3529",
"=  c #2F2F33",
"-  c #343339",
";  c #463A1D",
":  c #463B2F",
">  c #483823",
",  c #463A35",
"<  c #584529",
"1  c #494337",
"2  c #534937",
"3  c #614C2E",
"4  c #6B5535",
"5  c #142A45",
"6  c #05374C",
"7  c #1F3044",
"8  c #013B52",
"9  c #2A3B4A",
"0  c #33495A",
"q  c #2D4D6E",
"w  c #31516C",
"e  c #325479",
"r  c #4B4C4D",
"t  c #43484B",
"y  c #504942",
"u  c #4E5249",
"i  c #5C5148",
"p  c #404851",
"a  c #4B5253",
"s  c #48565C",
"d  c #5A5C5E",
"f  c #525657",
"g  c #756449",
"h  c #5B5E60",
"j  c #405B78",
"k  c #435B6B",
"l  c #4D677A",
"z  c #676966",
"x  c #736D6D",
"c  c #64706A",
"v  c #77796F",
"b  c #6F7574",
"n  c #73767C",
"m  c #777676",
"M  c #8A6E3E",
"N  c #8F6E4A",
"B  c #837A54",
"V  c #867B65",
"C  c #7B807E",
"Z  c #8C825E",
"A  c #928158",
"S  c #AA814A",
"D  c #B88952",
"F  c #BD915C",
"G  c #878061",
"H  c #908E75",
"J  c #B39D75",
"K  c #A19975",
"L  c #B6AA6E",
"P  c #D6C376",
"I  c #236F8E",
"U  c #32618B",
"Y  c #366F95",
"T  c #0277A7",
"R  c #396BA4",
"E  c #476A87",
"W  c #516B81",
"Q  c #4D758F",
"!  c #53728B",
"~  c #42699E",
"^  c #5A7C9C",
"/  c #617E9E",
"(  c #4774A5",
")  c #4B7BB3",
"_  c #0286BC",
"`  c #0280B4",
"'  c #3785A4",
"]  c #7D8186",
"[  c #698489",
"{  c #5C81A2",
"}  c #5284BB",
"|  c #5589BC",
" . c #5A88B6",
".. c #7B8EA1",
"X. c #688BB6",
"o. c #6E93AF",
"O. c #028CC4",
"+. c #0293CE",
"@. c #029CDA",
"#. c #02A9ED",
"$. c #02A5E7",
"%. c #4B83C9",
"&. c #538FC7",
"*. c #5E96C8",
"=. c #5999DA",
"-. c #6A9ACA",
";. c #6698C5",
":. c #649DD5",
">. c #68A4DF",
",. c #6DADEC",
"<. c #69A8E5",
"1. c #72B2EB",
"2. c #71B5F3",
"3. c #68AEF6",
"4. c #2CC0FD",
"5. c #33C3FD",
"6. c #3EC6FD",
"7. c #40C6FD",
"8. c #4ECBFD",
"9. c #46C8FD",
"0. c #54CCFD",
"q. c #59CEFD",
"w. c #76C3FF",
"e. c #7AC2FE",
"r. c #7BCBFF",
"t. c #65D2FE",
"y. c #6DD4FE",
"u. c #70D4FE",
"i. c #7AD3FF",
"p. c #8B8C84",
"a. c #838687",
"s. c #919884",
"d. c #889894",
"f. c #949596",
"g. c #A69890",
"h. c #AFA681",
"j. c #B9AF8A",
"k. c #A9A391",
"l. c #B8AD99",
"z. c #8A9DAB",
"x. c #9D9FA9",
"c. c #90A2AE",
"v. c #ACADAD",
"b. c #A8ADB2",
"n. c #ADB3BA",
"m. c #B9B7B3",
"M. c #D2BA84",
"N. c #C2B4A2",
"B. c #CEC082",
"V. c #D8CD9C",
"C. c #D5C389",
"Z. c #EAD799",
"A. c #CDC7B6",
"S. c #F9E9B1",
"D. c #FFF8BA",
"F. c #F4E4A7",
"G. c #89B5C8",
"H. c #A2BCC8",
"J. c #BDBDC6",
"K. c #83BAF8",
"L. c #95C4D7",
"P. c #8FC1E7",
"I. c #83CDFF",
"U. c #81C7FF",
"Y. c #84D8FE",
"T. c #97D9F4",
"R. c #AED9FC",
"E. c #9DE2FE",
"W. c #A3E4FE",
"Q. c #AFE7FE",
"!. c #B6EAFE",
"~. c #BBEBFE",
"^. c #B0E7FE",
"/. c #CCCBCC",
"(. c #C7C7C8",
"). c #D0CED8",
"_. c #E5DDD7",
"`. c #FFFFC8",
"'. c #E8E3DC",
"]. c #E5E8EE",
"[. c #F5EFE6",
"{. c #EFF0F2",
"}. c white",
"|. c #F6F8FC",
/* pixels */
"                                  + O b.f..                 ",
"            & %     .           4 N f |.|.-                 ",
"          r v.v.h X D 4 O     * N 2 b.m.d                   ",
"          x a.r ].i g F M ; * 2 H m x n 5 #.#.#.@.@.+.O.O._ ",
"            v.{./.f 0 t D 4 m N./.] { } ' 0.4.5.7.7.8.0.0.q.",
"            , m h z u < J h -. . .w.r.2.$ Y.8.q.t.u.y.u.i.Y.",
"            : y h s 1 l.}.C { w.i.w.w.I.Q L.E.E.W.W.W.W.W.W.",
"              , : , '.}.(.X.i.;...I.1.w.;.w ~.^.~.^.~.~.^.~.",
"            X 3 l.[.'.}.m.&.3.R.k.l } 2.-.9 9 G.^.^.^.^.^.^.",
"            > A }.c.( .._.z.C P.G.{ <.r.U.! ( w L.~.~.~.~.~.",
"            < A.m.o.i.,.z.C H d.>.r.r.1.r.W ( ~ k ~.~.~.~.~.",
"            < g.{ w.<.:.l C J Z Z s.L.X.0 7 ^ -.9 ~.~.~.~.~.",
"            n ).b ;.w.,.=.K `.F.j.K Z 0 W.T.l $ [ W.W.W.E.E.",
"            = J.2 s ;.1.U.z B.S.D.Z.g Y 0.8.u.y.i.y.q.q.0.0.",
"              r / w.{ ! p.L F.C.M.J Q U I 6.4.4.4.4.5.6.7.7.",
"              o  .I.r.1.c L P V.p.j %.=.$ +.T T T ` _ _ O.+.",
"              e %.2.I.I.E + + # ) %.( U @         8 8 8 8 8 ",
"              7 ) ) -.) 5       # w p.f                     ",
"              u o.( R W             % %                     ",
"              a - n.n.=                                     "
};
