/* XPM */
static char *bulbasaur[] = {
/* columns rows colors chars-per-pixel */
"30 20 226 2 ",
"   c None",
".  c black",
"X  c #072911",
"o  c #072A11",
"O  c #072B12",
"+  c #2C072C",
"@  c #331733",
"#  c #341934",
"$  c #361936",
"%  c #361A37",
"&  c #232E23",
"*  c #3A2D2F",
"=  c #362036",
"-  c #372137",
";  c #392739",
":  c #39243A",
">  c #39253A",
",  c #3E273E",
"<  c #3B293B",
"1  c #1E521E",
"2  c #274A1B",
"3  c #0F5925",
"4  c #105E27",
"5  c #265B24",
"6  c #2D572D",
"7  c #325424",
"8  c #325E28",
"9  c #305B2D",
"0  c #305C2F",
"q  c #315C2F",
"w  c #3B5E2C",
"e  c #344434",
"r  c #335D30",
"t  c #106128",
"y  c #116229",
"u  c #116329",
"i  c #11642A",
"p  c #11672B",
"a  c #12672B",
"s  c #126A2C",
"d  c #126B2D",
"f  c #136F2E",
"g  c #147430",
"h  c #157832",
"j  c #157B33",
"k  c #386427",
"l  c #366D2C",
"z  c #376D2C",
"x  c #38682F",
"c  c #396D2F",
"v  c #356232",
"b  c #396632",
"n  c #396633",
"m  c #3A6C30",
"M  c #3B7631",
"N  c #3C7631",
"B  c #426A33",
"V  c #427632",
"C  c #477337",
"Z  c #42733A",
"A  c #3B2642",
"S  c #422A42",
"D  c #422F42",
"F  c #493949",
"G  c #4B424B",
"H  c #4A6045",
"J  c #477347",
"K  c #FF4A4F",
"L  c #1A983F",
"P  c #3F873F",
"I  c #42803A",
"U  c #42853A",
"Y  c #1A9940",
"T  c #1B9C41",
"R  c #1B9F42",
"E  c #1CA244",
"W  c #1CA344",
"Q  c #1CA444",
"!  c #1CA645",
"~  c #1DA947",
"^  c #1DAB47",
"/  c #1DAC48",
"(  c #1EAE48",
")  c #1EAE49",
"_  c #1EAF49",
"`  c #1EB049",
"'  c #1EB14A",
"]  c #1EB24A",
"[  c #1FB64C",
"{  c #1FB74C",
"}  c #20BA4E",
"|  c #20BC4E",
" . c #20BD4F",
".. c #418140",
"X. c #4B8442",
"o. c #4F8E4F",
"O. c #558F48",
"+. c #4A9B4A",
"@. c #519247",
"#. c #52904F",
"$. c #528C52",
"%. c #528F52",
"&. c #578857",
"*. c #529352",
"=. c #529852",
"-. c #529B52",
";. c #529C52",
":. c #529359",
">. c #5C9C5C",
",. c #4AA04A",
"<. c #52A04F",
"1. c #60A15A",
"2. c #6BB053",
"3. c #71B553",
"4. c #74B953",
"5. c #75BB53",
"6. c #76BC53",
"7. c #74BE53",
"8. c #75BE53",
"9. c #75BF53",
"0. c #72B955",
"q. c #76BC5A",
"w. c #77BD5A",
"e. c #77BF5B",
"r. c #72B85C",
"t. c #609260",
"y. c #619762",
"u. c #629C62",
"i. c #639C63",
"p. c #738273",
"a. c #738C7A",
"s. c #5DA561",
"d. c #5EA560",
"f. c #5CAD63",
"g. c #63A363",
"h. c #63A463",
"j. c #66A666",
"k. c #63A963",
"l. c #63AC63",
"z. c #63AF63",
"x. c #60AA64",
"c. c #66AE66",
"v. c #68A768",
"b. c #67AF68",
"n. c #6AAB6B",
"m. c #6BAA6C",
"M. c #6CAD6D",
"N. c #60B161",
"B. c #6FBD60",
"V. c #6BB06B",
"C. c #6BB16B",
"Z. c #6DB96D",
"A. c #6BB471",
"S. c #70B770",
"D. c #74B576",
"F. c #76B976",
"G. c #21C150",
"H. c #22C653",
"J. c #24D157",
"K. c #24D458",
"L. c #24D559",
"P. c #25D659",
"I. c #25D75A",
"U. c #25D85A",
"Y. c #25D95A",
"T. c #28DA5D",
"R. c #29DA5E",
"E. c #2ADB5E",
"W. c #2DDB60",
"Q. c #2DDB61",
"!. c #2EDB61",
"~. c #2EDB62",
"^. c #2FDC62",
"/. c #78C05B",
"(. c #79C459",
"). c #7AC25D",
"_. c #7CC75C",
"`. c #6DC66D",
"'. c #7ECB61",
"]. c #79CD65",
"[. c #6EC170",
"{. c #7BCE7B",
"}. c #7BD57B",
"|. c #7BD77B",
" X c #7BD97B",
".X c #A29359",
"XX c #AA9664",
"oX c #B9A26E",
"OX c #82D063",
"+X c #86D968",
"@X c #87DA69",
"#X c #8DE36D",
"$X c #91F27F",
"%X c #7BD882",
"&X c #879F88",
"*X c #94AE95",
"=X c #85C586",
"-X c #81D983",
";X c #82D983",
":X c #83DB84",
">X c #84DD84",
",X c #82E082",
"<X c #83E183",
"1X c #82E086",
"2X c #84E584",
"3X c #83E983",
"4X c #86E188",
"5X c #88E788",
"6X c #88E789",
"7X c #8BE98B",
"8X c #8BEA8B",
"9X c #8CEA8C",
"0X c #8FEF8F",
"qX c #8EF18F",
"wX c #90F391",
"eX c #91F391",
"rX c #93F794",
"tX c #90FF90",
"yX c #9DFC9D",
"uX c #9CFF9C",
"iX c #93FFA0",
"pX c #A7FFA7",
"aX c #A8FFA9",
"sX c #A9FFAC",
"dX c #E8FFE8",
"fX c white",
/* pixels */
"                                                            ",
"                    .   .                                   ",
"                  . sX. sX.                                 ",
"                  . /.qX].. .           j j j j g f d i i i ",
"              . . @Xw q.k C #X. .   [ ^ ^ [ L Y E ^ E ) ) [ ",
"            . ..]./.0 w.b /.r OX@X. {  . .H.) ) [  . . . .H.",
"          . X./.0.9 0.0.q w.0.q /.l.. P.P.. K.K.K.P.P.P.P.Y.",
"          . s.0.q 0.2.2.0.q q.#.H y.F . . pX. ^.^.E.^.^.^.E.",
"          . 1.#.x w.2.2.0.m O.;.* A [.rX8XwX. E.Y.^.Y.Y.E.E.",
"          . C.:.B O.$.$.-.J ,.$ D.V x 1.|.8X. ^.^.^.^.^.^.^.",
"            . b.Z *.$.-.S ; # v.5Xq b 7 >X{.yX. ^.^.^.^.^.^.",
"              . e J +.t.; tX2X X{.>X>X>X{.|.C.. ^.^.^.^.^.^.",
"              . =X> < - `.+ 2X#X8X5X$.>X{.-X5 K . Y.P.Y.P.K.",
"            . #.M m.l.C.y.u.2XA . & sX2 %X{.2XiX. [ [ ) ^ ^ ",
"            . I z g.C.% m.y.$.fXfX. . wX{.{.wX. Y Y Y Y E E ",
"            . *Xa.l.> I m g.s.P fX.X. 0X|.yXg.. 3 4 i i d d ",
"              . dXZ.D M z m.@ C.f.XXoXA.F.. .     O O O O O ",
"                . . G &Xp.>.C.. . . . . .                   ",
"                    . 1 fX-.fX.                             ",
"                      . . . .                               "
};
