/* XPM */
static char *butterfree[] = {
/* columns rows colors chars-per-pixel */
"30 20 244 2 ",
"   c None",
".  c black",
"X  c #000301",
"o  c #000104",
"O  c #00070B",
"+  c #0A1114",
"@  c #161A16",
"#  c #191919",
"$  c #191D19",
"%  c #1B1D1B",
"&  c #10210D",
"*  c #122C0E",
"=  c #1A2A17",
"-  c #193F12",
";  c #071F2B",
":  c #171E21",
">  c #192023",
",  c #17222A",
"<  c #1C242C",
"1  c #20282F",
"2  c #2A2C28",
"3  c #35342F",
"4  c #202730",
"5  c #222B31",
"6  c #2C2F30",
"7  c #2D343E",
"8  c #313A37",
"9  c #30353D",
"0  c #3F3F3F",
"q  c #194012",
"w  c #1A4112",
"e  c #1A4212",
"r  c #1A4213",
"t  c #354331",
"y  c #354638",
"u  c #2F7922",
"i  c #307C23",
"p  c #347F26",
"a  c #394242",
"s  c #394049",
"d  c #39434E",
"f  c #3F494C",
"g  c #3A4352",
"h  c #324852",
"j  c #2D545F",
"k  c #304D64",
"l  c #394E60",
"z  c #34586A",
"x  c #464E41",
"c  c #4A5348",
"v  c #475158",
"b  c #4E565E",
"n  c #505953",
"m  c #654C57",
"M  c #644E5C",
"N  c #7B4D5A",
"B  c #427A4A",
"V  c #474560",
"C  c #4C4D65",
"Z  c #5F4F65",
"A  c #4F5267",
"S  c #4F5569",
"D  c #585D62",
"F  c #545A6B",
"G  c #545E75",
"H  c #5B5C72",
"J  c #665768",
"K  c #5B6D60",
"L  c #576378",
"P  c #5D677F",
"I  c #5B697F",
"U  c #666863",
"Y  c #646E77",
"T  c #65607C",
"R  c #666D7B",
"E  c #646B7C",
"W  c #666E7C",
"Q  c #6F6F79",
"!  c #6C747A",
"~  c #707477",
"^  c #75767A",
"/  c #953337",
"(  c #A55856",
")  c #94546F",
"_  c #8C6378",
"`  c #EB5554",
"'  c #DE645F",
"]  c #C67268",
"[  c #338124",
"{  c #338325",
"}  c #358826",
"|  c #388E28",
" . c #3A9329",
".. c #3A952A",
"X. c #3B962A",
"o. c #3C982B",
"O. c #3D9C2C",
"+. c #3E9D2C",
"@. c #3FA22E",
"#. c #498F3D",
"$. c #40A32E",
"%. c #42A82F",
"&. c #49BB35",
"*. c #598056",
"=. c #629C58",
"-. c #63A157",
";. c #6F886B",
":. c #6F9868",
">. c #798872",
",. c #7F8A70",
"<. c #6BD058",
"1. c #6CD059",
"2. c #6CD05A",
"3. c #6DD15B",
"4. c #70D25E",
"5. c #70D25F",
"6. c #74D362",
"7. c #78D468",
"8. c #7AD569",
"9. c #7AD56A",
"0. c #7ED66E",
"q. c #8B977D",
"w. c #89BE7F",
"e. c #82D773",
"r. c #84D875",
"t. c #85D876",
"y. c #88D979",
"u. c #89DA7A",
"i. c #89DA7B",
"p. c #8ADA7C",
"a. c #8CDA7D",
"s. c #8DDB7F",
"d. c #555A83",
"f. c #63588D",
"g. c #436985",
"h. c #507281",
"j. c #517182",
"k. c #57708E",
"l. c #696189",
"z. c #666B89",
"x. c #7A638E",
"c. c #6C7480",
"v. c #62748D",
"b. c #757A82",
"n. c #757C87",
"m. c #727B88",
"M. c #787F88",
"N. c #6C6A99",
"B. c #7E67A0",
"V. c #886C9F",
"C. c #AF6987",
"Z. c #8768A9",
"A. c #9874A9",
"S. c #D07F80",
"D. c #8578C9",
"F. c #8C7FCD",
"G. c #5B869A",
"H. c #7A808C",
"J. c #508FA1",
"K. c #4E93A6",
"L. c #5BA1B2",
"P. c #64C4D5",
"I. c #87839C",
"U. c #8F969E",
"Y. c #9A9C9C",
"T. c #8BAA84",
"R. c #8FAF89",
"E. c #9298A1",
"W. c #959AA3",
"Q. c #9CA0A2",
"!. c #9AA2AD",
"~. c #9FA3AC",
"^. c #A1A4A7",
"/. c #A3A5AA",
"(. c #A2A7AF",
"). c #A3A8AD",
"_. c #A6ABAE",
"`. c gray66",
"'. c #B0B3AF",
"]. c #A4A9B0",
"[. c #A9ADB2",
"{. c #ABB0B7",
"}. c #B5BDBF",
"|. c #FFA493",
" X c #94D687",
".X c #93DD86",
"XX c #95DD88",
"oX c #99DF8C",
"OX c #9BDF8E",
"+X c #9BDF8F",
"@X c #9CDF8F",
"#X c #9DE091",
"$X c #A2E196",
"%X c #A9E49E",
"&X c #A7C1A2",
"*X c #A6C5A0",
"=X c #B8E9B0",
"-X c #BBE9B3",
";X c #BCEAB4",
":X c #BDEAB5",
">X c #BFEBB7",
",X c #C2C2BD",
"<X c #FFC0A9",
"1X c #C0EBB8",
"2X c #C1EBB9",
"3X c #C3ECBB",
"4X c #C4ECBD",
"5X c #B7BAC0",
"6X c #B3BDC3",
"7X c #B5B9C6",
"8X c #BCBFC5",
"9X c #A394E8",
"0X c #A99DF2",
"qX c #BEC1C7",
"wX c #BAC3CA",
"eX c #BFC4C8",
"rX c #C5C7CD",
"tX c #C5C8CE",
"yX c #C7C9CE",
"uX c #D4D6D4",
"iX c #D3D5DA",
"pX c #D5D6DA",
"aX c #D4D6DD",
"sX c #D6D8DC",
"dX c #D6D8DD",
"fX c #DBDDDA",
"gX c #D9DBDE",
"hX c #C8EDC1",
"jX c #C8EEC1",
"kX c #C9EEC2",
"lX c #CAEEC3",
"zX c #CEEFC8",
"xX c #CFF0C9",
"cX c #D0F0CA",
"vX c #D1F0CB",
"bX c #E0E2E6",
"nX c #E2E4E7",
"mX c #E1E4E9",
"MX c #E7E8EA",
"NX c #E7E8EB",
"BX c #EBECF0",
"VX c #F2F3F3",
"CX c #FFFFFC",
"ZX c white",
/* pixels */
"                                                            ",
"                                          = #               ",
"                                    >   X &   # @           ",
"              X                   X {.2 u &.* = } %.@.@.O...",
"          : d Y b < X             x wXt u.=.#.4.7.7.e.u.u.u.",
"          5 !.tXCXBX/.9           Y.! K y.:.t.u.XX@X@X@X$X%X",
"          + n.nX7XaXCXCXD       y }.n R.~ 1X=X:X2X2X>X2X2X2X",
"            , E.8X{.H.tXVXU   2Xx I.T V C >.vXvXzXzXzXzXzXzX",
"              R CXU.c.aXwXQ.T.*Xf.Z.V.0X9X_ q.2XhXhXhXlXlXlX",
"              X E.NX8XNXCXNXc A B.] S.A.I.C.( '.xXvXvXvXcXcX",
"                d aX!.R M.CX,Xd.N |.<X) F.B./ >.xXvXvXxXzXvX",
"                4 NXCXCXaX6XgXm.m ` ' Z k.L.9 zXvXvXvXvXvXvX",
"                O R rX].].6X/.^ L n J H G.J.K 2X2X2X2X2X:X:X",
"                  7 aXCXCXuX^ f.z.I l.F 0 -. X@X#XXX.Xu.u.t.",
"                    2 Y.'.`.^ N.k.P.L g B 7.3.<.<.<.3.6.7.7.",
"                    X n.fX_.# A z.j.8 i O.$.i } } | ....O.$.",
"                      5 a   ; g.v l               r r r - r ",
"                            K.z h k                         ",
"                            j                               ",
"                                                            "
};
