/* XPM */
static char *caterpie[] = {
/* columns rows colors chars-per-pixel */
"30 20 157 2 ",
"   c None",
".  c black",
"X  c #193F12",
"o  c #282E1F",
"O  c #37053A",
"+  c #2B382C",
"@  c #194012",
"#  c #1A4112",
"$  c #1A4212",
"%  c #1A4213",
"&  c #3F5634",
"*  c #50652B",
"=  c #637C33",
"-  c #62703E",
";  c #191D42",
":  c #271742",
">  c #251A42",
",  c #291E42",
"<  c #0C2E42",
"1  c #172942",
"2  c #182B42",
"3  c #182F41",
"4  c #232142",
"5  c #272A42",
"6  c #2A2E42",
"7  c #2C2E42",
"8  c #2A264C",
"9  c #322742",
"0  c #37384B",
"q  c #482743",
"w  c #424251",
"e  c #424252",
"r  c #D04B3D",
"t  c #FF4628",
"y  c #FF4A2F",
"u  c #FF502F",
"i  c #FF532F",
"p  c #FF552F",
"a  c #E84839",
"s  c #FB4F3E",
"d  c #FF5B3A",
"f  c #FF5F3A",
"g  c #338124",
"h  c #338325",
"j  c #358826",
"k  c #388E28",
"l  c #3A9329",
"z  c #3A952A",
"x  c #3B962A",
"c  c #3C982B",
"v  c #3D9C2C",
"b  c #3E9D2C",
"n  c #3FA22E",
"m  c #6C8532",
"M  c #728C3A",
"N  c #40A32E",
"B  c #42A82F",
"V  c #45B132",
"C  c #48B734",
"Z  c #49BB35",
"A  c #658541",
"S  c #719041",
"D  c #719F41",
"F  c #7BA54B",
"G  c #7BA74B",
"H  c #7BAD4B",
"J  c #66A553",
"K  c #6BD058",
"L  c #6BD059",
"P  c #6CD059",
"I  c #6CD05A",
"U  c #6DD15B",
"Y  c #70D25E",
"T  c #70D25F",
"R  c #74D362",
"E  c #78D468",
"W  c #7AD569",
"Q  c #7AD56A",
"!  c #7ED66E",
"~  c #9FA43B",
"^  c #BFC83C",
"/  c #FFDE2E",
"(  c #FFED2E",
")  c #FFFF2F",
"_  c #A19B5F",
"`  c #82A84B",
"'  c #85AF4E",
"]  c #85B149",
"[  c #8AB34B",
"{  c #A4BE42",
"}  c #A2A357",
"|  c #92CE4C",
" . c #92C05B",
".. c #97C358",
"X. c #9AC659",
"o. c #A6DC4C",
"O. c #A6DE4C",
"+. c #9CE34C",
"@. c #9CE456",
"#. c #A8E24C",
"$. c #AFEB4C",
"%. c #ADF24C",
"&. c #AFEA53",
"*. c #AEE854",
"=. c #82D773",
"-. c #84D875",
";. c #85D876",
":. c #88D979",
">. c #89DA7A",
",. c #89DA7B",
"<. c #8ADA7C",
"1. c #8CDA7D",
"2. c #8DDB7F",
"3. c #A0C571",
"4. c #C0FE5C",
"5. c #CCFF5E",
"6. c #D9F054",
"7. c #FFFF5B",
"8. c #FFFF5D",
"9. c #E0D06F",
"0. c #C1FF6B",
"q. c #CEFF72",
"w. c #F2E577",
"e. c #FFE972",
"r. c #FFEB76",
"t. c #FFFF7D",
"y. c #FFFE7F",
"u. c #93DD86",
"i. c #95DD88",
"p. c #99DF8C",
"a. c #9ADF8D",
"s. c #9BDF8E",
"d. c #9BDF8F",
"f. c #9CDF8F",
"g. c #9DE091",
"h. c #A2E196",
"j. c #A9E49E",
"k. c #B8E9B0",
"l. c #BBE9B3",
"z. c #BCEAB4",
"x. c #BDEAB5",
"c. c #BFEBB7",
"v. c #F9FA83",
"b. c #FFFF83",
"n. c #FFFF86",
"m. c #C0EBB8",
"M. c #C1EBB9",
"N. c #C3ECBB",
"B. c #C4ECBD",
"V. c #C8EDC1",
"C. c #C8EEC1",
"Z. c #C9EEC2",
"A. c #CAEEC3",
"S. c #CEEFC8",
"D. c #CFF0C9",
"F. c #D0F0CA",
"G. c #D1F0CB",
/* pixels */
"                                                            ",
"                                                            ",
"                                    .                       ",
"                          . . .   . s . Z Z Z Z V B N v v l ",
"                        . f i f . . a . >.>.K R E ! ;.;.>.>.",
"                        . q - y i i r . h.j.;.>.u.a.a.g.h.j.",
"                        . 6.O 2 < t 2 0.. B.k.x.m.B.m.B.B.B.",
"                      . ^ ) ) @.%.1 O q.. Z.D.D.D.Z.Z.G.Z.G.",
"                      . 8.. . ) | #.$.A ` . Z.Z.Z.Z.Z.Z.Z.Z.",
"                      . 8.. . ) { O.S O.4.. D.G.F.F.F.F.F.F.",
"                  .   . ~ ( / J F * *.*.m . D.G.F.F.F.F.F.F.",
"                . n.6   . 8 H ` [ 9 = M . G.G.G.F.F.F.F.F.F.",
"                . t.5   . X.: , + 8 0 . c.c.c.c.V.B.B.x.x.x.",
"                . n.o & . ] 0.+.r.n.. u.! ! g.u.f.i.>.:.>.;.",
"                  . } + 3.. D r.n.. T T ! ! K K I I R R E E ",
"                  . e ..H _ 2 0 .   v v n n * j j k l l v N ",
"                    . . ..9.w..                   % % % X % ",
"                        . . .                               ",
"                                                            ",
"                                                            "
};
