/* XPM */
static char *charmeleon[] = {
/* columns rows colors chars-per-pixel */
"30 20 169 2 ",
"   c None",
".  c #010101",
"X  c #0B0302",
"o  c #040109",
"O  c #080C08",
"+  c #110304",
"@  c #150A07",
"#  c #170508",
"$  c #1B1704",
"%  c #050E12",
"&  c #2C0D0E",
"*  c #290B05",
"=  c #261508",
"-  c #3D1308",
";  c #290E17",
":  c #391718",
">  c #373509",
",  c #2E2D17",
"<  c #31201D",
"1  c #351E26",
"2  c #182222",
"3  c #142732",
"4  c #2D2928",
"5  c #393A39",
"6  c #4C1B0A",
"7  c #4A1D1D",
"8  c #7D180F",
"9  c #631D1A",
"0  c #761A11",
"q  c #452A0C",
"w  c #5C2607",
"e  c #44320C",
"r  c #4E2217",
"t  c #5B291D",
"y  c #612A07",
"u  c #432F2D",
"i  c #5F2D38",
"p  c #473634",
"a  c #573537",
"s  c #6D2B27",
"d  c #7E3729",
"f  c #693D3E",
"g  c #7C3937",
"h  c #65403D",
"j  c #5D3940",
"k  c #3D4D4D",
"l  c #6D4545",
"z  c #674745",
"x  c #7A4644",
"c  c #695955",
"v  c #726764",
"b  c #6A766A",
"n  c #717465",
"m  c #86130E",
"M  c #831310",
"N  c #8D362F",
"B  c #822F32",
"V  c #883733",
"C  c #903D34",
"Z  c #A33634",
"A  c #C53E3A",
"S  c #B44B0D",
"D  c #8E650F",
"F  c #B66E0C",
"G  c #81402C",
"H  c #99432B",
"J  c #82413F",
"K  c #964432",
"L  c #99463A",
"P  c #B64639",
"I  c #B15536",
"U  c #AE6533",
"Y  c #C94D0F",
"T  c #CE530F",
"R  c #C6530E",
"E  c #C95B13",
"W  c #C65511",
"Q  c #D35C10",
"!  c #CC6715",
"~  c #D26F14",
"^  c #D57214",
"/  c #C64A3D",
"(  c #C3533D",
")  c #8A4644",
"_  c #994745",
"`  c #9A5656",
"'  c #A54B4B",
"]  c #A74643",
"[  c #B34946",
"{  c #AE5C4A",
"}  c #BD5A4C",
"|  c #B85946",
" . c #8F785F",
".. c #B06253",
"X. c #896460",
"o. c #A17572",
"O. c #C94946",
"+. c #C64B48",
"@. c #DB4B45",
"#. c #D24E49",
"$. c #D34A43",
"%. c #C75A4C",
"&. c #D4544A",
"*. c #DB544C",
"=. c #D55C46",
"-. c #E84A46",
";. c #F84C48",
":. c #E6524C",
">. c #E8584D",
",. c #F65E49",
"<. c #F35551",
"1. c #DE614A",
"2. c #E6624B",
"3. c #F56C4E",
"4. c #FE6B4E",
"5. c #F9614D",
"6. c #FF724F",
"7. c #FF6C54",
"8. c #FF7352",
"9. c #FF7A51",
"0. c #FF735B",
"q. c #FF7D5C",
"w. c #C96F68",
"e. c #C17C60",
"r. c #C17872",
"t. c #FF7962",
"y. c #B98D11",
"u. c #A7892A",
"i. c #FE9410",
"p. c #FD9B12",
"a. c #F79312",
"s. c #C9BC19",
"d. c #EAA919",
"f. c #FDA313",
"g. c #FDAC14",
"h. c #FFB312",
"j. c #FFBD15",
"k. c #FAB21A",
"l. c #FFC41A",
"z. c #FFCB1F",
"x. c #F4DE1D",
"c. c #FFEC1F",
"v. c #FFE71E",
"b. c #FFF51C",
"n. c #FFFE1B",
"m. c #F3F119",
"M. c #FFD322",
"N. c #F6DE39",
"B. c #FFEE21",
"V. c #FFFF3B",
"C. c #AF9977",
"Z. c #FF835E",
"A. c #FF9F5B",
"S. c #FFA854",
"D. c #FF8366",
"F. c #EA9A6D",
"G. c #FFDF50",
"H. c #FFD259",
"J. c #9FAC99",
"K. c #F68B82",
"L. c #FF958C",
"P. c #D1B784",
"I. c #E3B7B6",
"U. c #F6D796",
"Y. c #F3E2B3",
"T. c #FFFAB7",
"R. c #A8BEC1",
"E. c #ABCACE",
"W. c #FFE1E0",
/* pixels */
"                    .                                       ",
"                    H t                                     ",
"                  . I V         & @                         ",
"                . C S.S.&     . t./ @   ^ ^ ^ ^ ! ! E E R R ",
"                7 D.N.G.;     . C Z.( e D d.a.p.f.f.g.g.k.k.",
"                # U V.u.+       . { 9.( s e g.h.j.l.l.l.z.M.",
"                  : H.>       . V } 4.4.Z.( > x.B.c.c.c.c.c.",
"                o &.K .       . 0.6.4.7.3.q.@ m.n.n.n.n.n.n.",
"              @ 0.K .       > C t.P 6 Z.2.5.2.$ b.b.b.b.b.b.",
"            o 3.Z.B       o < $./ K.R.L 1.( 9.3.@ n.n.n.n.n.",
"            @ q.K .   . . 1.0.#.A L.E.O | 4.6.8.. n.n.n.n.n.",
"          . :.:.C     V 7.6.} ..i A &.4.5.%.1.$ n.n.n.n.n.n.",
"          . [ -.,.L _ +.,.2.j e.F.k 3 f %.l % s.B.c.c.c.v.v.",
"            . <.O.x ) l &.z _ U.T.P.= , 5 ] ` a y.l.h.h.h.g.",
"            o Z ' J x _ @.@.f C.Y. .y F r 9 o.I.. i.p.p.f.f.",
"              O a V [ l +.@.@.J.b B s w S w c u 6 Y Y T T Q ",
"                . s ;.' z +.:.n g r.X.#     6 *   0 0 8 M m ",
"                  r >.-.[ g 1   & 4 p                       ",
"                  o a ' A +                                 ",
"                    v w.W.2                                 "
};
