/* XPM */
static char *charmander[] = {
/* columns rows colors chars-per-pixel */
"30 20 238 2 ",
"   c None",
".  c black",
"X  c #000001",
"o  c #020101",
"O  c #000005",
"+  c #0B0303",
"@  c #0B0702",
"#  c #000008",
"$  c #0E0E0E",
"%  c #1B0B09",
"&  c #1C0D09",
"*  c #1F1918",
"=  c #210C04",
"-  c #200D0B",
";  c #291400",
":  c #2E1E1E",
">  c #3E1414",
",  c #301A18",
"<  c #1C271B",
"1  c #3A2205",
"2  c #37210B",
"3  c #242517",
"4  c #3C2412",
"5  c #1B2723",
"6  c #2D2626",
"7  c #46180D",
"8  c #42171C",
"9  c #431A1F",
"0  c #7D180F",
"q  c #771910",
"w  c #751A11",
"e  c #4E241F",
"r  c #562518",
"t  c #51211E",
"y  c #543215",
"u  c #5D3A14",
"i  c #522123",
"p  c #542321",
"a  c #433933",
"s  c #4F3A3F",
"d  c #663929",
"f  c #703125",
"g  c #6C3D34",
"h  c #4C4B16",
"j  c #584711",
"k  c #6D411C",
"l  c #7C471B",
"z  c #79481D",
"x  c #7B7B0D",
"c  c #777710",
"v  c #745F25",
"b  c #6E493D",
"n  c #756021",
"m  c #5B5451",
"M  c #634C4C",
"N  c #754A44",
"B  c #73564F",
"V  c #86130E",
"C  c #831310",
"Z  c #923F2D",
"A  c #875219",
"S  c #80501C",
"D  c #9D5410",
"F  c #AF4C0D",
"G  c #837810",
"H  c #88432F",
"J  c #A15926",
"K  c #A2592E",
"L  c #A14C35",
"P  c #B6493E",
"I  c #B94E38",
"U  c #A05338",
"Y  c #B35236",
"T  c #BA5637",
"R  c #BA523B",
"E  c #BE5038",
"W  c #B2673D",
"Q  c #C3420D",
"!  c #C2400E",
"~  c #C4460F",
"^  c #C84B0E",
"/  c #CA4F0F",
"(  c #C6530E",
")  c #CD500F",
"_  c #CF560F",
"`  c #C65511",
"'  c #C85913",
"]  c #CA5D13",
"[  c #D35C10",
"{  c #CA6315",
"}  c #CE6A15",
"|  c #D26F14",
" . c #C3721B",
".. c #D25137",
"X. c #E3533A",
"o. c #D56B3E",
"O. c #8C4B44",
"+. c #8B5C41",
"@. c #8D5C4C",
"#. c #9D5846",
"$. c #AB5948",
"%. c #B05B45",
"&. c #AA6E60",
"*. c #AC7C60",
"=. c #CD5F43",
"-. c #CF5F47",
";. c #D45D44",
":. c #DE6546",
">. c #DD6348",
",. c #EE6347",
"<. c #EA6546",
"1. c #E76548",
"2. c #E2674E",
"3. c #EE6D49",
"4. c #EE704D",
"5. c #FD7047",
"6. c #FE7E40",
"7. c #E57255",
"8. c #F07151",
"9. c #FF7251",
"0. c #FC7353",
"q. c #FF7953",
"w. c #C17F7E",
"e. c #81810F",
"r. c #978C12",
"t. c #999912",
"y. c #B2B113",
"u. c #C08811",
"i. c #EA9310",
"p. c #F79515",
"a. c #FA9210",
"s. c #F99312",
"d. c #FE9210",
"f. c #FE9610",
"g. c #F99813",
"h. c #FF9A11",
"j. c #FF9F11",
"k. c #FDA113",
"l. c #FFA112",
"z. c #FCA614",
"x. c #FEAF11",
"c. c #FFAC12",
"v. c #FAAB16",
"b. c #FFB011",
"n. c #FEB211",
"m. c #FFB612",
"M. c #FFBE13",
"N. c #FFBC17",
"B. c #FAB118",
"V. c #FAB21A",
"C. c #F9B41B",
"Z. c #DD8529",
"A. c #EA852A",
"S. c #F4912E",
"D. c #F5902F",
"F. c #F7942F",
"G. c #F7952F",
"H. c #F8952F",
"J. c #FF962E",
"K. c #F89D2E",
"L. c #FF9C2E",
"P. c #FF9F2E",
"I. c #F38A30",
"U. c #FA8C32",
"Y. c #FF9239",
"T. c #FF973F",
"R. c #FF9B3F",
"E. c #DFAA2F",
"W. c #FFA02F",
"Q. c #FFA42E",
"!. c #FFA730",
"~. c #FFA334",
"^. c #FFAE34",
"/. c #FFAE37",
"(. c #FFA33E",
"). c #FFB136",
"_. c #F5B538",
"`. c #FFB238",
"'. c #FFB63D",
"]. c #FFBA3A",
"[. c #FFC317",
"{. c #FFC516",
"}. c #FFC219",
"|. c #FFC518",
" X c #FFC41A",
".X c #FFC61C",
"XX c #FFCB1F",
"oX c #FFE71E",
"OX c #FFE91F",
"+X c #FEEB1F",
"@X c #FFEB1F",
"#X c #FFEC1E",
"$X c #FFED1E",
"%X c #FFEC1F",
"&X c #FFED1F",
"*X c #FFF51B",
"=X c #FFF61B",
"-X c #FFF11F",
";X c #FFF51C",
":X c #FFF71D",
">X c #FFFC18",
",X c #FFFD18",
"<X c #FFFC19",
"1X c #FFFE1A",
"2X c #FFFE1B",
"3X c #FFFF1C",
"4X c #FFFF1D",
"5X c #FFFF1E",
"6X c #FFD322",
"7X c #FFEC21",
"8X c #FFEF20",
"9X c #FBF632",
"0X c #FFFF31",
"qX c #B1845C",
"wX c #AA9468",
"eX c #9CA67D",
"rX c #EE8647",
"tX c #EF8C4D",
"yX c #FF8440",
"uX c #FF8F44",
"iX c #FF8E48",
"pX c #FF904F",
"aX c #FF8D51",
"sX c #FFA741",
"dX c #C08D68",
"fX c #CD8675",
"gX c #E78E66",
"hX c #DBAF79",
"jX c #FFD44A",
"kX c #758286",
"lX c #6A9FB1",
"zX c #FFBBAD",
"xX c #DFE29B",
"cX c #ECC8BE",
"vX c #FFCABA",
"bX c #FFFFAC",
"nX c #FFFFB0",
"mX c #FFFFC8",
/* pixels */
"                                                            ",
"                .                                           ",
"              & =..               . . .                     ",
"            . 9.T .             . Z R.).2 . D | } { ' ' ` ( ",
"            - 4.I .           . f T.K.F.P.).. g.l.c.c.C.C.C.",
"          . 9._.3.%..         . J ~.I.D.F.~.4 u.N.}.}..X.X6X",
"          . rX0X^.K .       . l sX .fXtXF.F.^.. 7XOXOXOXOXOX",
"          . v jX9Xh           k '.; lXw.A.F.P.y y.4X>X>X4X>X",
"            . n E..         r.i pX1 . U U.G.J.].. *X:X*X:X:X",
"              . o..         j L 8.H > Z.~.^.uXS c 4X4X4X4X4X",
"              + (.u         e q.1.1.,.6.uXz e x 4X>X>X4X4X4X",
"                A P.9     & I #.%.X.gXg 8 G t.4X4X4X4X4X4X4X",
"                . aX>.r + Y yXW s qXnX5 G OXOXOX:XOX7XOXOXOX",
"                  i 7.b T $.+.Y.d eXmX3 n.c.{.[.[.M.M.b.b.c.",
"                    * B 5.-.N a wXbXhXM = i.p.p.d.d.f.h.l.l.",
"                      , 2.<.;.qXxX*.O.cX: F ! Q Q / / / _ [ ",
"                        6 &...@.5 . . $ 7         w w 0 C V ",
"                        m vXzXkX                            ",
"                          . .                               ",
"                                                            "
};
