/* XPM */
static char *charizard[] = {
/* columns rows colors chars-per-pixel */
"30 20 175 2 ",
"   c None",
".  c #080A02",
"X  c #100003",
"o  c #341314",
"O  c #33191B",
"+  c #2A1B09",
"@  c #362214",
"#  c #03162F",
"$  c #2F2020",
"%  c #323233",
"&  c #5A1B16",
"*  c #7D180F",
"=  c #761A11",
"-  c #5C2719",
";  c #461B28",
":  c #4E2826",
">  c #4D312D",
",  c #5F3434",
"<  c #572D2A",
"1  c #60252B",
"2  c #683F27",
"3  c #733C2D",
"4  c #612D34",
"5  c #792F34",
"6  c #6E3D3D",
"7  c #663538",
"8  c #763037",
"9  c #474A13",
"0  c #774217",
"q  c #655911",
"w  c #636210",
"e  c #55493C",
"r  c #754D2C",
"t  c #755623",
"y  c #604B32",
"u  c #764D3C",
"i  c #786F2A",
"p  c #6C6D32",
"a  c #143864",
"s  c #474D4A",
"d  c #5B5655",
"f  c #784946",
"g  c #725A47",
"h  c #6D5355",
"j  c #7B5A5A",
"k  c #7A5956",
"l  c #6F655C",
"z  c #7B5767",
"x  c #676A6D",
"c  c #86130E",
"v  c #831310",
"b  c #9D3C0B",
"n  c #89363E",
"m  c #A13B26",
"M  c #846F1C",
"N  c #94641D",
"B  c #8C751B",
"V  c #877418",
"C  c #825B2A",
"Z  c #875B3A",
"A  c #9B5D32",
"S  c #B5432C",
"D  c #88662C",
"F  c #946938",
"G  c #AB632F",
"H  c #A76D34",
"J  c #C3430E",
"K  c #C94D0F",
"L  c #CE530F",
"P  c #C6530E",
"I  c #C95B13",
"U  c #C65511",
"Y  c #D35C10",
"T  c #CA6814",
"R  c #D26F14",
"E  c #D57214",
"W  c #C0763F",
"Q  c #823646",
"!  c #873952",
"~  c #84474A",
"^  c #8C4848",
"/  c #855845",
"(  c #975347",
")  c #994351",
"_  c #8F5455",
"`  c #875A51",
"'  c #995456",
"]  c #945854",
"[  c #AA4650",
"{  c #A75D5C",
"}  c #866448",
"|  c #9D6141",
" . c #966657",
".. c #B57740",
"X. c #A96A55",
"o. c #B06457",
"O. c #B9775B",
"+. c #B6694A",
"@. c #B05962",
"#. c #96766C",
"$. c #BB6767",
"%. c #B9706A",
"&. c #C84E5C",
"*. c #C35159",
"=. c #C87052",
"-. c #FF6340",
";. c #CD776A",
":. c #D7716F",
">. c #CE6F70",
",. c #C67070",
"<. c #DC7779",
"1. c #9E9C0F",
"2. c #98841D",
"3. c #AD8A19",
"4. c #A69B18",
"5. c #828429",
"6. c #B09A34",
"7. c #C88F0E",
"8. c #CB8A11",
"9. c #F79414",
"0. c #FC9311",
"q. c #FE9C11",
"w. c #FEA213",
"e. c #FDAC14",
"r. c #E3B019",
"t. c #FFB312",
"y. c #FDBD15",
"u. c #FAB219",
"i. c #FFC41A",
"p. c #FFC81B",
"a. c #FFEB1F",
"s. c #F6E71D",
"d. c #FFF61C",
"f. c #FFFE1B",
"g. c #FFD322",
"h. c #FFEE21",
"j. c #BB8250",
"k. c #A18869",
"l. c #AA867C",
"z. c #CB8551",
"x. c #DB845B",
"c. c #DE8B52",
"v. c #DB9352",
"b. c #D48A4B",
"n. c #FF8448",
"m. c #ED895D",
"M. c #F28C59",
"N. c #E59B57",
"B. c #FA9B58",
"V. c #F5A04D",
"C. c #FEA35C",
"Z. c #FFAB56",
"A. c #FFB95A",
"S. c #FFB455",
"D. c #C58860",
"F. c #E28469",
"G. c #F1886D",
"H. c #EB9767",
"J. c #FFA668",
"K. c #EBD140",
"L. c #FED342",
"P. c #FFF350",
"I. c #285D99",
"U. c #417B8C",
"Y. c #60638A",
"T. c #2C80D1",
"R. c #B58781",
"E. c #AC9583",
"W. c #DDA487",
"Q. c #C3A797",
"!. c #F6D4B5",
"~. c #E2D0CF",
"^. c #F8EDC7",
"/. c #FFF1C7",
"(. c #FFFFDC",
/* pixels */
"                                                            ",
"            - O                                             ",
"            m S                                             ",
"            & n.&                       E T E E T T I I P P ",
"          D -.A.G                 : : e.N 2 9.9.w.w.e.t.u.u.",
"          9 K.P.5.        Z H   5 ) F r.3.6 8.t.y.i.i.i.g.g.",
"            6.g.    + 3 A =.  ; [ r F W M +.t a.h.a.a.a.h.a.",
"            , >   ..B.z.x _ O 5 n 1.B Z.Z.A.b.4.f.f.f.d.f.d.",
"            7   C J.` U.T.Y.( q f ' F.Z.H.J.A.F s.d.d.d.d.d.",
"            ^ . c.|   # a I.j / ;.>.] G.~./ M.M f.f.f.f.f.f.",
"          6 ,.g x.        } v.J.>.r w { R.O.C.V.2.f.f.f.f.f.",
"          f %.X.@       F z.v.M.@.4 7 ' ! u v.x.C f.f.f.f.f.",
"          O ] X.^     u N.j.H.W.!.i V f *.z p V h.h.h.h.a.a.",
"            7 %.&.Q _ O.z.( l.(.^.Z 8.y Z e i.i.i.y.t.u.e.e.",
"              >  .k F.N.k.l.Q./.E.$.0 q.w.w.9.0.0.0.0.q.w.w.",
"                    o.C.N.l E.#.$.( b L P Y J J J K K P L Y ",
"                    ~ :.=.X   1 ,.j               = = * v c ",
"                    { <.h       $ %                         ",
"                    s d %                                   ",
"                                                            "
};
