/* XPM */
static char *ekans[] = {
/* columns rows colors chars-per-pixel */
"30 20 202 2 ",
"   c None",
".  c black",
"X  c #0E2714",
"o  c #0F2815",
"O  c #0D2916",
"+  c #0F2B17",
"@  c #142C1C",
"#  c #192D1F",
"$  c #2A1D2F",
"%  c #2A1E2F",
"&  c #2B1F30",
"*  c #2C1F31",
"=  c #0C2227",
"-  c #0F2C22",
";  c #0E2F2D",
":  c #182F20",
">  c #163122",
",  c #133027",
"<  c #1D3023",
"1  c #1C3224",
"2  c #1D3326",
"3  c #1D342E",
"4  c #21362A",
"5  c #24362F",
"6  c #314034",
"7  c #182540",
"8  c #13244A",
"9  c #553651",
"0  c #593854",
"q  c #563558",
"w  c #5E3958",
"e  c #5C3B5A",
"r  c #5C3C5C",
"t  c #502968",
"y  c #572E68",
"u  c #563D60",
"i  c #573E62",
"p  c #573568",
"a  c #583068",
"s  c gray25",
"d  c #404A40",
"f  c #5A4065",
"g  c #5E436A",
"h  c #644060",
"j  c #644068",
"k  c #62456D",
"l  c #63466F",
"z  c #704868",
"x  c #644670",
"c  c #654771",
"v  c #684974",
"b  c #684A75",
"n  c #6B4C78",
"m  c #6D4D7A",
"M  c #774871",
"N  c #704F7D",
"B  c #907625",
"V  c #805278",
"C  c #80537B",
"Z  c #986077",
"A  c #E36950",
"S  c #EC6B50",
"D  c #ED715D",
"F  c #F27864",
"G  c #FE7A64",
"H  c #C0B31B",
"J  c #C09E30",
"K  c #C7B225",
"L  c #D7B928",
"P  c #D1AF39",
"I  c #DAC71D",
"U  c yellow",
"Y  c #FFFF05",
"T  c #FFFF0D",
"R  c #FFFF13",
"E  c #FFFF16",
"W  c #FFFF18",
"Q  c #EBD227",
"!  c #E3C33A",
"~  c #FFFF2E",
"^  c #FFFF30",
"/  c #FFFF32",
"(  c #FFFF36",
")  c #EBC740",
"_  c #755383",
"`  c #7A5688",
"'  c #7C588B",
"]  c #834780",
"[  c #874D80",
"{  c #884880",
"}  c #8D4D80",
"|  c #98598E",
" . c #894690",
".. c #8F4E95",
"X. c #986080",
"o. c #9F6080",
"O. c #9E6087",
"+. c #A06080",
"@. c #A46687",
"#. c #A36088",
"$. c #AB678D",
"%. c #A9688D",
"&. c #AB698E",
"*. c #AC688E",
"=. c #AD688F",
"-. c #AE698F",
";. c #AD6092",
":. c #AF6990",
">. c #AC6C91",
",. c #AF6F94",
"<. c #B06A90",
"1. c #B26F92",
"2. c #B77199",
"3. c #B67298",
"4. c #BC769E",
"5. c #BD779F",
"6. c #9773A6",
"7. c #9873A7",
"8. c #9874A7",
"9. c #9974A8",
"0. c #9A77A9",
"q. c #9B77A9",
"w. c #9D7AAB",
"e. c #B968AF",
"r. c #A07EAD",
"t. c #A07FAE",
"y. c #A17FAE",
"u. c #BC75A1",
"i. c #BF79A0",
"p. c #B960B0",
"a. c #C87BA7",
"s. c #C97CA8",
"d. c #C06BD4",
"f. c #A383B0",
"g. c #A686B3",
"h. c #A788B4",
"j. c #A889B4",
"k. c #A98BB6",
"l. c #AA8CB6",
"z. c #AB8DB7",
"x. c #AC8EB8",
"c. c #AD8FB9",
"v. c #B094BC",
"b. c #B196BD",
"n. c #B499BF",
"m. c #B49ABF",
"M. c #C080B0",
"N. c #CA87BB",
"B. c #CC87BA",
"V. c #CA87BF",
"C. c #CB88BB",
"Z. c #CD89BD",
"A. c #CF88BE",
"S. c #D188BF",
"D. c #B59BC0",
"F. c #B69CC1",
"G. c #B9A0C3",
"H. c #BEA7C7",
"J. c #CC87C2",
"K. c #D289C0",
"L. c #D48AC1",
"P. c #D08CC0",
"I. c #D18CC0",
"U. c #D98EC7",
"Y. c #DE8FCA",
"T. c #D891C9",
"R. c #DA91C8",
"E. c #DC90C9",
"W. c #DE91CB",
"Q. c #DE94CB",
"!. c #DF90CC",
"~. c #DE95CD",
"^. c #D780DA",
"/. c #E194CF",
"(. c #E197CF",
"). c #E393D0",
"_. c #E297D0",
"`. c #E594D1",
"'. c #E494D2",
"]. c #E191D5",
"[. c #E499D4",
"{. c #E99CD7",
"}. c #E999DA",
"|. c #EF9FDB",
" X c #C9B6D1",
".X c #C9B7D1",
"XX c #CAB7D2",
"oX c #CBB9D3",
"OX c #CCBAD3",
"+X c #CCBAD4",
"@X c #CEBCD5",
"#X c #CFBDD6",
"$X c #EFA0DC",
"%X c #F5A4E1",
"&X c #FEA7E9",
"*X c #D1C0D7",
"=X c #D1C1D8",
"-X c #D2C2D8",
";X c #D4C5DB",
":X c #D5C6DB",
">X c #D6C7DC",
",X c #D6C8DC",
/* pixels */
"                            . . .                           ",
"                        . . |.Q.|.. .                       ",
"                      . $XQ.N.M.z.Y.%X.                     ",
"                    . $XJ.] [ N.Z.K.X.M . [ ' ' _ N m m c c ",
"                    . [.{ T H  .q 0 9 Q.&X. 7.q.f.f.h.x.j.v.",
"                  . 5.X.t E B U { ).Q.).6 . h.x.v.m.D.D.D.H.",
"                  . ,.X.#.t a ^.]., 3 s . oX. oXoXoXoXoXoXoX",
"                  . i.X.X.X.%., ; A G . -X. ( . -X,X,X-X,X-X",
"                    . >.X.X.p S D F . *X-X. ) . -X-X#X-X-X-X",
"                    . u.| ..I 8 . . ,X,X. ^ ^ . -X,X,X,X-X,X",
"                      . Q K J W . ,X,X. ! P . -X,X,X,X,X,X,X",
"                    . s 7 L U d.|.. . e.E ~ . ,X,X,X,X,X,X,X",
"                . . 5.>.;.= ^.x.e.$Xv 5 p.. oXoX#XoXoXoXoX X",
"              . 6 5.+.e #.1.o S.s.s.U.6 . h.D.D.F.D.c.x.j.j.",
"            . s.5 1.X.+.e h w S.s.x.Q.1 s.. q.7.6.q.q.w.r.r.",
"            . 2.%.1 ;.Z Q.Z S.s.K.Y.X $.2.. u i i g l x v m ",
"            . C +.1.2 @ ).| U./.X # %.+.C .       * * * * $ ",
"              . i.j +.).X < # X `.Z j a..                   ",
"                . C {.Z.S.S.S.S.S.{.V .                     ",
"                  . . 1.(.(.(.(.1.. .                       "
};
