/* XPM */
static char *fearow[] = {
/* columns rows colors chars-per-pixel */
"30 20 213 2 ",
"   c None",
".  c black",
"X  c #030200",
"o  c #000002",
"O  c #030704",
"+  c #050504",
"@  c #0B0604",
"#  c #04050A",
"$  c #110E06",
"%  c #130E0A",
"&  c #120A0C",
"*  c #18100D",
"=  c #1A120C",
"-  c #1F1F1D",
";  c #20150B",
":  c #2C1808",
">  c #221F10",
",  c #2A2616",
"<  c #27201B",
"1  c #3A2911",
"2  c #3B2A12",
"3  c #392D10",
"4  c #3C281A",
"5  c #342624",
"6  c #382930",
"7  c #393A30",
"8  c gray23",
"9  c gray24",
"0  c #4C2516",
"q  c #552818",
"w  c #4F391F",
"e  c #5B3C1E",
"r  c #682D1E",
"t  c #613F1F",
"y  c #45372C",
"u  c #4E3D2F",
"i  c #433D31",
"p  c #423E32",
"a  c #4F3D3A",
"s  c #533434",
"d  c #5B393A",
"f  c #703027",
"g  c #733826",
"h  c #65411E",
"j  c #68431F",
"k  c #68441F",
"l  c #4B4629",
"z  c #4B403A",
"x  c #4D443D",
"c  c #5F4937",
"v  c #5B493E",
"b  c #4E5033",
"n  c #764F2A",
"m  c #7B5625",
"M  c #78552F",
"N  c #6E5136",
"B  c #605038",
"V  c #615839",
"C  c #5E4340",
"Z  c #534B49",
"A  c #5A5C4C",
"S  c #565656",
"D  c #6F5A40",
"F  c #65514E",
"G  c #725355",
"H  c #7C5553",
"J  c #5E6055",
"K  c #676145",
"L  c #726043",
"P  c #786546",
"I  c #7A7251",
"U  c DimGray",
"Y  c #7E7F60",
"T  c gray45",
"R  c #777575",
"E  c #933E2E",
"W  c #AF3A2D",
"Q  c #974225",
"!  c #945D2D",
"~  c #8D5730",
"^  c #835830",
"/  c #875A31",
"(  c #865D34",
")  c #8D5C30",
"_  c #9C5C30",
"`  c #A8453B",
"'  c #B0463C",
"]  c #B7473C",
"[  c #946825",
"{  c #9A6B2F",
"}  c #816435",
"|  c #8F6534",
" . c #83643A",
".. c #916131",
"X. c #926230",
"o. c #916930",
"O. c #976E37",
"+. c #916E3E",
"@. c #987337",
"#. c #A16F2F",
"$. c #A77524",
"%. c #A57527",
"&. c #A7702C",
"*. c #B4772E",
"=. c #A26831",
"-. c #A06E30",
";. c #A46C30",
":. c #A16B35",
">. c #A57130",
",. c #A77432",
"<. c #AA7031",
"1. c #AB7230",
"2. c #A97430",
"3. c #AB7632",
"4. c #BB7D30",
"5. c #BA7E30",
"6. c #894541",
"7. c #855040",
"8. c #9F6347",
"9. c #897F53",
"0. c #8D6866",
"q. c #866971",
"w. c #A17772",
"e. c #A97A74",
"r. c #B47D7C",
"t. c #C25242",
"y. c #D75842",
"u. c #B78126",
"i. c #B7802F",
"p. c #B9822E",
"a. c #B78030",
"s. c #B58233",
"d. c #BF8C3C",
"f. c #C18129",
"g. c #C38A32",
"h. c #C68B30",
"j. c #CC9030",
"k. c #D29630",
"l. c #D09433",
"z. c #938555",
"x. c #A4894B",
"c. c #AE8A4B",
"v. c #B18943",
"b. c #AD8F54",
"n. c #A59653",
"m. c #AA975B",
"M. c #AC9D58",
"N. c #A08F65",
"B. c #A59A61",
"V. c #A39F77",
"C. c #B8AB79",
"Z. c #B9AE79",
"A. c #D6AF52",
"S. c #D5A859",
"D. c #C0B166",
"F. c #C3B369",
"G. c #C7B76B",
"H. c #909090",
"J. c gray59",
"K. c #979797",
"L. c #9D9D9D",
"P. c #A69591",
"I. c #A7A7A7",
"U. c #AAAAAA",
"Y. c gray68",
"T. c #B4B4B4",
"R. c gray73",
"E. c #DEA59D",
"W. c #C7B9A3",
"Q. c #F2AEA7",
"!. c #D7CE8E",
"~. c #E3D187",
"^. c #E0D997",
"/. c #F3E38E",
"(. c #EFE194",
"). c #FCED9A",
"_. c #FFFAA4",
"`. c #FFFFA8",
"'. c #C5C5C5",
"]. c #C8C8C8",
"[. c gray79",
"{. c #CACACA",
"}. c #CBCBCB",
"|. c gray80",
" X c #CDCDCD",
".X c #CFCECE",
"XX c gray82",
"oX c #D2D2D2",
"OX c gray83",
"+X c gray84",
"@X c #D7D7D7",
"#X c gainsboro",
"$X c #E1E1E1",
"%X c #E2E2E2",
"&X c gray89",
"*X c #E4E4E4",
"=X c gray90",
"-X c #E6E5E5",
";X c #E7E7E7",
":X c gray91",
">X c #E9E9E9",
",X c gray92",
"<X c gray93",
"1X c #EFEFEF",
"2X c #F1F1F1",
"3X c #F4F4F4",
"4X c gray96",
"5X c #F6F6F6",
"6X c gray97",
"7X c #F8F8F8",
"8X c #F9F9F9",
"9X c gray98",
"0X c #FBFBFB",
/* pixels */
"                                                            ",
"                                                            ",
"                                                            ",
"              3 %                       #X@X@X@XXXXXXX|. X X",
"          o o l.m 4                 :X:X:X:X$X$X:X:X:X:X:X:X",
"          3 g.{ ,.[     o >       T.1X:X1X2X;X:X:X:X1X:X:X4X",
"          = %.<.X.<.:   > 9.p o l 8 6XS |.6X6X6X0X6X6X4X0X4X",
"            4 ;.) / L 7 Z.M.F.n.m.J #Xr 0 Z 8X8X0X0X0X0X0X0X",
"              h ) a A /._.G.F.x.[ O.< t.E E Y.8X4X0X4X4X0X0X",
"                y | b.).`.(.~.D ) V ^ ' ] f H.0X0X0X0X0X0X0X",
"              j 5.f.S.^.N.+.u.s.P k.O.6.` y.q 6X0X0X0X0X0X7X",
"            @ <.{ a.v.P %.i.j.M y u g.P.W g P.0X0X0X0X0X0X0X",
"            h ;.o.g.N X.&.5.i.u 4XR.j W.G H T 0X4X0X0X4X4X4X",
"            e { *.&.<.v / ,.n * I.:Xx 8.q.Q.C *X:X:X:X:X:X:X",
"            O z.c. .S.v _ C $     *X*XU d 0.E.F XX*X*X*X*X*X",
"              b Y V.!.C.; s N.o     {.{.U.% w.e.T '.'. X XXX",
"                o K I B.    s               9 a 5 K.K.K.K.K.",
"                    # ,                                     ",
"                                                            ",
"                                                            "
};
