/* XPM */
static char *ivysaur[] = {
/* columns rows colors chars-per-pixel */
"30 20 169 2 ",
"   c None",
".  c #000100",
"X  c #040B06",
"o  c #090908",
"O  c #0A130D",
"+  c #051F0D",
"@  c #0C1614",
"#  c #161616",
"$  c #3A181C",
"%  c #072A12",
"&  c #22321D",
"*  c #3D1A20",
"=  c #0E2C25",
"-  c #162A23",
";  c #19372D",
":  c #193C34",
">  c #2A242E",
",  c #253333",
"<  c #2B372B",
"1  c #42171C",
"2  c #502226",
"3  c #402A30",
"4  c #6B2B32",
"5  c #0F5925",
"6  c #105E27",
"7  c #324F2C",
"8  c #325127",
"9  c #12642A",
"0  c #126C2D",
"q  c #176F32",
"w  c #147531",
"e  c #157B33",
"r  c #376539",
"t  c #39793E",
"y  c #444835",
"u  c #465335",
"i  c #4A6338",
"p  c #633D48",
"a  c #723640",
"s  c #354A4A",
"d  c #255A49",
"f  c #3B5B45",
"g  c #355547",
"h  c #3A5E54",
"j  c #0C6552",
"k  c #136654",
"l  c #376B4D",
"z  c #3E7342",
"x  c #177A65",
"c  c #297D6B",
"v  c #3A7C6E",
"b  c #3C7667",
"n  c #464945",
"m  c #5E4B45",
"M  c #4B5447",
"N  c #575948",
"B  c #435A5A",
"V  c #6D4548",
"C  c #60584E",
"Z  c #467547",
"A  c #56734E",
"S  c #486A57",
"D  c #4F705B",
"F  c #507A51",
"G  c #48634A",
"H  c #65614D",
"J  c #416A64",
"K  c #546664",
"L  c #42746A",
"P  c #427463",
"I  c #427D74",
"U  c #577F72",
"Y  c #A03D46",
"T  c #DB3143",
"R  c #8F4850",
"E  c #984453",
"W  c #AD4651",
"Q  c #A44A54",
"!  c #BC4C57",
"~  c #BF4F5A",
"^  c #BD545C",
"/  c #857C7E",
"(  c #C44D59",
")  c #C8525D",
"_  c #E1575F",
"`  c #CC5662",
"'  c #C7586C",
"]  c #E05A67",
"[  c #EE6774",
"{  c #FD6D7B",
"}  c #F66877",
"|  c #1A983F",
" . c #1B9C41",
".. c #229942",
"X. c #1CA344",
"o. c #1DAA47",
"O. c #1EAE48",
"+. c #1EB34A",
"@. c #20BC4E",
"#. c #2E816E",
"$. c #298977",
"%. c #348A78",
"&. c #319072",
"*. c #4F8844",
"=. c #528C46",
"-. c #52844F",
";. c #4A9149",
":. c #579E49",
">. c #599946",
",. c #569552",
"<. c #689B58",
"1. c #65A953",
"2. c #69B153",
"3. c #448172",
"4. c #4B937F",
"5. c #41927D",
"6. c #568475",
"7. c #21C351",
"8. c #25D659",
"9. c #25D95A",
"0. c #28DA5D",
"q. c #2CD35E",
"w. c #2EDB62",
"e. c #FF7886",
"r. c #3D9A81",
"t. c #3B9781",
"y. c #3DA18A",
"u. c #4C8C82",
"i. c #598F83",
"p. c #429382",
"a. c #449E85",
"s. c #479E88",
"d. c #589F8C",
"f. c #758482",
"g. c #689B8C",
"h. c #46A586",
"j. c #52A58D",
"k. c #5CA28B",
"l. c #42A892",
"z. c #5DAF97",
"x. c #52A893",
"c. c #5BB49B",
"v. c #72A69C",
"b. c #63B59C",
"n. c #65B79B",
"m. c #58B6A1",
"M. c #6EBDA5",
"N. c #6CC0A5",
"B. c #6EC9AC",
"V. c #74CAAD",
"C. c #71C4A8",
"Z. c #69CEB1",
"A. c #60CDB0",
"S. c #7AD9BB",
"D. c #75D4B3",
"F. c #7EE7C8",
"G. c #85918F",
"H. c #809993",
"J. c #80A99F",
"K. c #8CAAA2",
"L. c #99BAA8",
"P. c #FE9DA8",
"I. c #80DDBD",
"U. c #86C6B4",
"Y. c #B0C7CB",
"T. c #AEE6D9",
"R. c #AFF0E7",
"E. c #C2D3CF",
"W. c #D8FFFC",
/* pixels */
"                                                            ",
"                          . .                               ",
"                        2 e.] 1                             ",
"                      $ e.) ! { *       e e e e w 0 0 0 9 9 ",
"                O X # R { ` Y } a   X.o.+.o.|  .X.X.o.+.o.+.",
"              X ,.-.V ' ` [ ! ( [ * . 9 7.X.o.+.@.@.+.@.7.7.",
"                . Z N ^ ) ) Q W ( m Z < ..- e 8.8.8.8.8.9.9.",
"              & 7 <.g M E Q ( W N l Z A G S.X q.w.w.w.w.w.w.",
"            . 2.>.r =.z d H Q p f S S K N.S.. q.0.0.0.0.0.0.",
"            8 r *.*.1.2.A i > s h s b 5.b.V.l q w.w.w.w.w.w.",
"          . 1.;.:.:.t :.D 6.6.d.h.x j c N.V.Z.. w.w.w.w.w.w.",
"          . ;.1.g u y y n k.A.Z.b.j.s.C.%.N.$.4 9 w.w.w.w.w.",
"          . N n n P L I B 3 L b.D.I.z.M.x.n.h._ . q.9.8.8.8.",
"          . u.b d %.p.J a.b 4.U.g ; n.s.b.N.Z.L.. @.@.O.O.o.",
"            = h.$.%.B v c #.s.v.Y., . 5.C.M.D.; w  . . .X.X.",
"            . Y.K.K.# l.k c s.%.W.P.T $ c.F.z.. 5 6 9 6 0 0 ",
"              # o #   : y.a.S J m.k.g.I x.- . +   % % % % % ",
"                      # v.i.y., . G.f.@ .                   ",
"                        K R.T./   o .                       ",
"                          . .                               "
};
