/* XPM */
static char *kakuna[] = {
/* columns rows colors chars-per-pixel */
"30 20 148 2 ",
"   c None",
".  c black",
"X  c #193F12",
"o  c #194012",
"O  c #1A4112",
"+  c #1A4212",
"@  c #1A4213",
"#  c #604B30",
"$  c #614C30",
"%  c #624D30",
"&  c #634E30",
"*  c #6B5530",
"=  c #6D5830",
"-  c #785F30",
";  c #796230",
":  c #7F6930",
">  c #0B1747",
",  c #111D40",
"<  c #111E40",
"1  c #121F40",
"2  c #131F48",
"3  c #111D4A",
"4  c #1F2840",
"5  c #232B57",
"6  c #887037",
"7  c #927830",
"8  c #94793B",
"9  c #977B3C",
"0  c #338124",
"q  c #338325",
"w  c #358826",
"e  c #388E28",
"r  c #3A9329",
"t  c #3A952A",
"y  c #3B962A",
"u  c #3C982B",
"i  c #3D9C2C",
"p  c #3E9D2C",
"a  c #3FA22E",
"s  c #40A32E",
"d  c #42A82F",
"f  c #45B132",
"g  c #48B734",
"h  c #49BB35",
"j  c #6BD058",
"k  c #6BD059",
"l  c #6CD059",
"z  c #6CD05A",
"x  c #6DD15B",
"c  c #70D25E",
"v  c #70D25F",
"b  c #74D362",
"n  c #78D468",
"m  c #7AD569",
"M  c #7AD56A",
"N  c #7ED66E",
"B  c #B8981D",
"V  c #9E823A",
"C  c #9F833C",
"Z  c #AB8B30",
"A  c #AD8C30",
"S  c #B89130",
"D  c #B89830",
"F  c #C39838",
"G  c #C5A030",
"H  c #C6A230",
"J  c #C9A630",
"K  c #CBA630",
"L  c #CCA730",
"P  c #CEA730",
"I  c #CAA637",
"U  c #CDA930",
"Y  c #CFA930",
"T  c #CEA638",
"R  c #D1AA30",
"E  c #D1AC30",
"W  c #D4AD30",
"Q  c #D4AD3C",
"!  c #DCB430",
"~  c #DDB53D",
"^  c #DEB63D",
"/  c #E1B830",
"(  c #E5BB30",
")  c #E3BC3C",
"_  c #E6BD3C",
"`  c #F0D028",
"'  c #FCDA28",
"]  c #FCDB28",
"[  c #FDDD28",
"{  c #ECC139",
"}  c #EAC13C",
"|  c #ECC33C",
" . c #EFC63D",
".. c #FFE428",
"X. c #FFE528",
"o. c #FFE828",
"O. c #FFE928",
"+. c #FFEA28",
"@. c #FFEB28",
"#. c #FFEF28",
"$. c #FFF028",
"%. c #FFF128",
"&. c #FFF628",
"*. c #FFF728",
"=. c #FFFB28",
"-. c #FFFC28",
";. c #FFFD28",
":. c #FFFF30",
">. c #FFFF31",
",. c #FFFF32",
"<. c #FFFF33",
"1. c #82D773",
"2. c #84D875",
"3. c #85D876",
"4. c #88D979",
"5. c #89DA7A",
"6. c #89DA7B",
"7. c #8ADA7C",
"8. c #8CDA7D",
"9. c #8DDB7F",
"0. c #93DD86",
"q. c #95DD88",
"w. c #99DF8C",
"e. c #9ADF8D",
"r. c #9BDF8E",
"t. c #9BDF8F",
"y. c #9CDF8F",
"u. c #9DE091",
"i. c #A2E196",
"p. c #A9E49E",
"a. c #B8E9B0",
"s. c #BBE9B3",
"d. c #BCEAB4",
"f. c #BDEAB5",
"g. c #BFEBB7",
"h. c #C0EBB8",
"j. c #C1EBB9",
"k. c #C3ECBB",
"l. c #C4ECBD",
"z. c #C8EDC1",
"x. c #C8EEC1",
"c. c #C9EEC2",
"v. c #CAEEC3",
"b. c #CEEFC8",
"n. c #CFF0C9",
"m. c #D0F0CA",
"M. c #D1F0CB",
"N. c white",
/* pixels */
"                                                            ",
"                            . . . .                         ",
"                        . . ,.$.$.,.. .                     ",
"                      . ,.@.` ` ` ` @.,.. h h h f d s i i y ",
"                    . ,.' @...` ` ` ` @.. 5.x x n n 3.3.5.5.",
"                  . ~ @.,.. 5 =.' ` ` ` ,.. 2.5.q.u.r.u.i.p.",
"                  . ) I . . . . T ' ` ` ,.. f.f.h.f.l.f.l.l.",
"                    . } C . . N.. $.' ,.. b.n.b.m.b.b.b.b.b.",
"                      . ( / E B I G W . v.v.v.v.v.v.v.v.v.v.",
"                    . } 2 1 W I E 1 2 ,.. M.m.m.b.M.M.m.M.M.",
"                  . ,.S G W 1 4 > Y ! . M.m.n.m.M.b.m.m.b.m.",
"                  . ,.o.Z D W - =.$.% ,.. m.m.m.M.M.m.m.m.m.",
"                    . Q o.%.# %.# # $.,.. a.k.k.l.l.h.h.f.f.",
"                      . 6 & =.A ..@.D . 5.5.w.u.t.q.5.5.5.3.",
"                      . } =.* = @.@.^ . m m m c l l b b n n ",
"                        . 8 J J ; V . a a a @ w w e t t i s ",
"                          . C 6 7 .               + + + + + ",
"                            . } } .                         ",
"                              . .                           ",
"                                                            "
};
