/* XPM */
static char *metapod[] = {
/* columns rows colors chars-per-pixel */
"30 20 140 2 ",
"   c None",
".  c black",
"X  c #193F12",
"o  c #194012",
"O  c #1A4112",
"+  c #1A4212",
"@  c #1A4213",
"#  c #2F1F49",
"$  c #338124",
"%  c #338325",
"&  c #358826",
"*  c #388E28",
"=  c #3A9329",
"-  c #3A952A",
";  c #3B962A",
":  c #3C982B",
">  c #3D9C2C",
",  c #3E9D2C",
"<  c #3FA22E",
"1  c #709B38",
"2  c #7A9B3B",
"3  c #7B9C3B",
"4  c #40A32E",
"5  c #42A82F",
"6  c #45B132",
"7  c #48B734",
"8  c #49BB35",
"9  c #75A13B",
"0  c #6C854B",
"q  c #6E884B",
"w  c #6E894B",
"e  c #6F8A4B",
"r  c #708C4B",
"t  c #728E4B",
"y  c #7B934B",
"u  c #7B944B",
"i  c #7BA141",
"p  c #79A14C",
"a  c #6BD058",
"s  c #6BD059",
"d  c #6CD059",
"f  c #6CD05A",
"g  c #6DD15B",
"h  c #70D25E",
"j  c #70D25F",
"k  c #74D362",
"l  c #78D468",
"z  c #7AD569",
"x  c #7AD56A",
"c  c #7ED66E",
"v  c #8BCE28",
"b  c #8EC734",
"n  c #8FCE35",
"m  c #A7E83F",
"M  c #83A743",
"N  c #83A455",
"B  c #86A856",
"V  c #88AB56",
"C  c #89AC56",
"Z  c #8CB257",
"A  c #8DB357",
"S  c #8FB657",
"D  c #90B55C",
"F  c #92B75D",
"G  c #94BB5D",
"H  c #97BF5D",
"J  c #9CCE4C",
"K  c #9CD44C",
"L  c #9CD74C",
"P  c #98C15D",
"I  c #9CC65F",
"U  c #A3D74C",
"Y  c #A3D84C",
"T  c #A3D94C",
"R  c #A4D94C",
"E  c #A4DA4C",
"W  c #A5DB4C",
"Q  c #A8E04C",
"!  c #AAE34C",
"~  c #AAE44C",
"^  c #ABE44C",
"/  c #B1ED4C",
"(  c #ADE355",
")  c #B1EA56",
"_  c #B1E55C",
"`  c #B5F156",
"'  c #B6F555",
"]  c #B8F557",
"[  c #B9F656",
"{  c #BBF957",
"}  c #B8F358",
"|  c #B9F558",
" . c #B8F05C",
".. c #BEFB5D",
"X. c #82D773",
"o. c #84D875",
"O. c #85D876",
"+. c #88D979",
"@. c #89DA7A",
"#. c #89DA7B",
"$. c #8ADA7C",
"%. c #8CDA7D",
"&. c #8DDB7F",
"*. c #C1FF5D",
"=. c #C2FF5E",
"-. c #C7FF5E",
";. c #C0FA62",
":. c #C6FF60",
">. c #C5FF66",
",. c #CAFF68",
"<. c #D4FF67",
"1. c #D7FF69",
"2. c #93DD86",
"3. c #95DD88",
"4. c #99DF8C",
"5. c #9ADF8D",
"6. c #9BDF8E",
"7. c #9BDF8F",
"8. c #9CDF8F",
"9. c #9DE091",
"0. c #A2E196",
"q. c #A9E49E",
"w. c #B8E9B0",
"e. c #BBE9B3",
"r. c #BCEAB4",
"t. c #BDEAB5",
"y. c #BFEBB7",
"u. c #C0EBB8",
"i. c #C1EBB9",
"p. c #C3ECBB",
"a. c #C4ECBD",
"s. c #C8EDC1",
"d. c #C8EEC1",
"f. c #C9EEC2",
"g. c #CAEEC3",
"h. c #CEEFC8",
"j. c #CFF0C9",
"k. c #D0F0CA",
"l. c #D1F0CB",
"z. c white",
/* pixels */
"                                                            ",
"                      . . .                                 ",
"                      . 1.:.. .                             ",
"                        . } ) =..       8 8 8 8 6 5 4 > = > ",
"                        . B E K ... #.#.#.#.a k l l O.O.#.#.",
"                        . C w E E ... 9.0.q.O.#.3.9.8.9.0.q.",
"                        . } / 9 u ;.. a.y.a.w.t.u.t.u.t.u.u.",
"                      . A m . z.1 ] M . j.g.j.j.l.h.h.l.l.h.",
"                      . ] z.z.v K r C . g.g.g.d.g.g.g.g.g.g.",
"                    . 2 ( b n J E r ~ F . l.j.l.h.k.k.k.k.k.",
"                  . <.:._ J J K 0 E J ,.. l.j.j.k.k.k.k.k.k.",
"                    . . 2 E J K w E E i . l.l.l.k.k.k.k.k.k.",
"                        . { J J E 0 } . y.w.p.p.a.a.a.t.t.t.",
"                        . # ~ J K ~ H . @.@.4.9.8.3.#.#.#.O.",
"                        . A r E Q p . g z z z h f f k k l l ",
"                        . [ E w u I . < < < @ & & * = = > 4 ",
"                      . P u ~ ) -..               + + + X + ",
"                      . I A H . .                           ",
"                        . . .                               ",
"                                                            "
};
