/* XPM */
static char *pidgeot[] = {
/* columns rows colors chars-per-pixel */
"30 20 174 2 ",
"   c None",
".  c #000100",
"X  c #151009",
"o  c #170905",
"O  c #3C0D0A",
"+  c #3B160C",
"@  c #361113",
"#  c #3D1B12",
"$  c #251918",
"%  c #342C1B",
"&  c #3E2416",
"*  c #252819",
"=  c #181D20",
"-  c #3C1724",
";  c #262726",
":  c #392624",
">  c #393728",
",  c #292C33",
"<  c #352A31",
"1  c #2E3231",
"2  c #323939",
"3  c #4A1B10",
"4  c #54221A",
"5  c #42391F",
"6  c #612B1C",
"7  c #7D2D1D",
"8  c #5E3128",
"9  c #622C21",
"0  c #5B422E",
"q  c #52452E",
"w  c #454538",
"e  c #4C573F",
"r  c #644C2E",
"t  c #72472C",
"y  c #614E3F",
"u  c #7F593E",
"i  c #363C45",
"p  c #513D47",
"a  c #554246",
"s  c #565551",
"d  c #61454B",
"f  c #645649",
"g  c #735A4A",
"h  c #785754",
"j  c #7F654A",
"k  c #797247",
"l  c #646551",
"z  c #7B696F",
"x  c #7F766D",
"c  c #7E7E7E",
"v  c #873328",
"b  c #97342D",
"n  c #A23A2A",
"m  c #94572E",
"M  c #8B403D",
"N  c #91493F",
"B  c #84533A",
"V  c #955F3D",
"C  c #B5462F",
"Z  c #A15F2F",
"A  c #B8473B",
"S  c #8E683D",
"D  c #9C6A3B",
"F  c #A0693B",
"G  c #CB4C35",
"H  c #D74D37",
"J  c #CD553E",
"K  c #E74437",
"L  c #FA4E36",
"P  c #E75037",
"I  c #FE583E",
"U  c #894644",
"Y  c #865C51",
"T  c #836B47",
"R  c #976144",
"E  c #97685A",
"W  c #B67C44",
"Q  c #956D68",
"!  c #847260",
"~  c #9D7065",
"^  c #8D6E7D",
"/  c #CA5843",
"(  c #D45241",
")  c #DB5640",
"_  c #E74F42",
"`  c #E25640",
"'  c #F45D43",
"]  c #C4684F",
"[  c #D8694D",
"{  c #FC6441",
"}  c #FF6D49",
"|  c #7F817E",
" . c #85874F",
".. c #9A8451",
"X. c #96905C",
"o. c #9A945D",
"O. c #BA8B4D",
"+. c #B68546",
"@. c #AA9C50",
"#. c #ACAC55",
"$. c #B3A954",
"%. c #838363",
"&. c #958C6C",
"*. c #949067",
"=. c #8B8970",
"-. c #A6A06B",
";. c #B6A265",
":. c #AFA872",
">. c #BDA570",
",. c #B6B670",
"<. c #C5934E",
"1. c #CA984E",
"2. c #C18650",
"3. c #D18654",
"4. c #C6965B",
"5. c #D99A5B",
"6. c #C1836D",
"7. c #DDAC65",
"8. c #D8B863",
"9. c #C3AC7A",
"0. c #C0BD73",
"q. c #D9B878",
"w. c #E3AE68",
"e. c #DAC866",
"r. c #CDC77B",
"t. c #C7C37D",
"y. c #D0C97D",
"u. c #E6DD6E",
"i. c #E6D96D",
"p. c #ECDD70",
"a. c #E1D973",
"s. c #ECE46D",
"d. c #E5E66E",
"f. c #F3E66E",
"g. c #EAEB74",
"h. c #F4E375",
"j. c #F1EE79",
"k. c #A57A84",
"l. c #B27E86",
"z. c #8A8587",
"x. c #969696",
"c. c #9D9A9B",
"v. c #A6A182",
"b. c #B1AB84",
"n. c #B3B98E",
"m. c #BFBFBF",
"M. c gray70",
"N. c #A9A9A9",
"B. c #E19490",
"V. c #C3BF8B",
"C. c #EFA29B",
"Z. c #E69CA1",
"A. c #F5AAB8",
"S. c #D2D281",
"D. c #C5C898",
"F. c #E0CE8E",
"G. c #E5DF96",
"H. c #FFFF81",
"J. c #ECE49C",
"K. c #C7C4A4",
"L. c #E5DEA0",
"P. c #FFFDB4",
"I. c #FFFFBC",
"U. c #F8AFC6",
"Y. c #C4C4C4",
"T. c #CBCBCB",
"R. c #C2D1DD",
"E. c #D2D2D2",
"W. c #FFC6D8",
"Q. c #FFFFC2",
"!. c #E4E4E4",
"~. c gray92",
"^. c #F5F5F5",
"/. c #FAFAFA",
/* pixels */
"                                                            ",
"                              . @                           ",
"                      @ v #.#.k O.%                         ",
"                        b w.g.f.s.h.@.5 > s T.E.E.E.E.T.T.T.",
"              + v 6     O / a.g.d.e.p.p.p.$.8 M.~.!.~.~.~.!.",
"            3 G { J C     n _ 3.4.8.g.i.u.f.w.- ~.~.~.~.~.^.",
"          6 } / ' ( G o     7 H I _ ] j.d.p.h.M c.^.^.^.^./.",
"            C { ) _ ' 3       z.N J L [ e.d.H.R z./././././.",
"              v A A A &     ^.| 0 w E P K 5.j.q ~./././././.",
"              e n.&.a t & X r +.u , R.i U H g c /./././././.",
"              ; *.D.Q.b.T D 1.O.i =.K.k %.z U.k.E./././././.",
"                X.L.Q.q.<.+.O.W j v.I.P.&.l.A.W.a /././././.",
"                % -.J.F.W 1.<.D Z 9.P.I.b.Q Y a c.^.^.^.^.^.",
"                > X.r.y.D D m a ;.J.P.I.D.< x.^.^.~.~.~.!.~.",
"                    > o.S B g t.r.,.:.l N.!.!.E.!.!.!.!.!.!.",
"                        .  .S.0.* w ..q ^ T.m.m.m.Y.T.Y.E.E.",
"                          $ 9.! % h E 6.! ,       c.x.x.x.x.",
"                          h Z.B.C.p   < =                   ",
"                          . ^ ~ z.;                         ",
"                            2 1                             "
};
