/* XPM */
static char *pidgey[] = {
/* columns rows colors chars-per-pixel */
"30 20 175 2 ",
"   c None",
".  c black",
"X  c #040E2E",
"o  c #0B1B26",
"O  c #171822",
"+  c #161824",
"@  c #091B33",
"#  c #151931",
"$  c #111D32",
"%  c #191E36",
"&  c #101D39",
"*  c #151F38",
"=  c #0B2726",
"-  c #18232C",
";  c #1B2D2C",
":  c #21222E",
">  c #282828",
",  c #232832",
"<  c #262935",
"1  c #232C39",
"2  c #232E38",
"3  c #2D3436",
"4  c #7E352F",
"5  c #081B40",
"6  c #122540",
"7  c #192B40",
"8  c #1C2C40",
"9  c #183640",
"0  c #262B40",
"q  c #233240",
"w  c #243040",
"e  c #2D3740",
"r  c #2E3840",
"t  c #24374F",
"y  c #303940",
"u  c #363940",
"i  c #2B4040",
"p  c #324040",
"a  c #32404A",
"s  c #40404D",
"d  c #834438",
"f  c #A34A31",
"g  c #A44B32",
"h  c #A84D32",
"j  c #AC5231",
"k  c #AC5536",
"l  c #B85630",
"z  c #B16038",
"x  c #BA6238",
"c  c #BE6338",
"v  c #AD5B40",
"b  c #B85B40",
"n  c #B16740",
"m  c #BF6E45",
"M  c #B87040",
"N  c #C36B41",
"B  c #C16F45",
"V  c #C07040",
"C  c #CB7144",
"Z  c #C97146",
"A  c #C97246",
"S  c #D17040",
"D  c #D57940",
"F  c #D87D40",
"G  c #DA7E40",
"H  c #D27F49",
"J  c #D89817",
"K  c #DF9F1F",
"L  c #E0A11F",
"P  c #E2A41D",
"I  c #F6A717",
"U  c #FCB31F",
"Y  c #FFB51D",
"T  c #D89828",
"R  c #E09F28",
"E  c #DFA020",
"W  c #E2A120",
"Q  c #E3A428",
"!  c #EEA628",
"~  c #E8A828",
"^  c #F3AB28",
"/  c #FFB021",
"(  c #FDB228",
")  c #FFBB30",
"_  c #FFCF36",
"`  c #A08852",
"'  c #BDAB44",
"]  c #A89060",
"[  c #E3834C",
"{  c #E48B4F",
"}  c #D2B84C",
"|  c #C8B856",
" . c #D0B857",
".. c #D5C158",
"X. c #D3C260",
"o. c #E2CD60",
"O. c #E8D567",
"+. c #E4D96E",
"@. c #F3DE70",
"#. c #FDE96B",
"$. c #E5E073",
"%. c #F8E376",
"&. c #FFEB73",
"*. c #FAED7F",
"=. c #FFF37B",
"-. c #FFF87B",
";. c #DE7783",
":. c gray59",
">. c #979797",
",. c gray",
"<. c gray75",
"1. c #FA8997",
"2. c #FF919C",
"3. c #FF919F",
"4. c #EDACAB",
"5. c #FAB0B0",
"6. c #FFB7B9",
"7. c #FDF7A7",
"8. c #FFFFA7",
"9. c #FBF7A8",
"0. c #FFFAAA",
"q. c #FFFDAB",
"w. c #FFFFAD",
"e. c #FEFFAF",
"r. c #FFFFB1",
"t. c #FFFFB2",
"y. c #FFFFB5",
"u. c #FFFFB7",
"i. c #FFFFBA",
"p. c #FFFFBF",
"a. c gray76",
"s. c #C5C5C5",
"d. c #C8C8C8",
"f. c gray79",
"g. c #CACACA",
"h. c #CBCBCB",
"j. c #CDCDCD",
"k. c #CFCECE",
"l. c gray82",
"z. c #D2D2D2",
"x. c gray83",
"c. c gray84",
"v. c #D7D7D7",
"b. c #FFC5C5",
"n. c #FFC7C7",
"m. c #FFC8C8",
"M. c #FFD0CF",
"N. c #FFFFC0",
"B. c #FFFFC1",
"V. c #FFFFC3",
"C. c #FFFFCF",
"Z. c #FFFFD1",
"A. c #FFFFD3",
"S. c #E1E1E1",
"D. c #E2E2E2",
"F. c gray89",
"G. c #E4E4E4",
"H. c gray90",
"J. c #E6E5E5",
"K. c #E7E7E7",
"L. c gray91",
"P. c #E9E9E9",
"I. c gray92",
"U. c gray93",
"Y. c #EFEFEF",
"T. c #F1F1F1",
"R. c #F4F4F4",
"E. c gray96",
"W. c #F6F6F6",
"Q. c gray97",
"!. c #F8F8F8",
"~. c #F9F9F9",
"^. c gray98",
"/. c #FBFBFB",
"(. c white",
/* pixels */
"                                                            ",
"                                                            ",
"                                  .                         ",
"                                . _ .   . . l.v.l.l.l.l.j.j.",
"              . . .       . .   . ( ) . Z.. G.G.L.K.L.L.L.L.",
"            . . A B . .   . Z.. t ! ! 5 N.. G.G.L.L.Y.L.L.E.",
"            . A 9 c a A . . u.u.l P Q l N.. E.E.(.E.E.E.(.E.",
"            . m z r p c r &.| 9.u.f T K k Z.. (.(.Q.(.Q.(.E.",
"              . B 2 3 q w & O. .q.u.f P k $.. Q.(.E.E.E.(.E.",
"                . p.X Y / S 6 % o.' u.h I 7.. (.(.E.(.(.(.(.",
"              . @.q.u.4 d x [ 3 O (.} p.o . !.!.E.E.E.(.E.E.",
"              . %.| u.J ~ d [ r > (.. o 5.b.. (.(.(.(.E.(.(.",
"                . $.k E E ^ 7 2 : O 3 b.5.4.n.. E.(.E.E.E.E.",
"                . [ M n E ( & u.9.u.2 ; = ;.M.. L.L.L.G.L.L.",
"                  . { [ D 8 # q.9...# 1.3.. . G.v.G.G.G.G.G.",
"                    . . a 2 #.` X.] -.. . l.,.s.s.s.s.j.j.l.",
"                        . 3.- 0 =.. .             >.>.>.>.>.",
"                          . (.. .                           ",
"                            . .                             ",
"                                                            "
};
