/* XPM */
static char *pidgeotto[] = {
/* columns rows colors chars-per-pixel */
"30 20 243 2 ",
"   c None",
".  c black",
"X  c #000100",
"o  c #000101",
"O  c #020000",
"+  c #030000",
"@  c #060000",
"#  c #000004",
"$  c #020607",
"%  c #050704",
"&  c #090000",
"*  c #0A0302",
"=  c #000806",
"-  c #0D0C06",
";  c #050C0B",
":  c #110603",
">  c #110505",
",  c #100705",
"<  c #1C0300",
"1  c #160805",
"2  c #100E05",
"3  c #11070A",
"4  c #1E1213",
"5  c #241B00",
"6  c #27180D",
"7  c #3E1209",
"8  c #1F2117",
"9  c #2C2219",
"0  c #251522",
"q  c #3B1F29",
"w  c #0B212D",
"e  c #1B2D3F",
"r  c #27272B",
"t  c #282F2E",
"y  c #3D2C2E",
"u  c #20273E",
"i  c #233235",
"p  c #2A3037",
"a  c #2B3336",
"s  c #2C3136",
"d  c #3E3C37",
"f  c #3B363F",
"g  c #4D1003",
"h  c #5E180A",
"j  c #451C13",
"k  c #6E1D19",
"l  c #4F2319",
"z  c #63261E",
"x  c #6E2A1C",
"c  c #402125",
"v  c #4E2C2F",
"b  c #533322",
"n  c #53322C",
"m  c #4E2C36",
"M  c #4E2D38",
"N  c #473333",
"B  c #7B382B",
"V  c #3F423B",
"C  c #424234",
"Z  c #4D413E",
"A  c #575A3C",
"S  c #655129",
"D  c #654B3D",
"F  c #7D4535",
"G  c #744438",
"H  c #7A5539",
"J  c #70583A",
"K  c #6B6234",
"L  c #6A653F",
"P  c #6C653C",
"I  c #424841",
"U  c #514745",
"Y  c #5A4C41",
"T  c #544B4C",
"R  c #4E5C49",
"E  c #5D5442",
"W  c #4B5754",
"Q  c #585653",
"!  c #644343",
"~  c #684C4B",
"^  c #6F4D49",
"/  c #6D4F4E",
"(  c #6C5640",
")  c #765640",
"_  c #665A55",
"`  c #78545A",
"'  c #745D5E",
"]  c #646363",
"[  c #776162",
"{  c #766B6B",
"}  c #646F70",
"|  c #697271",
" . c #727272",
".. c gray49",
"X. c #8A2718",
"o. c #862C1E",
"O. c #962414",
"+. c #922917",
"@. c #B43214",
"#. c #863A2C",
"$. c #8A392B",
"%. c #993420",
"&. c #913B2F",
"*. c #A83B2D",
"=. c #C0321C",
"-. c #C63824",
";. c #994E3D",
":. c #8E573F",
">. c #945D3F",
",. c #B3432E",
"<. c #B84730",
"1. c #BA5F31",
"2. c #94673C",
"3. c #BC7F22",
"4. c #B06D35",
"5. c #BB663B",
"6. c #BD6A3F",
"7. c #AC7B32",
"8. c #B57437",
"9. c #BB743D",
"0. c #BC753D",
"q. c #CA4E2C",
"w. c #C44E32",
"e. c #E74522",
"r. c #FF5B34",
"t. c #CF7F37",
"y. c #8F4F47",
"u. c #885241",
"i. c #8D5341",
"p. c #845C41",
"a. c #945341",
"s. c #8B515C",
"d. c #BF5F48",
"f. c #916041",
"g. c #9E6440",
"h. c #B46640",
"j. c #B76F41",
"k. c #A87947",
"l. c #BA7D45",
"z. c #876967",
"x. c #947D61",
"c. c #A3696F",
"v. c #A26D72",
"b. c #BA6879",
"n. c #C45B4B",
"m. c #C07040",
"M. c #DA7D40",
"N. c #E76042",
"B. c #EC6141",
"V. c #EA6647",
"C. c #FF6840",
"Z. c #FF6B40",
"A. c #FF6F4B",
"S. c #FF7046",
"D. c #FF754F",
"F. c #BD8920",
"G. c #D79A22",
"H. c #D0932F",
"J. c #DA952F",
"K. c #D19F2D",
"L. c #DD9A29",
"P. c #D98A37",
"I. c #E48C39",
"U. c #848556",
"Y. c #93955B",
"T. c #9BA155",
"R. c #A0A056",
"E. c #AEA254",
"W. c #9F926E",
"Q. c #92996B",
"!. c #CA8147",
"~. c #C8874A",
"^. c #DD854B",
"/. c #DF834C",
"(. c #E3A252",
"). c #C9B363",
"_. c #E8CF66",
"`. c #F0DC72",
"'. c #F1E273",
"]. c #C27580",
"[. c #8C8B8D",
"{. c #939393",
"}. c gray59",
"|. c #979797",
" X c gray61",
".X c gray62",
"XX c #A8A69D",
"oX c #A0A0A0",
"OX c #A6A3A3",
"+X c #A5A5A5",
"@X c #A9A9A9",
"#X c #A9A9AA",
"$X c #B7B7B7",
"%X c gray",
"&X c gray75",
"*X c #DC8E93",
"=X c #F7949A",
"-X c #FFB7B8",
";X c #D8CC87",
":X c #D0CE88",
">X c #E9E397",
",X c #F1E391",
"<X c #F0E49B",
"1X c #F5EB9D",
"2X c #FFF79E",
"3X c gray76",
"4X c #C5C5C5",
"5X c #C8C8C8",
"6X c gray79",
"7X c #CACACA",
"8X c #CBCBCB",
"9X c #CDCDCD",
"0X c #CFCECE",
"qX c gray82",
"wX c #D2D2D2",
"eX c gray83",
"rX c gray84",
"tX c #D7D7D7",
"yX c #D8D8D8",
"uX c #FFC1C0",
"iX c #FFCCCC",
"pX c #F7CCD3",
"aX c #CCDEE4",
"sX c #E1E1E1",
"dX c #E2E2E2",
"fX c gray89",
"gX c #E4E4E4",
"hX c gray90",
"jX c #E6E5E5",
"kX c #E7E7E7",
"lX c gray91",
"zX c #E9E9E9",
"xX c gray92",
"cX c gray93",
"vX c #EFEFEF",
"bX c #F1F1F1",
"nX c gray96",
"mX c #F6F6F6",
"MX c gray97",
"NX c #F8F8F8",
"BX c #F9F9F9",
"VX c gray98",
"CX c #FBFBFB",
/* pixels */
"                                                            ",
"                  O O                                       ",
"              O ; ~ q.O                                     ",
"          O 3 Q 1X~ ,.O       3 , &     1 [.qXyXqXqXqXqX9X9X",
"          O A.U >X:Xm O.O     x V.D.z O B.1 tXgXlXgXlXlXlXlX",
"          O w.@.Z Y.) k O     O r ;.A.y.h.j #XzXvXlXlXlXnXnX",
"            O +.-.D Y.t 5 & < %.A.:.y.C.I N.7 #XCXnXnXnXnXnX",
"              O +.&.W J F.l *.$.<.r.B a.G $.e.O CXCXCXCXCXCX",
"                O Q.<X_ 8.K.A E :.X.d.t @.N h ] CXnXCXnXCXCX",
"                - `.,X;XS 7.I.5.Y w aXe g z.T .XCXCXCXCXCXCX",
"                - '.).(.F.J j.( e L XXi ' -XuX/ ..CXCXCXCXnX",
"                % K ~.5.J.L.8.a.f Y.E.V [ { *XiXO CXCXCXCXCX",
"                  O /.j.0.H.G.t.2.k._.R ` c.c N  XCXnXNXnXnX",
"                  O b ^.t.j.P.2.:.5.M.l.v q |. XlXlXlXlXlXlX",
"                      9 p.M.i.e W.2Xx.6 OX$XgXsXyXgXgXgXgXgX",
"                      0 v.C s U.L 8 % s.y 9X&X&X4X4X4X9X9XqX",
"                        M ].b.n     O 4 $  .      |.|.|.|.|.",
"                          ! =XpX}                           ",
"                          | OXO O                           ",
"                          O O                               "
};
