/* XPM */
static char *pikachu[] = {
/* columns rows colors chars-per-pixel */
"30 20 156 2 ",
"   c None",
".  c #000001",
"X  c #080607",
"o  c #0D0B03",
"O  c #0F0D09",
"+  c #050408",
"@  c #130E09",
"#  c #1F190D",
"$  c #1A160B",
"%  c #000114",
"&  c #000018",
"*  c #0B1213",
"=  c #221E03",
"-  c #271D1D",
";  c #282207",
":  c #2A2A04",
">  c #3A300E",
",  c #232019",
"<  c #312B19",
"1  c #3E3412",
"2  c #36301F",
"3  c #3D311C",
"4  c #2B2329",
"5  c #38362C",
"6  c #373739",
"7  c #453916",
"8  c #453428",
"9  c #4A4A07",
"0  c #49461A",
"q  c #594A19",
"w  c #704F1C",
"e  c #605117",
"r  c #6F561F",
"t  c #60541C",
"y  c #745A1A",
"u  c #6D601C",
"i  c #77681C",
"p  c #7D701E",
"a  c #4B492C",
"s  c #5F5F2E",
"d  c #55522D",
"f  c #5F5731",
"g  c #58583F",
"h  c #6C492E",
"j  c #764C30",
"k  c #796725",
"l  c #76773D",
"z  c #213A77",
"x  c #444440",
"c  c #404154",
"v  c #896729",
"b  c #81692D",
"n  c #8D7521",
"m  c #907822",
"M  c #917B2A",
"N  c #81743B",
"B  c #FF3B64",
"V  c #8F6D42",
"C  c #D37260",
"Z  c #918F0D",
"A  c #96950E",
"S  c #9D9C0F",
"D  c #A38A12",
"F  c #A4A30F",
"G  c #ACAB10",
"H  c #B5B311",
"J  c #BCBA12",
"K  c #8C8C25",
"L  c #948822",
"P  c #8F833E",
"I  c #908038",
"U  c #9B8A3B",
"Y  c #A18C22",
"T  c #A88C27",
"R  c #A28722",
"E  c #BA9B28",
"W  c #A39C3C",
"Q  c #B49A35",
"!  c #A8A829",
"~  c #B9A028",
"^  c #BBBA2F",
"/  c #A0A033",
"(  c #C5A52D",
")  c #C8A72E",
"_  c #C8A82C",
"`  c #C3A227",
"'  c #D0AE2E",
"]  c #D5B12E",
"[  c #D9B52F",
"{  c #DBBA2E",
"}  c #D6BB25",
"|  c #C5A83D",
" . c #D7AF35",
".. c #DBB731",
"X. c #DAB938",
"o. c #E3BD2F",
"O. c #EDAE35",
"+. c #C7C513",
"@. c #D8D614",
"#. c #D3D114",
"$. c #DDC02F",
"%. c #DFC433",
"&. c #FED729",
"*. c #E3C433",
"=. c #EAC535",
"-. c #EDCC38",
";. c #E7C838",
":. c #F3CC34",
">. c #EDD137",
",. c #EFD138",
"<. c #F3D335",
"1. c #F7D937",
"2. c #F8DB37",
"3. c #F3D539",
"4. c #FAD039",
"5. c #FEDC3C",
"6. c #ECEB3B",
"7. c #F7E736",
"8. c #FEE337",
"9. c #FFEC37",
"0. c #FFE639",
"q. c #FFEC38",
"w. c #FFF236",
"e. c #FFFA37",
"r. c #FFF239",
"t. c #FFFA3B",
"y. c #929149",
"u. c #A0914A",
"i. c #A9A95E",
"p. c #979772",
"a. c #A09F65",
"s. c #C88646",
"d. c #FF924A",
"f. c #C1AC4A",
"g. c #FFB541",
"h. c #DAD958",
"j. c #E2C84F",
"k. c #FFC143",
"l. c #EEED4B",
"z. c #EDEC43",
"x. c #FFE847",
"c. c #FFFF42",
"v. c #EFEE54",
"b. c #EFEE5A",
"n. c #F0EF5E",
"m. c #F0EF62",
"M. c #F1F06D",
"N. c #F2F175",
"B. c #F3F27C",
"V. c #B0AF85",
"C. c #C1BB81",
"Z. c #F4F388",
"A. c #F7F6A4",
"S. c #F7F6A9",
"D. c #F8F7B1",
"F. c #F9F8BB",
/* pixels */
"                                                            ",
"                                  . .                       ",
"              . .                 . 6 *                     ",
"            o =.=..               . 6 , A @.@.@.+.+.J H H G ",
"          . =.( ..$.% % . .       . M 5.$ h.6.6.l.v.v.n.m.m.",
"          . R ..( ..-.d c 5 = o   K < _ o i.n.n.M.N.N.B.B.Z.",
"            . m [ ) ) Q 6 y.c.L s A.a R e = a.A.S.A.S.A.S.S.",
"              . n [ (  .T I ,.c.k X { t.r.5.0 p.D.F.D.F.F.D.",
"                . n ' ] ` 3 f 0.X.x.&.1.1.7.c.. D.D.D.D.D.D.",
"                  q o.E 1 . 2 3.w.D C.j.>.1.9.u p.F.F.F.F.F.",
"                O 5.T ;   = ~ q.e.0 z i.1.4.| c.. F.F.F.F.F.",
"                . y  .2 - ( r.1.O.C y } 4.8.=.t V.F.F.F.F.F.",
"                    r v 8 4.2.7.d.B g.9.q.2.y.y x S.S.S.A.A.",
"                  @ h b %.=.0.w.V s.x.=.:.7 % > y.N.m.n.n.b.",
"                    4 j O.q.U Q 0.l W [ 7 W ^ ! 6.6.r.z.l.l.",
"                      7 0.0.,.l a N Q -.o G A A S F G G H J ",
"                      % u.q.0.-.;.=.:.1 :         9 9 9 9 9 ",
"                        7 c.8.c.p . +                       ",
"                          p R .                             ",
"                          + .                               "
};
