/* XPM */
static char *raticate[] = {
/* columns rows colors chars-per-pixel */
"30 20 244 2 ",
"   c None",
".  c black",
"X  c #030301",
"o  c #040300",
"O  c #040501",
"+  c #050402",
"@  c #0A0706",
"#  c #010308",
"$  c #070809",
"%  c #090909",
"&  c gray4",
"*  c #0D0C09",
"=  c #110D09",
"-  c #161107",
";  c #16150B",
":  c #19160D",
">  c #1F1B0E",
",  c #0E1016",
"<  c #211F12",
"1  c #261E12",
"2  c #2C1E10",
"3  c #3C210E",
"4  c #262414",
"5  c #292315",
"6  c #2F2910",
"7  c #29221E",
"8  c #322116",
"9  c #352914",
"0  c #3C271A",
"q  c #312E19",
"w  c #342D1D",
"e  c #37331D",
"r  c #3B381F",
"t  c #2B2920",
"y  c #2C2E2C",
"u  c #312D20",
"i  c #312E20",
"p  c #352D20",
"a  c #3C3820",
"s  c #393926",
"d  c #35332C",
"f  c #3E3C2A",
"g  c #2E2E35",
"h  c #3D3D34",
"j  c #402F15",
"k  c #482F17",
"l  c #4C3A1B",
"z  c #5B3E25",
"x  c #423B35",
"c  c #4F4926",
"v  c #4A402D",
"b  c #4F4732",
"n  c #584C31",
"m  c #525330",
"M  c #57513C",
"N  c #59533D",
"B  c #5C573F",
"V  c #6A552C",
"C  c #725926",
"Z  c #6F4F32",
"A  c #6A4A34",
"S  c #604D3E",
"D  c #645936",
"F  c #685A39",
"G  c #6E6032",
"H  c #70653C",
"J  c #7B643E",
"K  c #756C3A",
"L  c #424140",
"P  c gray26",
"I  c #4A4843",
"U  c #4A4844",
"Y  c #534440",
"T  c #524E46",
"R  c #5A5644",
"E  c #5B544B",
"W  c #5B5C54",
"Q  c #595C56",
"!  c #5D5C5C",
"~  c #675144",
"^  c #605D47",
"/  c #645248",
"(  c #645F4D",
")  c #765B43",
"_  c #704053",
"`  c #7A465C",
"'  c #6A6148",
"]  c #7C6144",
"[  c #7C6B45",
"{  c #706C4A",
"}  c #7A7241",
"|  c #7F7644",
" . c #646050",
".. c #726F5B",
"X. c #777259",
"o. c #77715F",
"O. c #465160",
"+. c #6F5E6A",
"@. c #656565",
"#. c #6D6E65",
"$. c #6C6C6C",
"%. c gray43",
"&. c #6E7379",
"*. c #7D7B76",
"=. c #875A2A",
"-. c #8F672F",
";. c #806730",
":. c #9B6C3A",
">. c #A97534",
",. c #885F40",
"<. c #8F6A42",
"1. c #996F4D",
"2. c #807741",
"3. c #817554",
"4. c #837855",
"5. c #817758",
"6. c #977F57",
"7. c #9C7E50",
"8. c #B07440",
"9. c #B07840",
"0. c #B67840",
"q. c #B77C40",
"w. c #BD7840",
"e. c #844C65",
"r. c #AC8531",
"t. c #AD8336",
"y. c #BD8B36",
"u. c #BF9236",
"i. c #CE952E",
"p. c #C1813F",
"a. c #C99A37",
"s. c #C3983F",
"d. c #CB9E3D",
"f. c #DDA13E",
"g. c #E6B03D",
"h. c #8B814B",
"j. c #93894E",
"k. c #908052",
"l. c #918650",
"z. c #948254",
"x. c #918755",
"c. c #A78240",
"v. c #B7834E",
"b. c #AF965C",
"n. c #B2985C",
"m. c #B0A251",
"M. c #85846B",
"N. c #948D66",
"B. c #9C9162",
"V. c #999D6E",
"C. c #9F9D6C",
"Z. c #A79569",
"A. c #A69E6E",
"S. c #A4A175",
"D. c #AEA471",
"F. c #B9AF7F",
"G. c #B9B37D",
"H. c #C68541",
"J. c #C48344",
"K. c #C88746",
"L. c #CA8942",
"P. c #D59648",
"I. c #C89659",
"U. c #D6A043",
"Y. c #D2A546",
"T. c #DAAB45",
"R. c #E7B041",
"E. c #D1B777",
"W. c #DBBD7A",
"Q. c #E6BF6E",
"!. c #F5C85E",
"~. c #E7D17C",
"^. c #EBDA78",
"/. c #F9E77A",
"(. c #848484",
"). c #888F98",
"_. c #859191",
"`. c gray58",
"'. c gray59",
"]. c #979797",
"[. c gray60",
"{. c #A59499",
"}. c #B5A7A2",
"|. c #A7B1BD",
" X c gray69",
".X c gray71",
"XX c #B6B6B6",
"oX c gray",
"OX c gray75",
"+X c #C6BE82",
"@X c #C5BF86",
"#X c #CDC181",
"$X c #DFD28A",
"%X c #EBDB8E",
"&X c #F2D983",
"*X c #F0DF81",
"=X c #E6DE91",
"-X c #FEE88F",
";X c #FFF18D",
":X c #F4E796",
">X c #FCEB98",
",X c #FFF295",
"<X c #FFF299",
"1X c #FFFE9F",
"2X c #FFE5A1",
"3X c #FFFFA8",
"4X c #FFFFAC",
"5X c gray76",
"6X c #C5C5C5",
"7X c #C6C6C6",
"8X c #C8C8C8",
"9X c gray79",
"0X c #CACACA",
"qX c #CBCBCB",
"wX c #CDCDCD",
"eX c #CFCECE",
"rX c gray81",
"tX c gray82",
"yX c #D2D2D2",
"uX c #D7D7D7",
"iX c gainsboro",
"pX c #FFF0CC",
"aX c #E1E1E1",
"sX c #E2E2E2",
"dX c gray89",
"fX c #E4E4E4",
"gX c gray90",
"hX c #E6E5E5",
"jX c #E7E7E7",
"kX c #E7E8E8",
"lX c gray91",
"zX c #E9E9E9",
"xX c gray92",
"cX c gray93",
"vX c #EFEFEF",
"bX c #FCECF0",
"nX c #F1F1F1",
"mX c gray96",
"MX c #F6F6F6",
"NX c gray97",
"BX c #F8F8F8",
"VX c #F9F9F9",
"CX c gray98",
"ZX c #FBFBFB",
/* pixels */
"                                                            ",
"                                                            ",
"                                    : .                     ",
"                c .         6 - 9 . 0 =.! uX8X@.wXtXtXrXwX9X",
"              m }         . l r.a.C -.1.# lXN q .XfXlXlXlXlX",
"            r ~.=     . . d u.P.P.g.g.s.. x 2.*.vXlXvXlXvXmX",
"            H D     j d.Y.c.;.pXO.w p.f.T.t.W mXNXmXNXmXmXNX",
"          4 *Xe       x.4XI.i.2XD }.G !.&Xz.{ ].ZXZXZXVXZXZX",
"          u h.        s =X,X>.V A Q.3XF.' )., '.BXBXBXmXZXZX",
"          u j.        3 v.( 5.@XG.M.-XN |.fXP ZXZXZXZXZXZXZX",
"          < ;Xa     2 H.~ +XC. .I %XA._ bX&.* % wXBXZXZXZXBX",
"          @ 6.F     z H.<...N.#XX.<XA.` {._.x.Z.. ZXZXZXZXZX",
"            e W.x 7 J.0.) S.B.g =X3XC.e.+.s b.n #.ZXmXBXmXmX",
"            . [ E.R H.0.w.A E n.o.>X:X/ (.. T  XvXlXlXlXlXlX",
"              . : N k K.8.( 3.U x ^.x.%.fXtXuXfXaXaXfXfXfXfX",
"                  . 8 :.0.b x./.m.2.x u .XtXoXoX7X7X7XwXwXtX",
"                      y ] ,.J K . . . %.          [.].].].'.",
"                      < 4.W b .                             ",
"                        > * 5                               ",
"                                                            "
};
