/* XPM */
static char *rattata[] = {
/* columns rows colors chars-per-pixel */
"30 20 148 2 ",
"   c None",
".  c black",
"X  c #0B1708",
"o  c #141A04",
"O  c #050F10",
"+  c #181F1D",
"@  c #172305",
"#  c #242E1C",
"$  c #31371F",
"%  c #0C1022",
"&  c #1E2327",
"*  c #202921",
"=  c #202428",
"-  c #292D2F",
";  c #2C3521",
":  c #2A3326",
">  c #2C3230",
",  c #37402E",
"<  c #384032",
"1  c #404033",
"2  c #404034",
"3  c #282A40",
"4  c #2E3040",
"5  c #493B6E",
"6  c #4F4571",
"7  c #FF5243",
"8  c #969033",
"9  c #CBC250",
"0  c #C0C67F",
"q  c #E5E278",
"w  c #4A3588",
"e  c #665AA7",
"r  c #7E6AA3",
"t  c #8070B0",
"y  c #8070BA",
"u  c #8070BD",
"i  c #8070BE",
"p  c #8070BF",
"a  c #8070C0",
"s  c #8070C1",
"d  c #8077C2",
"f  c #8F7CCB",
"g  c #927ECF",
"h  c #8C78DB",
"j  c #937FD0",
"k  c #A87BCA",
"l  c #A87FD5",
"z  c gray59",
"x  c #979797",
"c  c gray75",
"v  c #B8C2B0",
"b  c #D1C981",
"n  c #E6DD8E",
"m  c #FCF391",
"M  c #FFFF90",
"N  c #FFF8A1",
"B  c #FFFFA3",
"V  c #FFFFA7",
"C  c #FFFFA9",
"Z  c #FFFFB1",
"A  c #FFFFB5",
"S  c #FFFFB8",
"D  c #9784D3",
"F  c #9585D7",
"G  c #9986D7",
"H  c #9A86D7",
"J  c #9784D8",
"K  c #9C87DB",
"L  c #9F8BDB",
"P  c #9E8ADD",
"I  c #A888C0",
"U  c #AF88C0",
"Y  c #A888C7",
"T  c #A888CF",
"R  c #B188C0",
"E  c #B388C0",
"W  c #B18FC8",
"Q  c #B590C8",
"!  c #B691CA",
"~  c #A08CDD",
"^  c #A18CDE",
"/  c #B188DB",
"(  c #B691D1",
")  c #B992D3",
"_  c #BB95D3",
"`  c #B995D5",
"'  c #BE96DD",
"]  c #BF99D9",
"[  c #A18BE4",
"{  c #A590E3",
"}  c #B09AF2",
"|  c #B39CFA",
" . c #C09BDB",
".. c #C299DF",
"X. c #C59EDE",
"o. c #C39BE0",
"O. c #C59FE1",
"+. c #CAA2E1",
"@. c #CAA2E8",
"#. c #CAA6EB",
"$. c #CEA4E9",
"%. c #CCA4EB",
"&. c #CEA5EC",
"*. c #D1A7ED",
"=. c #D3A9EF",
"-. c #D0A8F0",
";. c #D3ABF2",
":. c #D5AAF5",
">. c #D8AFF5",
",. c #D1A6FA",
"<. c #E0B4FF",
"1. c gray76",
"2. c #C5C5C5",
"3. c #C8C8C8",
"4. c gray79",
"5. c #CACACA",
"6. c #CBCBCB",
"7. c #CDCDCD",
"8. c #CFCECE",
"9. c #DBDBCF",
"0. c gray82",
"q. c #D2D2D2",
"w. c gray83",
"e. c gray84",
"r. c #D7D7D7",
"t. c #FFFFC3",
"y. c #E1E1E1",
"u. c #E2E2E2",
"i. c gray89",
"p. c #E4E4E4",
"a. c gray90",
"s. c #E6E5E5",
"d. c #E7E7E7",
"f. c gray91",
"g. c #E9E9E9",
"h. c gray92",
"j. c gray93",
"k. c #EFEFEF",
"l. c #F1F1F1",
"z. c #F4F4F4",
"x. c gray96",
"c. c #F6F6F6",
"v. c gray97",
"b. c #F8F8F8",
"n. c #F9F9F9",
"m. c gray98",
"M. c #FBFBFB",
"N. c white",
/* pixels */
"            . . .                                           ",
"          . 2 *.@.#                                         ",
"          . J _ Y @..                                       ",
"          . J @ o.;..                   w.r.r.r.w.w.w.8.8.8.",
"          . ~ j , .                 f.f.f.f.a.a.a.a.a.f.f.f.",
"            . ~ .                 a.. . k.k.a.f.f.f.c.f.f.c.",
"            . { r .             c.. < <.. v.v.c.n.n.n.v.v.n.",
"              . } .     . .   v.n.. @.+.. n.n.n.n.n.n.n.n.n.",
"                . | . . ,.@.. n.. . a +.. n.n.n.n.n.n.n.n.n.",
"                . ; ;.* q / @.. >. .! a . n.n.n.n.n.n.n.n.n.",
"                . @.Y ' O M T d 6 Y I ! J . n.. . n.n.n.n.n.",
"              . H t E E o.X _ ! W I I I X.. . A . n.n.n.n.n.",
"            . m u t t u r s s 5 ] I I I ' > C . n.n.c.c.c.c.",
"            . 9 a t D $ j g o n.. #.I I ( ; . f.c.f.f.f.f.f.",
"            . . P P . . - + w n.7 . / I I @.. a.a.r.a.a.a.a.",
"                . .   . S C C 8 b N M k e ;.. c 2.2.2.8.8.w.",
"                        4 & = 3 n b % v n..       x x x x x ",
"                        . [ J . . N . n.9..                 ",
"                        . 2 h .   .   . .                   ",
"                          . A t..                           "
};
