/* XPM */
static char *spearow[] = {
/* columns rows colors chars-per-pixel */
"30 20 168 2 ",
"   c None",
".  c black",
"X  c #081325",
"o  c #0F292D",
"O  c #152629",
"+  c #162B2F",
"@  c #112C31",
"#  c #132B34",
"$  c #1E3139",
"%  c #222E36",
"&  c #693817",
"*  c #0C2540",
"=  c #082247",
"-  c #002F40",
";  c #0F2A40",
":  c #1F2C40",
">  c #172E4E",
",  c #103340",
"<  c #143040",
"1  c #173340",
"2  c #1A3440",
"3  c #1B3540",
"4  c #193740",
"5  c #1E3740",
"6  c #183147",
"7  c #1F394D",
"8  c #203240",
"9  c #233340",
"0  c #243940",
"q  c #243947",
"w  c #2F404C",
"e  c #304040",
"r  c #314040",
"t  c #384040",
"y  c #394040",
"u  c #34404D",
"i  c gray25",
"p  c #404B4B",
"a  c #404052",
"s  c #A83237",
"d  c #A84E16",
"f  c #B1561A",
"g  c #805030",
"h  c #955030",
"j  c #A84F22",
"k  c #BC6024",
"l  c #A66230",
"z  c #A86030",
"x  c #A96130",
"c  c #AF6030",
"v  c #B06030",
"b  c #B36030",
"n  c #B46030",
"m  c #B66030",
"M  c #B86030",
"N  c #BC6030",
"B  c #BC6730",
"V  c #BE6A37",
"C  c #CC6C29",
"Z  c #C26630",
"A  c #C06830",
"S  c #C46930",
"D  c #CC6930",
"F  c #CE6C30",
"G  c #C96E3C",
"H  c #D36E30",
"J  c #C97030",
"K  c #D97430",
"L  c #D0743B",
"P  c #D0763C",
"I  c #DB7A38",
"U  c #D97B3D",
"Y  c #D87B3E",
"T  c #AB4048",
"R  c #B84848",
"E  c #D14848",
"W  c #D25151",
"Q  c #E35354",
"!  c #E45959",
"~  c #FF6848",
"^  c #F06850",
"/  c #FD6850",
"(  c #FF7150",
")  c #FF7250",
"_  c #FF7350",
"`  c #C87978",
"'  c #C87A78",
"]  c #C88830",
"[  c #D09030",
"{  c #D49430",
"}  c #D49530",
"|  c #D79630",
" . c #DC9330",
".. c #DD9530",
"X. c #DE9830",
"o. c #E39A30",
"O. c #E79B30",
"+. c #E59D30",
"@. c #ED9C30",
"#. c #F0A130",
"$. c #F4A330",
"%. c #FFAD30",
"&. c #FCAB3B",
"*. c #FFAF3B",
"=. c #FFAD3C",
"-. c #FFB63C",
";. c #FFB939",
":. c #FFB83A",
">. c #EB8643",
",. c #FFBF41",
"<. c gray59",
"1. c #979797",
"2. c gray",
"3. c gray75",
"4. c #E59D92",
"5. c #F29990",
"6. c #F79E94",
"7. c #F99990",
"8. c #FFA99E",
"9. c #FFB5AA",
"0. c #D6D382",
"q. c #F2DF84",
"w. c #F7E582",
"e. c #FEF194",
"r. c #FFC3B0",
"t. c #FFC8B5",
"y. c #FFCEBA",
"u. c #FFCEBB",
"i. c #FFD3BF",
"p. c gray76",
"a. c #C5C5C5",
"s. c #C8C8C8",
"d. c gray79",
"f. c #CACACA",
"g. c #CBCBCB",
"h. c #CDCDCD",
"j. c #CFCECE",
"k. c gray82",
"l. c #D2D2D2",
"z. c gray83",
"x. c gray84",
"c. c #D7D7D7",
"v. c #FFDAC6",
"b. c #FFDCC5",
"n. c #FFDEC9",
"m. c #FFE1CB",
"M. c #FFEBD5",
"N. c #E1E1E1",
"B. c #E2E2E2",
"V. c gray89",
"C. c #E4E4E4",
"Z. c gray90",
"A. c #E6E5E5",
"S. c #E7E7E7",
"D. c gray91",
"F. c #E9E9E9",
"G. c gray92",
"H. c gray93",
"J. c #EFEFEF",
"K. c #F1F1F1",
"L. c gray96",
"P. c #F6F6F6",
"I. c gray97",
"U. c #F8F8F8",
"Y. c #F9F9F9",
"T. c gray98",
"R. c #FBFBFB",
"E. c white",
/* pixels */
"                                                            ",
"                                                            ",
"                . .   .               . .                   ",
"              . a :.. ,..   . . .     . >.. k.c.k.k.k.k.h.s.",
"            . :.6 D q K .   . -.*.. . . Y . C.C.D.S.D.D.D.D.",
"            . L S 5 H u . . . > @.#.*.. V L . D.D.D.J.D.D.L.",
"              . I q h 0 x u %.#.; = ..o.| n . L.E.L.L.L.E.L.",
"                . l 5 y y i 9 N o.o.o.] ] | G . E.U.E.I.U.E.",
"                  . m.O i i e 1 c g . Z | ..*.. E.L.L.L.E.L.",
"                . 5.r.u.@ 5 C N c & E.. D ; . E.E.L.E.E.E.E.",
"                . 6.' u.~ _ - N x f E.. @ v.v.. L.L.L.E.L.L.",
"                  . 4.s / ^ _ , N z f $ b.' r.n.. E.E.L.E.E.",
"                  . Q R T _ _ 0 5 c n 1 5.+ @ M.. E.L.L.L.L.",
"                    . ! W E 4 : k z c D . 9.. . D.D.D.D.D.D.",
"                      . . p % w.0.j g I . . c.C.c.C.C.C.C.C.",
"                          . 8.X w.e.. . h.k.2.a.a.a.a.h.h.k.",
"                            . E.. .               1.1.1.1.1.",
"                              . .                           ",
"                                                            ",
"                                                            "
};
