/* XPM */
static char *squirtle[] = {
/* columns rows colors chars-per-pixel */
"30 20 236 2 ",
"   c None",
".  c black",
"X  c #050000",
"o  c #040706",
"O  c #0E0504",
"+  c #020B0B",
"@  c #070808",
"#  c #060D0D",
"$  c #070E0D",
"%  c #100A01",
"&  c #060E13",
"*  c #061211",
"=  c #101319",
"-  c #231101",
";  c #271C10",
":  c #322318",
">  c #38301F",
",  c #001F2B",
"<  c #14232B",
"1  c #0E2935",
"2  c #1E3132",
"3  c #1D3333",
"4  c #1A3535",
"5  c #302A2D",
"6  c #2B3030",
"7  c #363A3E",
"8  c #643103",
"9  c #602E14",
"0  c #763F11",
"q  c #453634",
"w  c #29463C",
"e  c #5D4D3B",
"r  c #6D4C33",
"t  c #604C3D",
"y  c #755D35",
"u  c #7B5B3C",
"i  c #01394F",
"p  c #013950",
"a  c #013B52",
"s  c #013B53",
"d  c #224546",
"f  c #224A47",
"g  c #2B4B43",
"h  c #3A4945",
"j  c #2A4E52",
"k  c #3B5859",
"l  c #385D58",
"z  c #335F60",
"x  c #395865",
"c  c #346463",
"v  c #32646F",
"b  c #336C6F",
"n  c #396673",
"m  c #366E7B",
"M  c #387E76",
"N  c #415350",
"B  c #40545D",
"V  c #4A565B",
"C  c #415F5E",
"Z  c #6F5C57",
"A  c #6A694D",
"S  c #767648",
"D  c #6E6054",
"F  c #575F60",
"G  c #4F6364",
"H  c #4A636E",
"J  c #4A6C6B",
"K  c #536263",
"L  c #51666F",
"P  c #4D7972",
"I  c #60756F",
"U  c #9C4E16",
"Y  c #B9680D",
"T  c #835827",
"R  c #B55E28",
"E  c #816C39",
"W  c #A77137",
"Q  c #CC630A",
"!  c #E17927",
"~  c #8E6249",
"^  c #927542",
"/  c #B57F4D",
"(  c #837D72",
")  c #3B807F",
"_  c #4E827D",
"`  c #4E8C7E",
"'  c #52847D",
"]  c #E4811D",
"[  c #FE9626",
"{  c #96925F",
"}  c #B88245",
"|  c #878764",
" . c #A59462",
".. c #AFB077",
"X. c #E4D07A",
"o. c #F8D672",
"O. c #FFE77B",
"+. c #035C81",
"@. c #2D5C8D",
"#. c #0274A3",
"$. c #0276A6",
"%. c #027AAC",
"&. c #436D84",
"*. c #467F82",
"=. c #447F93",
"-. c #477A95",
";. c #687D87",
":. c #0280B4",
">. c #0285BA",
",. c #0286BD",
"<. c #0287BD",
"1. c #448B88",
"2. c #518388",
"3. c #54918F",
"4. c #50958F",
"5. c #458394",
"6. c #6D8185",
"7. c #6D8385",
"8. c #798E9B",
"9. c #4EA69C",
"0. c #55A99D",
"q. c #54AB9F",
"w. c #5797B4",
"e. c #5794B7",
"r. c #5196B8",
"t. c #6F95A5",
"y. c #709CAB",
"u. c #50A7A1",
"i. c #50A6A5",
"p. c #5BA9A7",
"a. c #5CA8A4",
"s. c #57B1AA",
"d. c #5EB3AF",
"f. c #5AA4BF",
"g. c #72A4B9",
"h. c #63B9BE",
"j. c #0289C0",
"k. c #028AC2",
"l. c #028CC5",
"z. c #028EC7",
"x. c #0292CD",
"c. c #0293CF",
"v. c #0298D5",
"b. c #029FDF",
"n. c #36A7D6",
"m. c #5A9EC3",
"M. c #57A2C5",
"N. c #59B1CA",
"B. c #5FB9C8",
"V. c #5FBFCA",
"C. c #55B2D9",
"Z. c #61A6CC",
"A. c #6FB3DA",
"S. c #64B8DA",
"D. c #6DB9E7",
"F. c #2AC0FD",
"G. c #2CC0FD",
"H. c #2EC1FD",
"J. c #31C2FD",
"K. c #37C4FD",
"L. c #3EC6FD",
"P. c #70CED9",
"I. c #40C6FD",
"U. c #46C8FD",
"Y. c #4CCAFD",
"T. c #4FCBFD",
"R. c #54CCFD",
"E. c #55CDFD",
"W. c #56CDFD",
"Q. c #58CDFD",
"!. c #5CCEFD",
"~. c #66C6E2",
"^. c #6EC1E4",
"/. c #6ACCE4",
"(. c #74C4E5",
"). c #7BC8E8",
"_. c #76C9F2",
"`. c #73C8F4",
"'. c #74C9FB",
"]. c #75CDFA",
"[. c #73C8FC",
"{. c #66D2FE",
"}. c #6AD4F8",
"|. c #6CD3FE",
" X c #6DD4FE",
".X c #6FD4FE",
"XX c #72D0FF",
"oX c #75D2FF",
"OX c #70D4FE",
"+X c #71D5FE",
"@X c #7AD1F8",
"#X c #78D4FF",
"$X c #7AD5FF",
"%X c #78D7FE",
"&X c #7AD6FF",
"*X c #7CD4FF",
"=X c #7FDAFF",
"-X c #7EDCFF",
";X c #959E9A",
":X c #BF9D91",
">X c #89B9A7",
",X c #82BCB7",
"<X c #C8A594",
"1X c #D3C887",
"2X c #C9D191",
"3X c #FFFD96",
"4X c #BBCED9",
"5X c #80DAFF",
"6X c #83DAFE",
"7X c #81DEFF",
"8X c #80DFFF",
"9X c #83E2FF",
"0X c #84E1FF",
"qX c #83E5FF",
"wX c #83E7FF",
"eX c #84E4FF",
"rX c #85E5FF",
"tX c #82EDFF",
"yX c #9DE2FE",
"uX c #9FE3FE",
"iX c #A2E3FE",
"pX c #A3E4FE",
"aX c #A4E4FE",
"sX c #A5E4FE",
"dX c #A7E5FE",
"fX c #AAE6FE",
"gX c #AFE7FE",
"hX c #B0E7FE",
"jX c #B1E8FE",
"kX c #B7EAFE",
"lX c #B9EAFE",
"zX c #BAEBFE",
"xX c #BCEBFE",
"cX c #D5D6D6",
"vX c #DFF2FC",
"bX c #E7EAF1",
/* pixels */
"                                                            ",
"                                                            ",
"              . . .                 . . . .                 ",
"            # 8X0XZ..           . . r.0X8Xh.# l.b.v.c.l.<.<.",
"          . 0.4.].8Xe..     O . k $X$X`._.XX0X. I.U.T.E.E.E.",
"          . _ h 4.$XM..   % 0 u f.8X].(.)._.=X< C..X+XXX$X8X",
"          . ) p.q s./.l 8 [ T b ~.$XZ.g.>X(.].0X. iXiXiXiXgX",
"            . c N i.m y ] / Z z V.tX= ( M S.].0X. jXzXzXzXjX",
"              . w i.C W Y :XbXK 1.P.V . 5.=X0X=.k gXgXgXgXjX",
"                O d.r Q } cX4XD k 1.I g P.e.&.L zXzXzXzXzXzX",
"                # d e U <XvXG K | ..P v G _ . jXzXzXgXjXzXzX",
"                  . 5 R ~ 8.A.D.6.X.2X1X; 4 6.zXzXzXvXzXzXzX",
"                    - ! 9 n }.tX@.^ O.E y.g.iXiXgXgXuXiXuXuX",
"                      e ;X6 2.5.{ 3X .f 1 T.XX.XXX{.!.E.E.T.",
"                      & 6.F 5 S o.A 7 ` * n.H.H.H.H.J.J.L.I.",
"                        2 p.N.t.;   , o +.c.$.$.%.%.<.<.l.c.",
"                        2 0.9.j                   s s s s i ",
"                          . .                               ",
"                                                            ",
"                                                            "
};
