/* XPM */
static char *venusaur[] = {
/* columns rows colors chars-per-pixel */
"30 20 177 2 ",
"   c None",
".  c black",
"X  c #0B0F15",
"o  c #1D1C1F",
"O  c #10110C",
"+  c #210000",
"@  c #210F15",
"#  c #2A1310",
"$  c #311116",
"%  c #072A12",
"&  c #092712",
"*  c #18261F",
"=  c #1B222B",
"-  c #212626",
";  c #3B3F3E",
":  c #27343E",
">  c #41321D",
",  c #6B3038",
"<  c #652531",
"1  c #0A471D",
"2  c #185E2B",
"3  c #14482B",
"4  c #2B4F2C",
"5  c #25462A",
"6  c #334437",
"7  c #335630",
"8  c #2A4238",
"9  c #11642A",
"0  c #126C2D",
"q  c #196829",
"w  c #177632",
"e  c #474331",
"r  c #654F3F",
"t  c #7C5F30",
"y  c #655B26",
"u  c #7D6734",
"i  c #253944",
"p  c #513141",
"a  c #334A4A",
"s  c #3D584D",
"d  c #2A4F4B",
"f  c #3E6054",
"g  c #3F7258",
"h  c #314D61",
"j  c #38606E",
"k  c #4E565E",
"l  c #48484F",
"z  c #624C4E",
"x  c #735853",
"c  c #457357",
"v  c #497659",
"b  c #497946",
"n  c #676155",
"m  c #5F5C6A",
"M  c #4A5E73",
"N  c #554F6A",
"B  c #4A6775",
"V  c #526F7F",
"C  c #4E766E",
"Z  c #676F61",
"A  c #796774",
"S  c #99793A",
"D  c #843B45",
"F  c #844352",
"G  c #845D57",
"H  c #A65D5D",
"J  c #836645",
"K  c #A07B5E",
"L  c #A65D6E",
"P  c #A65E70",
"I  c #BA5A6B",
"U  c #80636C",
"Y  c #967574",
"T  c #A56467",
"R  c #BC6774",
"E  c #D85E73",
"W  c #C5646E",
"Q  c #E66C7D",
"!  c #F2657C",
"~  c #1A8D3B",
"^  c #1B9C41",
"/  c #1CA444",
"(  c #1DA947",
")  c #1EAE49",
"_  c #1EB34A",
"`  c #20BC4E",
"'  c #27BE53",
"]  c #3D8160",
"[  c #52874B",
"{  c #5A8F58",
"}  c #589559",
"|  c #669258",
" . c #64A55C",
".. c #448F63",
"X. c #588467",
"o. c #4A9360",
"O. c #579661",
"+. c #598972",
"@. c #648969",
"#. c #65AB65",
"$. c #69AD6C",
"%. c #71B666",
"&. c #69BD6B",
"*. c #22C452",
"=. c #25D659",
"-. c #28DA5D",
";. c #25D659",
":. c #2EDB62",
">. c #2DD660",
",. c #71C36A",
"<. c #74CC6D",
"1. c #7AD26F",
"2. c #7FD573",
"3. c #6DC96A",
"4. c #BF9A51",
"5. c #A6825D",
"6. c #B6A149",
"7. c #A0807A",
"8. c #81D670",
"9. c #88E479",
"0. c #3E728A",
"q. c #426C81",
"w. c #497592",
"e. c #49768E",
"r. c #AA7686",
"t. c #D3798A",
"y. c #E87588",
"u. c #F87286",
"i. c #F87F91",
"p. c #55889C",
"a. c #5C8688",
"s. c #708D89",
"d. c #699D94",
"f. c #789B95",
"g. c #6CA999",
"h. c #4B88A8",
"j. c #598AA5",
"k. c #5995AB",
"l. c #5594AA",
"z. c #548CB6",
"x. c #6293AD",
"c. c #5CA2BB",
"v. c #68ABAB",
"b. c #6CB4A3",
"n. c #69B8AD",
"m. c #79B6A9",
"M. c #69AAB7",
"N. c #6AB5BA",
"B. c #73C4BB",
"V. c #7CCFBF",
"C. c #75C5B5",
"Z. c #7CD4BD",
"A. c #67BBC0",
"S. c #6CC4C1",
"D. c #7CCFC0",
"F. c #7DD6C2",
"G. c #77D4C7",
"H. c #BA8A90",
"J. c #BBA29D",
"K. c #D38083",
"L. c #C48F93",
"P. c #FF8C9B",
"I. c #FB8495",
"U. c #FF8DA3",
"Y. c #FF95A4",
"T. c #FF99A6",
"R. c #FF99A8",
"E. c #E6A1AD",
"W. c #FFA0B5",
"Q. c #83C1BC",
"!. c #82B4CF",
"~. c #FFBDC5",
"^. c #82DDCC",
"/. c #86E4C8",
"(. c #EECCC8",
"). c #FFDCDB",
"_. c #D9E3EC",
/* pixels */
"                                                            ",
"                            p U F                           ",
"                  $ Y T @ y J 5.Q R 7.,                     ",
"                H.P.Y.I.T 6.6.4.H y.T.i.x 0 w w w 0 0 0 0 0 ",
"                < y.i.! Q T K x P.T.! E 7 ) ^ ^ / / _ ) _ ) ",
"                L.T.t.I u.W.r.> o J.U.).y.e / ) _ _ _ *.*.*.",
"              D ~.Y z (.Y.i.G S q ( W Y.R b =.=.=.=.=.=.=.=.",
"                6 7 t.P.).E.S S 6 3 s n 1 ' :.:.:.:.:.:.:.-.",
"                . 4 Z P H.Y t z s c v c c : w :.-.-.-.-.-.-.",
"              4 [ O.o.o...g ; c } ,.#.O.+.6 >.:.:.:.:.:.:.:.",
"            [ #.<.8.3.,...g C c &.,.8.%.#. .2 :.:.:.:.:.:.:.",
"          5 2.2.&.$.X.B V T Q m.+.| <.1.2.9.{ w :.:.:.:.:.:.",
"          = } { v a.j.z.h.A t.B.G.g.@. .| %.C C =.=.=.=.=.=.",
"            O e.A.G.j.k.N.h.v.Z.Z.G.N.g.g.f.C.^.4 _ _ _ ) ( ",
"            X l.A.j.M n./.v.G.Z.f.g.N.N.F.F.G.m.= ^ ^ ^ / / ",
"              M j.h a c.B.V k.M._.W Q.B.V.V.G.s.= 9 9 9 0 w ",
"              - -   i k.k.w.i q.j.!.M.S.^.S.n.- % % % % % % ",
"                      w.c.p.O   l m N q.B i O               ",
"                      : l k       # +                       ",
"                                                            "
};
