/* XPM */
static char *wartortle[] = {
/* columns rows colors chars-per-pixel */
"30 20 165 2 ",
"   c None",
".  c #000001",
"X  c #04060A",
"o  c #0A0507",
"O  c #1B1209",
"+  c #0D0F17",
"@  c #0F1018",
"#  c #16181B",
"$  c #171B17",
"%  c #230F00",
"&  c #252316",
"*  c #3B2813",
"=  c #051A27",
"-  c #191B22",
";  c #1E262D",
":  c #222224",
">  c #202A2F",
",  c #232637",
"<  c #2C3434",
"1  c #2D323B",
"2  c #393D36",
"3  c #563719",
"4  c #643A11",
"5  c #4C3E32",
"6  c #44362C",
"7  c #714E19",
"8  c #5A4D3F",
"9  c #6B4621",
"0  c #68583C",
"q  c #1F2A49",
"w  c #063B4E",
"e  c #153A44",
"r  c #1E2B53",
"t  c #013B52",
"y  c #232C48",
"u  c #363D4C",
"i  c #162E66",
"p  c #384556",
"a  c #3C4660",
"s  c #2D5569",
"d  c #3A4974",
"f  c #33617D",
"g  c #474949",
"h  c #4A4D59",
"j  c #53595E",
"k  c #525753",
"l  c #6C6850",
"z  c #565D74",
"x  c #4F586D",
"c  c #5D6164",
"v  c #5A6A68",
"b  c #5A6378",
"n  c #5F7371",
"m  c #616361",
"M  c #72736F",
"N  c #71767B",
"B  c #80501E",
"V  c #976735",
"C  c #816244",
"Z  c #867F56",
"A  c #6E807D",
"S  c #70807C",
"D  c #B68043",
"F  c #A0845E",
"G  c #A89659",
"H  c #A99868",
"J  c #B6A861",
"K  c #C7B861",
"L  c #DCC058",
"P  c #334889",
"I  c #1A7398",
"U  c #0275A5",
"Y  c #027AAC",
"T  c #455486",
"R  c #567B8C",
"E  c #65768A",
"W  c #6C799C",
"Q  c #495EAA",
"!  c #4261B1",
"~  c #727BA1",
"^  c #6173C0",
"/  c #0286BC",
"(  c #0280B4",
")  c #7A8286",
"_  c #7F8E90",
"`  c #78919C",
"'  c #5092B0",
"]  c #7781AC",
"[  c #028CC4",
"{  c #0293CE",
"}  c #029AD8",
"|  c #38ADDE",
" . c #29B1EA",
".. c #6F83C3",
"X. c #7782C4",
"o. c #7986C5",
"O. c #798ED9",
"+. c #7F91DE",
"@. c #748FE9",
"#. c #2CC0FD",
"$. c #34C3FD",
"%. c #3EC6FD",
"&. c #5CC1EB",
"*. c #40C6FD",
"=. c #4ECBFD",
"-. c #46C8FD",
";. c #55CCFD",
":. c #5ACEFD",
">. c #6ED4FE",
",. c #66D2FE",
"<. c #75D6FE",
"1. c #91948B",
"2. c #818B93",
"3. c #839497",
"4. c #A9AA9C",
"5. c #8482A3",
"6. c #8899B7",
"7. c #8DA5BB",
"8. c #91B5BE",
"9. c #88A2A6",
"0. c #B0B4BF",
"q. c #E6D584",
"w. c #8CA2CD",
"e. c #98A2CF",
"r. c #98A8D5",
"t. c #9BBED1",
"y. c #A4B4DF",
"u. c #B1BFD6",
"i. c #859AEF",
"p. c #8CA4E5",
"a. c #8FA6FA",
"s. c #93A6FD",
"d. c #9DAFFF",
"f. c #95A6F8",
"g. c #9DB3FF",
"h. c #92B6F1",
"j. c #A2B5FF",
"k. c #A8BCFF",
"l. c #ABCECF",
"z. c #A9CDD6",
"x. c #AEC6D0",
"c. c #BECED8",
"v. c #BDD3D5",
"b. c #83DAFE",
"n. c #A9C1EC",
"m. c #ADD5E3",
"M. c #BCDFE5",
"N. c #BDCCF8",
"B. c #9EE3FE",
"V. c #A3E4FE",
"C. c #AFE7FE",
"Z. c #B6EAFE",
"A. c #BBEBFE",
"S. c #B2E6FB",
"D. c #CDCAC0",
"F. c #E1DDCD",
"G. c #EAE2DB",
"H. c #CCDDEB",
"J. c #CFE1EE",
"K. c #D2E1EF",
"L. c #CCE1FF",
"P. c #DBECFB",
"I. c #D4E5F4",
"U. c #EAFDFF",
"Y. c #FCFEFC",
/* pixels */
"                                                            ",
"                                          # ;               ",
"                                          k E               ",
"                        . j @           w 6.6.1 } } { [ [ / ",
"              . .       . _ v.2.    ;.;.$ I.h.< | *.=.;.;.:.",
"            g I.J.:       . r.U.2.I s . o E l.< &.>.>.>.<.b.",
"          # Y.J.I.P..     . E p.x.& T d.j.w., R V.V.V.V.V.V.",
"          X 9.A c.U.j     . v t.d.4.^ d.f.s.g.- S.A.Z.A.A.Z.",
"            < 3.c P.l..   3 M m.w.x q e.g.f.d.o.p C.C.Z.C.C.",
"              n H.c M.E % D 0 k x ! ] : +.O.j.k.@ A.A.A.A.A.",
"              j U.v z.` C B Y.D.u n.Y.* ! +.k.y A.A.A.A.A.A.",
"              . N M.8.6 V F 0.z z i y.] a.a.Q , ` A.A.A.A.A.",
"                < z.x.5 4 G.W d...7 c P d p r e.- V.V.V.V.B.",
"                  # > k 7 F.N p.N.1.H L J e f 1 ' ,.:.;.;.=.",
"                      O 9 4.g l w.b G L ; *.#. .#.#.$.$.%.*.",
"                        c M h K l G l a P = U U Y ( / / [ } ",
"                        8 z s.~ F $ X y y =       t t t t t ",
"                          T @.X..                           ",
"                          + X X                             ",
"                                                            "
};
