/* XPM */
static char *weedle[] = {
/* columns rows colors chars-per-pixel */
"30 20 154 2 ",
"   c None",
".  c black",
"X  c #193F12",
"o  c #002533",
"O  c #082538",
"+  c #733A1C",
"@  c #194012",
"#  c #1A4112",
"$  c #1A4212",
"%  c #1A4213",
"&  c #784022",
"*  c #794022",
"=  c #0F2340",
"-  c #0C2540",
";  c #112F40",
":  c #192840",
">  c #182B40",
",  c #1C2F4A",
"<  c #212C47",
"1  c #244040",
"2  c #39404F",
"3  c #404054",
"4  c #905327",
"5  c #906038",
"6  c #B07938",
"7  c #AD7045",
"8  c #D84870",
"9  c #E9417B",
"0  c #F2487C",
"q  c #338124",
"w  c #338325",
"e  c #358826",
"r  c #388E28",
"t  c #3A9329",
"y  c #3A952A",
"u  c #3B962A",
"i  c #3C982B",
"p  c #3D9C2C",
"a  c #3E9D2C",
"s  c #3FA22E",
"d  c #40A32E",
"f  c #42A82F",
"g  c #45B132",
"h  c #48B734",
"j  c #49BB35",
"k  c #6BD058",
"l  c #6BD059",
"z  c #6CD059",
"x  c #6CD05A",
"c  c #6DD15B",
"v  c #70D25E",
"b  c #70D25F",
"n  c #74D362",
"m  c #78D468",
"M  c #7AD569",
"N  c #7AD56A",
"B  c #7ED66E",
"V  c #B08038",
"C  c #BA8038",
"Z  c #BB8938",
"A  c #BE8838",
"S  c #CE8B2A",
"D  c #C18A38",
"F  c #C38C38",
"G  c #C58D38",
"H  c #C68F38",
"J  c #CA8F38",
"K  c #C59430",
"L  c #C69430",
"P  c #C89631",
"I  c #CF9D38",
"U  c #D0A837",
"Y  c #E6AE3E",
"T  c #D39542",
"R  c #D49A41",
"E  c #D79843",
"W  c #D7A540",
"Q  c #DDA244",
"!  c #D0A848",
"~  c #D7AF48",
"^  c #D8B048",
"/  c #D8B148",
"(  c #DDB548",
")  c #DDB648",
"_  c #DEB748",
"`  c #E3A343",
"'  c #E5A642",
"]  c #E6A544",
"[  c #E5B848",
"{  c #E6BD48",
"}  c #E9BB48",
"|  c #E8BC48",
" . c #ECBF48",
".. c #FAB348",
"X. c #E9BC50",
"o. c #82D773",
"O. c #84D875",
"+. c #85D876",
"@. c #88D979",
"#. c #89DA7A",
"$. c #89DA7B",
"%. c #8ADA7C",
"&. c #8CDA7D",
"*. c #8DDB7F",
"=. c #EFC148",
"-. c #E9C748",
";. c #EDC14F",
":. c #EFCC48",
">. c #EEC252",
",. c #EFC253",
"<. c #F4C655",
"1. c #F4C851",
"2. c #FFD159",
"3. c #FFD95B",
"4. c #FFDA5B",
"5. c #E32A8B",
"6. c #FF5186",
"7. c #FF5587",
"8. c #FF598B",
"9. c #FF4096",
"0. c #FF4F97",
"q. c #93DD86",
"w. c #95DD88",
"e. c #99DF8C",
"r. c #9ADF8D",
"t. c #9BDF8E",
"y. c #9BDF8F",
"u. c #9CDF8F",
"i. c #9DE091",
"p. c #A2E196",
"a. c #A9E49E",
"s. c #B8E9B0",
"d. c #BBE9B3",
"f. c #BCEAB4",
"g. c #BDEAB5",
"h. c #BFEBB7",
"j. c #C0EBB8",
"k. c #C1EBB9",
"l. c #C3ECBB",
"z. c #C4ECBD",
"x. c #FF95C9",
"c. c #B8C0CD",
"v. c #C8EDC1",
"b. c #C8EEC1",
"n. c #C9EEC2",
"m. c #CAEEC3",
"M. c #CEEFC8",
"N. c #CFF0C9",
"B. c #D0F0CA",
"V. c #D1F0CB",
"C. c #E9E9E9",
"Z. c gray98",
"A. c #F9FAFC",
"S. c white",
/* pixels */
"                                                            ",
"                                                            ",
"                                    . .                     ",
"                              . . . Z.. j j j j h d d d p u ",
"                          . . 4.4 Z.Z.. #.#.l b M +.B #.#.#.",
"                        . E ,.( & c.Z.S . a.+.#.w.w.u.u.p.a.",
"                        . ,.! ! _ & + <.. z.s.g.g.g.z.z.z.z.",
"                      . 2.! ! [ U W / ^ 4.. N.N.V.M.m.V.m.M.",
"                      . <.! X.. Z.U ! ;.5 . m.v.z.m.m.z.m.m.",
"                      . T ( | < . } =.o 9 x.. N.V.V.V.V.V.V.",
"                        . H 6 ;.,.;.O 0 8 7.. V.V.V.V.M.V.V.",
"                .       . 7 F V V C ; 7.8.. V.V.V.V.V.V.V.V.",
"              . Z..       . , J F F ` . . f.l.l.z.z.j.j.g.d.",
"              . C.C..   . Q P = > 1 . #.#.#.e.i.u.w.#.#.#.+.",
"                . Z..   . I 5.-.:.0.. v M M M v x x b n M M ",
"                  . ... ` = L A I . p s s s % e e r u u a d ",
"                  . 3 ` A L O 3 .                 $ $ $ $ X ",
"                    . . W 9.[ .                             ",
"                        . . .                               ",
"                                                            "
};
