/* XPM */
static char *bug[] = {
/* columns rows colors chars-per-pixel */
"8 20 70 1 ",
"  c None",
". c #193F12",
"X c #194012",
"o c #1A4112",
"O c #1A4212",
"+ c #1A4213",
"@ c #338124",
"# c #338325",
"$ c #358826",
"% c #388E28",
"& c #3A9329",
"* c #3A952A",
"= c #3B962A",
"- c #3C982B",
"; c #3D9C2C",
": c #3E9D2C",
"> c #3FA22E",
", c #40A32E",
"< c #42A82F",
"1 c #45B132",
"2 c #48B734",
"3 c #49BB35",
"4 c #6BD058",
"5 c #6BD059",
"6 c #6CD059",
"7 c #6CD05A",
"8 c #6DD15B",
"9 c #70D25E",
"0 c #70D25F",
"q c #74D362",
"w c #78D468",
"e c #7AD569",
"r c #7AD56A",
"t c #7ED66E",
"y c #82D773",
"u c #84D875",
"i c #85D876",
"p c #88D979",
"a c #89DA7A",
"s c #89DA7B",
"d c #8ADA7C",
"f c #8CDA7D",
"g c #8DDB7F",
"h c #93DD86",
"j c #95DD88",
"k c #99DF8C",
"l c #9ADF8D",
"z c #9BDF8E",
"x c #9BDF8F",
"c c #9CDF8F",
"v c #9DE091",
"b c #A2E196",
"n c #A9E49E",
"m c #B8E9B0",
"M c #BBE9B3",
"N c #BCEAB4",
"B c #BDEAB5",
"V c #BFEBB7",
"C c #C0EBB8",
"Z c #C1EBB9",
"A c #C3ECBB",
"S c #C4ECBD",
"D c #C8EDC1",
"F c #C8EEC1",
"G c #C9EEC2",
"H c #CAEEC3",
"J c #CEEFC8",
"K c #CFF0C9",
"L c #D0F0CA",
"P c #D1F0CB",
/* pixels */
"        ",
"        ",
"        ",
"321<,--*",
"50eeifff",
"ifjvlvbn",
"mmZmmZZZ",
"KKLKLLLK",
"FFFFFFJJ",
"PLLLLLKL",
"PPLLLLLL",
"PPLLLLLL",
"ZZZZmZmm",
"lvvlhffi",
"66665qer",
"+$$%*--,",
"   +++++",
"        ",
"        ",
"        "
};
