/* XPM */
static char *dark[] = {
/* columns rows colors chars-per-pixel */
"8 20 52 1 ",
"  c None",
". c #1D1D1D",
"X c #1E1E1E",
"o c gray23",
"O c #3C3C3C",
"+ c #3E3E3E",
"@ c #414141",
"# c #434343",
"$ c #444444",
"% c gray27",
"& c #464646",
"* c gray28",
"= c #484848",
"- c gray29",
"; c #4B4B4B",
": c gray30",
"> c #515151",
", c gray33",
"< c #565656",
"1 c #6A6A6A",
"2 c gray42",
"3 c #6D6D6D",
"4 c #6F6F6F",
"5 c #717171",
"6 c #727272",
"7 c #747474",
"8 c #767676",
"9 c #777777",
"0 c gray47",
"q c #797979",
"w c gray48",
"e c #7B7B7B",
"r c #7C7C7C",
"t c gray50",
"y c #808080",
"u c gray51",
"i c #838383",
"p c #848484",
"a c #868686",
"s c gray54",
"d c #929292",
"f c #939393",
"g c gray58",
"h c #959595",
"j c gray59",
"k c #979797",
"l c #989898",
"z c #9A9A9A",
"x c #9B9B9B",
"c c #9D9D9D",
"v c gray62",
"b c #9F9F9F",
/* pixels */
"        ",
"        ",
"        ",
"<>>:::%%",
"33377eee",
"eeaaaaas",
"ddddddcd",
"ccbccccc",
"cccccccc",
"cccbcccb",
"cccccccb",
"ccbbbcbb",
"ddcddcdd",
"aaaaeee7",
"31113337",
"o+++%%%:",
"   XXXXX",
"        ",
"        ",
"        "
};
