/* XPM */
static char *dragon[] = {
/* columns rows colors chars-per-pixel */
"8 20 66 1 ",
"  c None",
". c #112043",
"X c #122044",
"o c #122146",
"O c #24418A",
"+ c #24428C",
"@ c #264491",
"# c #274898",
"$ c #294A9D",
"% c #294B9F",
"& c #294BA0",
"* c #2A4DA3",
"= c #2B4FA7",
"- c #2B4FA8",
"; c #2D52AD",
": c #2D52AF",
"> c #2E55B4",
", c #3159BD",
"< c #335CC4",
"1 c #345EC8",
"2 c #6183D6",
"3 c #6283D6",
"4 c #6284D7",
"5 c #6485D7",
"6 c #6787D8",
"7 c #6888D8",
"8 c #6C8BD9",
"9 c #718FDA",
"0 c #7391DB",
"q c #7895DC",
"w c #7D99DD",
"e c #809BDE",
"r c #819CDE",
"t c #849EDF",
"y c #859FE0",
"u c #86A0E0",
"i c #87A1E0",
"p c #89A2E0",
"a c #8BA3E1",
"s c #92A9E3",
"d c #93AAE3",
"f c #98AEE5",
"g c #99AFE5",
"h c #9BB0E5",
"j c #9BB1E5",
"k c #9CB1E5",
"l c #9DB2E6",
"z c #A3B6E7",
"x c #ACBEEA",
"c c #BECCEE",
"v c #C2CFEF",
"b c #C3CFEF",
"n c #C4D0F0",
"m c #C6D2F0",
"M c #C7D3F1",
"N c #C8D4F1",
"B c #CBD6F1",
"V c #CDD7F2",
"C c #D1DBF3",
"Z c #D2DBF3",
"A c #D3DCF4",
"S c #D8E0F5",
"D c #D9E1F5",
"F c #DAE2F6",
"G c #DBE2F6",
"H c #DCE3F6",
/* pixels */
"        ",
"        ",
"        ",
"1<,>;;&&",
"277qwuyp",
"rpffllzx",
"cbmmmmMM",
"DDDDDDDD",
"AAAAAAAA",
"DDDHDHDH",
"DDHHDHHH",
"HHHHHHDD",
"MMVMMMmv",
"gllfppyr",
"22226790",
"+++$$&-;",
"   ooooo",
"        ",
"        ",
"        "
};
