/* XPM */
static char *electric[] = {
/* columns rows colors chars-per-pixel */
"8 20 65 1 ",
"  c None",
". c #484807",
"X c #494907",
"o c #4B4B07",
"O c #4C4B07",
"+ c #95940E",
"@ c #97960E",
"# c #9D9C0F",
"$ c #A4A30F",
"% c #AAA810",
"& c #ACAB10",
"* c #ADAB10",
"= c #AFAE11",
"- c #B4B211",
"; c #B5B411",
": c #BBB912",
"> c #BCBB12",
", c #C2C012",
"< c #CCCA13",
"1 c #D3D114",
"2 c #D8D614",
"3 c #ECEB38",
"4 c #ECEB39",
"5 c #ECEB3B",
"6 c #EDEB3E",
"7 c #EDEB3F",
"8 c #EDEC43",
"9 c #EEED49",
"0 c #EEED4B",
"q c #EEED4C",
"w c #EFED51",
"e c #EFEE56",
"r c #EFEE59",
"t c #EFEE5A",
"y c #F0EF5D",
"u c #F0EF5F",
"i c #F0EF61",
"p c #F0EF62",
"a c #F0EF64",
"s c #F1F06C",
"d c #F1F06E",
"f c #F2F173",
"g c #F2F174",
"h c #F2F176",
"j c #F2F177",
"k c #F2F178",
"l c #F3F27F",
"z c #F4F388",
"x c #F6F59C",
"c c #F6F5A0",
"v c #F6F5A1",
"b c #F6F6A2",
"n c #F6F6A4",
"m c #F6F6A5",
"M c #F7F6A6",
"N c #F7F6A7",
"B c #F7F6A9",
"V c #F7F7AC",
"C c #F8F7B0",
"Z c #F8F7B1",
"A c #F8F7B3",
"S c #F8F8B8",
"D c #F8F8B9",
"F c #F9F8BB",
"G c #F9F8BC",
/* pixels */
"        ",
"        ",
"        ",
"21<,:;==",
"330wwupp",
"yadhkkkz",
"xvvvvNNN",
"DDGDGDDD",
"ZCZZBZZZ",
"GGGGGGGG",
"ZGGGGGGG",
"GGGGGGGG",
"BBVBBvvv",
"hhkdpppt",
"33333800",
"+@#$%=;:",
"   OOOO.",
"        ",
"        ",
"        "
};
