/* XPM */
static char *fairy[] = {
/* columns rows colors chars-per-pixel */
"8 20 58 1 ",
"  c None",
". c #D14CCF",
"X c #D24DD0",
"o c #D24ED0",
"O c #DB73DA",
"+ c #DC74DA",
"@ c #DC77DB",
"# c #DD7BDC",
"$ c #DE7EDC",
"% c #DE7FDD",
"& c #DF81DD",
"* c #DF83DE",
"= c #E084DE",
"- c #E086DF",
"; c #E087DF",
": c #E18AE0",
"> c #E28FE1",
", c #E393E2",
"< c #E495E3",
"1 c #EBAFEA",
"2 c #EBB0EA",
"3 c #EBB1EA",
"4 c #ECB3EB",
"5 c #ECB5EB",
"6 c #EDB8EC",
"7 c #EDB9EC",
"8 c #EDBAEC",
"9 c #EEBCED",
"0 c #EFBFEE",
"q c #EFC0EE",
"w c #EFC1EE",
"e c #F0C3EF",
"r c #F0C4EF",
"t c #F0C5EF",
"y c #F0C5F0",
"u c #F1C6F0",
"i c #F2CAF1",
"p c #F2CBF1",
"a c #F3CEF2",
"s c #F3CFF2",
"d c #F3D0F2",
"f c #F3D1F3",
"g c #F4D4F3",
"h c #F5D9F5",
"j c #F8E3F8",
"k c #F8E5F8",
"l c #F9E6F8",
"z c #F9E7F9",
"x c #F9E8F9",
"c c #F9E9F9",
"v c #FAEAF9",
"b c #FAEBFA",
"n c #FAEDFA",
"m c #FBEEFA",
"M c #FBEFFB",
"N c #FCF1FB",
"B c #FCF2FC",
"V c #FCF3FC",
/* pixels */
"        ",
"        ",
"        ",
"<<::===$",
"3330euuu",
"wuaaaagh",
"kkkkkkck",
"VVVVVVVV",
"cVcVccVc",
"VVVVVVVV",
"VVVVVVVV",
"VVVVVVVV",
"cccckkkk",
"gagaauuw",
"31113336",
"+++$&&=:",
"   XXX..",
"        ",
"        ",
"        "
};
