/* XPM */
static char *fighting[] = {
/* columns rows colors chars-per-pixel */
"8 20 66 1 ",
"  c None",
". c #3B280E",
"X c #3C290E",
"o c #3D2A0E",
"O c #3E2A0E",
"+ c #7A531C",
"@ c #7C541C",
"# c #80571D",
"$ c #865B1F",
"% c #8B5E20",
"& c #8D6020",
"* c #906221",
"= c #936422",
"- c #946522",
"; c #996823",
": c #9A6923",
"> c #9F6C24",
", c #A77126",
"< c #AD7527",
"1 c #B17828",
"2 c #D2933A",
"3 c #D2943B",
"4 c #D3943D",
"5 c #D3963F",
"6 c #D39640",
"7 c #D49843",
"8 c #D59B48",
"9 c #D69C4A",
"0 c #D79E4E",
"q c #D8A153",
"w c #D8A255",
"e c #D9A256",
"r c #D9A459",
"t c #D9A55A",
"y c #DAA55A",
"u c #DAA55C",
"i c #DAA65D",
"p c #DAA75F",
"a c #DCAB65",
"s c #DCAB67",
"d c #DDAE6B",
"f c #DDAE6C",
"g c #DEAF6D",
"h c #DEAF6E",
"j c #DEB06F",
"k c #DFB374",
"l c #E1B77C",
"z c #E5C08C",
"x c #E6C28F",
"c c #E6C290",
"v c #E6C391",
"b c #E6C493",
"n c #E7C494",
"m c #E7C594",
"M c #E7C595",
"N c #E7C697",
"B c #E8C799",
"V c #E9C99D",
"C c #E9CA9E",
"Z c #E9CA9F",
"A c #EACDA3",
"S c #EACDA4",
"D c #EBCEA5",
"F c #EBCEA6",
"G c #EBCEA7",
"H c #EBCFA7",
/* pixels */
"        ",
"        ",
"        ",
"1<,>>**&",
"2699eiii",
"eiajjjll",
"zccccccc",
"SSSSSSHS",
"CCCCCCCC",
"SHSHSHHH",
"SSSSSHSH",
"GGHHHSHH",
"BBBMcMcz",
"gggsiiie",
"22222889",
"@@#%%%*>",
"   OOOOO",
"        ",
"        ",
"        "
};
