/* XPM */
static char *fire[] = {
/* columns rows colors chars-per-pixel */
"8 20 83 1 ",
"  c None",
". c #7D180F",
"X c #771910",
"o c #751A11",
"O c #86130E",
"+ c #831310",
"@ c #C3420D",
"# c #C2400E",
"$ c #C4460F",
"% c #C84B0E",
"& c #CA4F0F",
"* c #C6530E",
"= c #CD500F",
"- c #CF560F",
"; c #C65511",
": c #C85913",
"> c #CA5D13",
", c #D35C10",
"< c #CA6315",
"1 c #CE6A15",
"2 c #D26F14",
"3 c #D57214",
"4 c #F79312",
"5 c #F79515",
"6 c #FA9210",
"7 c #F99312",
"8 c #FE9210",
"9 c #FE9610",
"0 c #F99813",
"q c #FF9A11",
"w c #FF9F11",
"e c #FDA113",
"r c #FFA112",
"t c #FCA614",
"y c #FFAC12",
"u c #FAAB16",
"i c #FFAD15",
"p c #FFB011",
"a c #FEB211",
"s c #FFB612",
"d c #FFB415",
"f c #FFBE13",
"g c #FFBC17",
"h c #FAB118",
"j c #FAB21A",
"k c #F9B41B",
"l c #FFC317",
"z c #FFC516",
"x c #FFC219",
"c c #FFC518",
"v c #FFC41A",
"b c #FFC61C",
"n c #FFCB1F",
"m c #FFE41D",
"M c #FFE71E",
"N c #FFE81E",
"B c #FFE91F",
"V c #FEEB1F",
"C c #FFEB1F",
"Z c #FFEC1E",
"A c #FFED1E",
"S c #FFEC1F",
"D c #FFED1F",
"F c #FFF51B",
"G c #FFF61B",
"H c #FFF11F",
"J c #FFF51C",
"K c #FFF61C",
"L c #FFF71D",
"P c #FFFC18",
"I c #FFFD18",
"U c #FFFC19",
"Y c #FFFD19",
"T c #FFFD1A",
"R c #FFFE1A",
"E c #FFFE1B",
"W c #FFFF1C",
"Q c #FFFE1D",
"! c #FFFF1D",
"~ c #FFFF1E",
"^ c #FFD322",
"/ c #FFEC21",
"( c #FFEF20",
/* pixels */
"        ",
"        ",
"        ",
"321<>:;*",
"40eiihkk",
"idgvvvn^",
"mNNN/NNH",
"TTTTTPPP",
"LTHTLTTL",
"LLTLLLLT",
"TTTTLTTT",
"LLLLLLTT",
"LL//NNNN",
"vvlldada",
"46999q0e",
"#$$$==,,",
"   oo.+O",
"        ",
"        ",
"        "
};
