/* XPM */
static char *flying[] = {
/* columns rows colors chars-per-pixel */
"8 20 48 1 ",
"  c None",
". c #59A4C2",
"X c #5AA4C2",
"o c #5BA5C2",
"O c #7DB7CF",
"+ c #7EB8CF",
"@ c #80B9D0",
"# c #84BBD1",
"$ c #86BCD2",
"% c #88BDD3",
"& c #89BED3",
"* c #8BBFD4",
"= c #8CC0D4",
"- c #8EC1D5",
"; c #8FC1D6",
": c #92C3D7",
"> c #96C5D8",
", c #99C7D9",
"< c #9CC8DA",
"1 c #B1D4E2",
"2 c #B2D5E3",
"3 c #B4D5E3",
"4 c #B5D6E4",
"5 c #B7D7E4",
"6 c #B8D8E5",
"7 c #B9D9E5",
"8 c #BBDAE6",
"9 c #BCDAE6",
"0 c #BEDBE7",
"q c #BFDCE7",
"w c #C0DCE8",
"e c #C3DEE9",
"r c #C5DFE9",
"t c #C6DFEA",
"y c #C6E0EA",
"u c #C8E1EB",
"i c #CBE3EC",
"p c #D2E6EE",
"a c #D3E7EF",
"s c #D4E7EF",
"d c #D5E8EF",
"f c #D5E8F0",
"g c #D6E8F0",
"h c #D7E9F0",
"j c #D8EAF1",
"k c #D9EAF1",
"l c #DBEBF2",
"z c #DCECF2",
/* pixels */
"        ",
"        ",
"        ",
"<,>:==**",
"119999w9",
"9wywuwuu",
"aadddddd",
"llllllll",
"ldllhlll",
"zllzllll",
"lzzzllll",
"zzzzzzll",
"dddhhhss",
"yyyyww09",
"22111191",
"+++##**:",
"   ooooo",
"        ",
"        ",
"        "
};
