/* XPM */
static char *ghost[] = {
/* columns rows colors chars-per-pixel */
"8 20 66 1 ",
"  c None",
". c #19112B",
"X c #1A122B",
"o c #1A122C",
"O c #1B122D",
"+ c #342458",
"@ c #352559",
"# c #37265C",
"$ c #3A2861",
"% c #3C2964",
"& c #3D2A65",
"* c #3D2A66",
"= c #3E2A67",
"- c #3F2B6A",
"; c #402C6B",
": c #422D6E",
"> c #422E6F",
", c #442F72",
"< c #483178",
"1 c #4A337C",
"2 c #4C347F",
"3 c #5E409D",
"4 c #5E419D",
"5 c #5E419E",
"6 c #5F419F",
"7 c #6042A1",
"8 c #6243A4",
"9 c #6445A7",
"0 c #6545A8",
"q c #6545A9",
"w c #6747AC",
"e c #6948AF",
"r c #6A48B1",
"t c #6A49B1",
"y c #6B4AB3",
"u c #6C4AB4",
"i c #6D4BB5",
"p c #6D4CB5",
"a c #6E4DB6",
"s c #7251B8",
"d c #7353B8",
"f c #7556BA",
"g c #7656BA",
"h c #7757BA",
"j c #7758BA",
"k c #7859BB",
"l c #7B5CBC",
"z c #8062BF",
"x c #896EC3",
"c c #8B70C4",
"v c #8B71C5",
"b c #8C71C5",
"n c #8D72C5",
"m c #8D73C5",
"M c #8E73C6",
"N c #8E74C6",
"B c #8F76C7",
"V c #9077C7",
"C c #9279C8",
"Z c #937AC8",
"A c #937AC9",
"S c #947BC9",
"D c #967ECA",
"F c #977FCA",
"G c #9880CB",
"H c #9881CB",
/* pixels */
"        ",
"        ",
"        ",
"2<<,::%%",
"677eaaaa",
"aasjjslz",
"xcccccVc",
"DDHDHHFD",
"DCCDDCDD",
"DFFHDFDH",
"FFFFFFFH",
"HFHHHHHH",
"CCMCcVcx",
"fffsaaae",
"333667qq",
"###$%%::",
"   OOOOO",
"        ",
"        ",
"        "
};
