/* XPM */
static char *grass[] = {
/* columns rows colors chars-per-pixel */
"8 20 63 1 ",
"  c None",
". c #072911",
"X c #072A11",
"o c #072B12",
"O c #0E5523",
"+ c #0F5624",
"@ c #0F5925",
"# c #105E27",
"$ c #106128",
"% c #116229",
"& c #116329",
"* c #11642A",
"= c #11672B",
"- c #12672B",
"; c #126A2C",
": c #126B2D",
"> c #136F2E",
", c #147430",
"< c #157832",
"1 c #157B33",
"2 c #1A983F",
"3 c #1A9940",
"4 c #1A9A40",
"5 c #1B9C41",
"6 c #1B9F42",
"7 c #1CA244",
"8 c #1CA344",
"9 c #1CA444",
"0 c #1CA645",
"q c #1DA947",
"w c #1DAB47",
"e c #1DAC48",
"r c #1EAE48",
"t c #1EAE49",
"y c #1EAF49",
"u c #1EB049",
"i c #1EB14A",
"p c #1EB24A",
"a c #1FB64C",
"s c #1FB74C",
"d c #20BA4E",
"f c #20BB4E",
"g c #20BC4E",
"h c #20BD4F",
"j c #21C150",
"k c #22C653",
"l c #24D157",
"z c #24D458",
"x c #24D559",
"c c #25D659",
"v c #25D75A",
"b c #25D85A",
"n c #25D95A",
"m c #26DA5B",
"M c #28DA5D",
"N c #29DA5E",
"B c #29DB5E",
"V c #2ADB5E",
"C c #2DDB60",
"Z c #2DDB61",
"A c #2EDB61",
"S c #2EDB62",
"D c #2FDC62",
/* pixels */
"        ",
"        ",
"        ",
"<<,>*>*&",
"4477wtpt",
"tpdgggjk",
"lzzzbbzb",
"AAAAAAAA",
"ZZbABBbA",
"AAADADDD",
"ZAAAAAAA",
"AADDDADA",
"bbbbzbzz",
"hhjspttw",
"44444777",
"OO@#$**>",
"   ooooo",
"        ",
"        ",
"        "
};
