/* XPM */
static char *ground[] = {
/* columns rows colors chars-per-pixel */
"8 20 62 1 ",
"  c None",
". c #2A220D",
"X c #2B230E",
"o c #2C240E",
"O c #57461C",
"+ c #59481C",
"@ c #5C4A1D",
"# c #604E1F",
"$ c #635020",
"% c #645120",
"& c #655220",
"* c #675321",
"= c #695521",
"- c #6A5622",
"; c #6D5823",
": c #6E5923",
"> c #715C24",
", c #776026",
"< c #7B6427",
"1 c #7E6628",
"2 c #9C7E32",
"3 c #9D7F32",
"4 c #9E8032",
"5 c #A08133",
"6 c #A08233",
"7 c #A38434",
"8 c #A68735",
"9 c #A78735",
"0 c #A88835",
"q c #AB8A36",
"w c #AE8D37",
"e c #AF8E38",
"r c #B08F38",
"t c #B29039",
"y c #B39139",
"u c #B49239",
"i c #B5933A",
"p c #B6943A",
"a c #BB973B",
"s c #BC983C",
"d c #BF9B3D",
"f c #C09C3D",
"g c #C19C3D",
"h c #C29D3E",
"j c #C39F42",
"k c #C5A247",
"l c #C8A753",
"z c #C9A955",
"x c #C9A956",
"c c #CAAA58",
"v c #CAAA59",
"b c #CAAB59",
"n c #CBAB5B",
"m c #CBAC5C",
"M c #CCAD5E",
"N c #CCAD5F",
"B c #CCAE5F",
"V c #CCAE60",
"C c #CDB063",
"Z c #CEB064",
"A c #CEB165",
"S c #CEB166",
/* pixels */
"        ",
"        ",
"        ",
"1<,>;-*%",
"266qriit",
"ridddgkk",
"lxcxcccc",
"ZZZZVZZZ",
"BZcZVZcZ",
"ZZSSZSSS",
"ZZSZZZZZ",
"SZSSSZZZ",
"ccBcccxx",
"dhfdiiie",
"4444466q",
"O++#%*-;",
"   ooooo",
"        ",
"        ",
"        "
};
