/* XPM */
static char *ice[] = {
/* columns rows colors chars-per-pixel */
"8 20 66 1 ",
"  c None",
". c #0C7878",
"X c #0C7979",
"o c #0C7A7A",
"O c #0C7B7B",
"+ c #14C3C3",
"@ c #14C5C5",
"# c #14CBCB",
"$ c #15D2D2",
"% c #16D7D7",
"& c #16D9DA",
"* c #16DADA",
"= c #16DDDD",
"- c #17E1E1",
"; c #17E3E3",
": c #18E8E8",
"> c #19E8E8",
", c #1FE8E8",
"< c #28E9E9",
"1 c #30EAEA",
"2 c #34EBEB",
"3 c #67F0F0",
"4 c #68F0F0",
"5 c #69F0F0",
"6 c #6DF0F0",
"7 c #72F1F1",
"8 c #78F1F1",
"9 c #79F2F2",
"0 c #7AF2F2",
"q c #7FF2F2",
"w c #84F3F3",
"e c #87F3F3",
"r c #88F3F3",
"t c #8BF3F3",
"y c #8DF3F3",
"u c #8DF4F4",
"i c #8FF4F4",
"p c #90F4F4",
"a c #93F4F4",
"s c #9AF5F5",
"d c #9CF5F5",
"f c #A1F6F6",
"g c #A2F6F6",
"h c #A4F6F6",
"j c #A5F6F6",
"k c #A6F6F6",
"l c #ACF7F7",
"z c #B6F8F8",
"x c #C9FAFA",
"c c #CDFAFA",
"v c #CEFAFA",
"b c #CFFAFA",
"n c #D1FAFA",
"m c #D2FAFA",
"M c #D3FBFB",
"N c #D4FBFB",
"B c #D6FBFB",
"V c #D9FBFB",
"C c #DDFCFC",
"Z c #DEFCFC",
"A c #DFFCFC",
"S c #E5FCFC",
"D c #E6FCFC",
"F c #E7FDFD",
"G c #E8FDFD",
"H c #E9FDFD",
/* pixels */
"        ",
"        ",
"        ",
"11<,,;**",
"5599etta",
"taddkkkz",
"xxNNNNNN",
"DDGDDDDD",
"DCCCCCCD",
"DGGGGGGG",
"DDGGGGGG",
"GGGGGGGG",
"NCNNNNxx",
"ggkdtttt",
"43555999",
"++#%%*;,",
"   OOOO.",
"        ",
"        ",
"        "
};
