/* XPM */
static char *normal[] = {
/* columns rows colors chars-per-pixel */
"8 20 39 1 ",
"  c None",
". c gray59",
"X c #979797",
"o c gray",
"O c gray75",
"+ c gray76",
"@ c #C5C5C5",
"# c #C8C8C8",
"$ c gray79",
"% c #CACACA",
"& c #CBCBCB",
"* c #CDCDCD",
"= c #CFCECE",
"- c gray82",
"; c #D2D2D2",
": c gray83",
"> c gray84",
", c #D7D7D7",
"< c #E1E1E1",
"1 c #E2E2E2",
"2 c gray89",
"3 c #E4E4E4",
"4 c gray90",
"5 c #E6E5E5",
"6 c #E7E7E7",
"7 c gray91",
"8 c #E9E9E9",
"9 c gray92",
"0 c gray93",
"q c #EFEFEF",
"w c #F1F1F1",
"e c #F4F4F4",
"r c gray96",
"t c #F6F6F6",
"y c gray97",
"u c #F8F8F8",
"i c #F9F9F9",
"p c gray98",
"a c #FBFBFB",
/* pixels */
"        ",
"        ",
"        ",
",;;;;=&&",
"33888788",
"8888888e",
"eeeiiiii",
"iiiiiiii",
"iiiiiiii",
"iiiiiiii",
"iiiiiiii",
"iiiiiiii",
"iiiieeee",
"e8888388",
",3333333",
"@o@@&&&;",
"   XXXXX",
"        ",
"        ",
"        "
};
