/* XPM */
static char *poison[] = {
/* columns rows colors chars-per-pixel */
"8 20 64 1 ",
"  c None",
". c #2A1D2F",
"X c #2A1E2F",
"o c #2B1F30",
"O c #2C1F31",
"+ c #563D60",
"@ c #573E62",
"# c #5A4065",
"$ c #5E436A",
"% c #62456D",
"& c #63466F",
"* c #644670",
"= c #654771",
"- c #684974",
"; c #684A75",
": c #6B4C78",
"> c #6D4D7A",
", c #704F7D",
"< c #755383",
"1 c #7A5688",
"2 c #7C588B",
"3 c #9773A6",
"4 c #9873A7",
"5 c #9874A7",
"6 c #9974A8",
"7 c #9A77A9",
"8 c #9B77A9",
"9 c #9D7AAB",
"0 c #A07EAD",
"q c #A07FAE",
"w c #A17FAE",
"e c #A383B0",
"r c #A686B3",
"t c #A788B4",
"y c #A889B4",
"u c #A98BB6",
"i c #AA8CB6",
"p c #AB8DB7",
"a c #AC8EB8",
"s c #AD8FB9",
"d c #B094BC",
"f c #B196BD",
"g c #B499BF",
"h c #B49ABF",
"j c #B59BC0",
"k c #B69CC1",
"l c #B9A0C3",
"z c #BEA7C7",
"x c #C7B3CF",
"c c #C9B6D1",
"v c #C9B7D1",
"b c #CAB7D2",
"n c #CBB9D3",
"m c #CCBAD3",
"M c #CCBAD4",
"N c #CEBCD5",
"B c #CFBDD6",
"V c #D1C0D7",
"C c #D1C1D8",
"Z c #D2C2D8",
"A c #D4C5DB",
"S c #D5C6DB",
"D c #D6C7DC",
"F c #D6C8DC",
/* pixels */
"        ",
"        ",
"        ",
"21<,:;==",
"38qeeays",
"yadgkklz",
"xvnnnnnn",
"SSSSSSSS",
"SBBSBSBS",
"SSSFSFFF",
"SSDDSDFD",
"FDFFFFFF",
"nBBnnnnv",
"kgggsyyy",
"555589qe",
"@@#$%%;:",
"   OOO..",
"        ",
"        ",
"        "
};
