/* XPM */
static char *psychic[] = {
/* columns rows colors chars-per-pixel */
"8 20 69 1 ",
"  c None",
". c #290B47",
"X c #2A0B48",
"o c #2B0C4A",
"O c #2B0C4B",
"+ c #541793",
"@ c #561895",
"# c #59199B",
"$ c #5D1AA2",
"% c #601BA7",
"& c #621BAA",
"* c #621BAB",
"= c #641BAD",
"- c #661CB1",
"; c #671CB3",
": c #6A1DB8",
"> c #6B1EBA",
", c #6E1EBF",
"< c #7420C9",
"1 c #7821D0",
"2 c #7B22D5",
"3 c #984EE3",
"4 c #984FE3",
"5 c #994FE3",
"6 c #9950E3",
"7 c #9A51E3",
"8 c #9B54E4",
"9 c #9C55E4",
"0 c #9E5AE5",
"q c #A25FE6",
"w c #A361E6",
"e c #A362E6",
"r c #A667E7",
"t c #A96CE8",
"y c #AB6FE8",
"u c #AC70E8",
"i c #AE73E9",
"p c #AE75E9",
"a c #AF75E9",
"s c #B077E9",
"d c #B078EA",
"f c #B27AEA",
"g c #B682EB",
"h c #B784EB",
"j c #BA89EC",
"k c #BB8AEC",
"l c #BC8CED",
"z c #BC8DED",
"x c #BD8EED",
"c c #C194EE",
"v c #C69EF0",
"b c #D2B1F3",
"n c #D4B5F3",
"m c #D5B6F3",
"M c #D5B7F4",
"N c #D6B9F4",
"B c #D7BAF4",
"V c #D7BBF4",
"C c #D8BCF4",
"Z c #D9BFF5",
"A c #DBC1F5",
"S c #DDC5F6",
"D c #DEC6F6",
"F c #DFC8F6",
"G c #E2CDF7",
"H c #E3CEF7",
"J c #E3D0F7",
"K c #E3D0F8",
"L c #E4D1F8",
/* pixels */
"        ",
"        ",
"        ",
"11<,,;**",
"66wrtsss",
"ifglllcv",
"bbCbCCNC",
"KKKKKGGG",
"DDDDDDDF",
"FLGLLLLL",
"LLLLLGLL",
"LLLLLLLL",
"VAAACVVb",
"lllgfsit",
"644460ww",
"@@@$%**,",
"   OOO.O",
"        ",
"        ",
"        "
};
