/* XPM */
static char *rock[] = {
/* columns rows colors chars-per-pixel */
"8 20 66 1 ",
"  c None",
". c #2D251B",
"X c #2E261B",
"o c #2F271C",
"O c #5D4D37",
"+ c #5E4E38",
"@ c #625139",
"# c #66553C",
"$ c #6A583E",
"% c #6B593F",
"& c #6C593F",
"* c #6D5B40",
"= c #705D42",
"- c #715E42",
"; c #746144",
": c #756245",
"> c #796447",
", c #7F694B",
"< c #836D4D",
"1 c #86704F",
"2 c #A48A64",
"3 c #A48A65",
"4 c #A58B66",
"5 c #A68D68",
"6 c #A68D69",
"7 c #A88F6B",
"8 c #AA926F",
"9 c #AB9370",
"0 c #AB9371",
"q c #AD9574",
"w c #AF9877",
"e c #B09979",
"r c #B09A7A",
"t c #B29B7C",
"y c #B29C7C",
"u c #B29C7D",
"i c #B39D7E",
"p c #B39E7F",
"a c #B49F80",
"s c #B7A285",
"d c #B8A386",
"f c #BAA689",
"g c #BAA68A",
"h c #BBA78B",
"j c #BBA78C",
"k c #BCA88D",
"l c #BEAB90",
"z c #C1B096",
"x c #C9B9A3",
"c c #CABBA5",
"v c #CABBA6",
"b c #CBBCA7",
"n c #CCBDA8",
"m c #CCBEA9",
"M c #CDBEA9",
"N c #CEBFAB",
"B c #CEC0AC",
"V c #D0C2AF",
"C c #D0C3AF",
"Z c #D0C3B0",
"A c #D1C4B1",
"S c #D3C6B4",
"D c #D3C7B5",
"F c #D4C7B6",
"G c #D4C8B6",
"H c #D4C8B7",
/* pixels */
"        ",
"        ",
"        ",
"1<,>:-&$",
"2699pppp",
"ppdkffzz",
"xbbbbbbb",
"AAHAAHHH",
"VVVAVVAA",
"HHHHHHHH",
"HAAHHHHH",
"HHHHHHHA",
"VVbVbbbx",
"dkfdpppp",
"22226699",
"OO@$$&-:",
"   oooXX",
"        ",
"        ",
"        "
};
