/* XPM */
static char *steel[] = {
/* columns rows colors chars-per-pixel */
"8 20 56 1 ",
"  c None",
". c #2A2A2A",
"X c #2C2C2C",
"o c #565656",
"O c #585858",
"+ c #5B5B5B",
"@ c #5F5F5F",
"# c #626262",
"$ c #646464",
"% c gray40",
"& c #686868",
"* c DimGray",
"= c #6C6C6C",
"- c #6D6D6D",
"; c gray44",
": c #767676",
"> c gray48",
", c gray49",
"< c #9B9B9B",
"1 c gray61",
"2 c gray62",
"3 c #9F9F9F",
"4 c gray63",
"5 c #A5A5A5",
"6 c gray65",
"7 c #A9A9A9",
"8 c #ACACAC",
"9 c #AEAEAE",
"0 c #AFAFAF",
"q c gray69",
"w c #B1B0B0",
"e c #B1B1B1",
"r c #B2B2B2",
"t c gray70",
"y c gray71",
"u c #B9B9B9",
"i c gray73",
"p c gray74",
"a c gray",
"s c gray75",
"d c #C0C0C0",
"f c gray77",
"g c #CACACA",
"h c #D5D5D5",
"j c #D7D7D7",
"k c #D8D8D8",
"l c #DADADA",
"z c gray86",
"x c #DDDDDD",
"c c gray87",
"v c #E1E1E1",
"b c #E2E2E2",
"n c gray90",
"m c #E6E6E6",
"M c #E7E7E7",
"N c gray91",
/* pixels */
"        ",
"        ",
"        ",
",,;;**$$",
"144000tt",
"0tssssfg",
"hkkkkkkk",
"mmmmmmmm",
"mmkmmmkm",
"mNNNmNNN",
"mmMMmmMM",
"mmNNNmNN",
"kkmkkkkh",
"sssstttt",
"11111404",
"oo@@$$$;",
"   XXXXX",
"        ",
"        ",
"        "
};
