/* XPM */
static char *water[] = {
/* columns rows colors chars-per-pixel */
"8 20 67 1 ",
"  c None",
". c #01394F",
"X c #013950",
"o c #013B52",
"O c #013B53",
"+ c #0274A3",
"@ c #0276A6",
"# c #027AAC",
"$ c #0280B4",
"% c #0285BA",
"& c #0286BD",
"* c #0287BD",
"= c #0289C0",
"- c #028CC5",
"; c #028EC7",
": c #0292CD",
"> c #0293CF",
", c #0298D5",
"< c #029FDF",
"1 c #02A5E7",
"2 c #02A9ED",
"3 c #2AC0FD",
"4 c #2BC0FD",
"5 c #2CC0FD",
"6 c #2EC1FD",
"7 c #31C2FD",
"8 c #32C2FD",
"9 c #37C4FD",
"0 c #3EC6FD",
"q c #40C6FD",
"w c #46C8FD",
"e c #4CCAFD",
"r c #4FCBFD",
"t c #50CBFD",
"y c #54CCFD",
"u c #55CDFD",
"i c #56CDFD",
"p c #58CDFD",
"a c #59CEFD",
"s c #5CCEFD",
"d c #64D1FE",
"f c #66D2FE",
"g c #6CD3FE",
"h c #6DD4FE",
"j c #6FD4FE",
"k c #70D4FE",
"l c #71D5FE",
"z c #78D7FE",
"x c #83DAFE",
"c c #99E1FE",
"v c #9DE2FE",
"b c #9EE2FE",
"n c #9FE3FE",
"m c #A2E3FE",
"M c #A3E4FE",
"N c #A4E4FE",
"B c #A5E4FE",
"V c #A7E5FE",
"C c #AAE6FE",
"Z c #AFE7FE",
"A c #B0E7FE",
"S c #B0E8FE",
"D c #B1E8FE",
"F c #B7EAFE",
"G c #B9EAFE",
"H c #BAEBFE",
"J c #BCEBFE",
/* pixels */
"        ",
"        ",
"        ",
"21<,>==*",
"480wetta",
"tadglllx",
"ccBBBBBB",
"GGGGFGFF",
"FCFFCFFF",
"GGFJGGGJ",
"GGGGGGGG",
"GGJJGGGG",
"VVCVBBcB",
"jlldattt",
"4444800w",
"@@#$*==>",
"   OOO.O",
"        ",
"        ",
"        "
};
