/* XPM */
static char *charizard[] = {
/* columns rows colors chars-per-pixel */
"30 20 174 2 ",
"   c None",
".  c #2E1D1E",
"X  c #39171B",
"o  c #391C1C",
"O  c #331519",
"+  c #3B2417",
"@  c #142639",
"#  c #3C2422",
"$  c #3C3838",
"%  c #441B12",
"&  c #7D180F",
"*  c #761A11",
"=  c #412C15",
"-  c #562216",
";  c #573C1A",
":  c #53351D",
">  c #7A2E1F",
",  c #481E22",
"<  c #412222",
"1  c #442A2A",
"2  c #4C2827",
"3  c #52282B",
"4  c #47342F",
"5  c #58362C",
"6  c #582D33",
"7  c #5E3232",
"8  c #65292F",
"9  c #6B3E2E",
"0  c #6A2F36",
"q  c #683837",
"w  c #793A3D",
"e  c #723E3C",
"r  c #53433A",
"t  c #6B4525",
"y  c #724B2D",
"u  c #675521",
"i  c #725A23",
"p  c #6B4835",
"a  c #736620",
"s  c #1A3657",
"d  c #5D4744",
"f  c #57514E",
"g  c #5B5251",
"h  c #6D4D4A",
"j  c #784242",
"k  c #784A49",
"l  c #645046",
"z  c #65584E",
"x  c #7B5241",
"c  c #774D50",
"v  c #785E59",
"b  c #615969",
"n  c #765D6C",
"m  c #86130E",
"M  c #831310",
"N  c #81353D",
"B  c #8D5B31",
"V  c #885538",
"C  c #BE4930",
"Z  c #BA5531",
"A  c #A9492B",
"S  c #A96F3A",
"D  c #C94D0F",
"F  c #C4460F",
"G  c #C6530E",
"H  c #CD530F",
"J  c #C95B13",
"K  c #C55814",
"L  c #D35C10",
"P  c #D86912",
"I  c #CA6315",
"U  c #DE633C",
"Y  c #843A41",
"T  c #883941",
"R  c #923F46",
"E  c #874A4A",
"W  c #9D414A",
"Q  c #8C544C",
"!  c #84534F",
"~  c #915B41",
"^  c #8B4050",
"/  c #924854",
"(  c #8C5254",
")  c #805B5D",
"_  c #945654",
"`  c #985958",
"'  c #AF4D59",
"]  c #A35C5C",
"[  c #AC5E5A",
"{  c #9E6B45",
"}  c #9F6759",
"|  c #AC6C44",
" . c #AE674A",
".. c #B06D4F",
"X. c #B5794D",
"o. c #A46955",
"O. c #B3625B",
"+. c #AC7359",
"@. c #875960",
"#. c #BB5F64",
"$. c #966666",
"%. c #917D67",
"&. c #9D7F77",
"*. c #AC6462",
"=. c #B56361",
"-. c #BC6B67",
";. c #BB6A6A",
":. c #AC706A",
">. c #B67974",
",. c #C8764F",
"<. c #CC7D53",
"1. c #C17D51",
"2. c #D17F5A",
"3. c #CC6F6B",
"4. c #CA7665",
"5. c #D67B65",
"6. c #B8AA34",
"7. c #FE9510",
"8. c #FE9C12",
"9. c #FEA213",
"0. c #FDAC13",
"q. c #FFB311",
"w. c #FAB31A",
"e. c #FFBE13",
"r. c #FFC41A",
"t. c #FFC81B",
"y. c #FFE71E",
"u. c #FFEC1F",
"i. c #FFF61C",
"p. c #FFFE1B",
"a. c #FFD322",
"s. c #FFEE21",
"d. c #BC814C",
"f. c #B9855B",
"g. c #9A8978",
"h. c #B48C64",
"j. c #B48271",
"k. c #CE8546",
"l. c #D1864C",
"z. c #D18848",
"x. c #CD8A55",
"c. c #C58552",
"v. c #DA8457",
"b. c #DA9356",
"n. c #E78840",
"m. c #EA945A",
"M. c #E89855",
"N. c #F29D55",
"B. c #F98347",
"V. c #C6A141",
"C. c #F9A448",
"Z. c #FCA35A",
"A. c #FFA95A",
"S. c #CA8166",
"D. c #DD8963",
"F. c #E28C63",
"G. c #E6996C",
"H. c #EEC544",
"J. c #FFEC4B",
"K. c #335A8B",
"L. c #3A77B4",
"P. c #536C81",
"I. c #487185",
"U. c #436797",
"Y. c #B69A87",
"T. c #BBA391",
"R. c #D99C82",
"E. c #C59484",
"W. c #DABD9F",
"Q. c #EDBBAA",
"!. c #E6C09F",
"~. c #DECBAA",
"^. c #ECD7B3",
"/. c #FCE6C2",
/* pixels */
"                                                      -     ",
"                                                      C >   ",
"                                                    A U %   ",
"I J J G G             <     X X                   - n.B.Z i ",
"0.0.w.w.w.G         < q     9 Y 0   : t           ; H.C.C.a ",
"r.r.r.t.a.w.L       w 5   B { w W , = | |           6.J.6.  ",
"s.u.u.u.u.a.9.    5 <.z.S k.5 . T T X X ..{ | V t   u V.i   ",
"i.p.p.p.p.u.0.    k.A.A.Z.N.V . 0 w , j n P.g.D.M.B   9 2   ",
"i.i.i.i.i.p.y.L t Z.Z.G.G.N.5.=._ 6 1 ) U.L.I.h 2.z.+ 6 7   ",
"p.p.p.p.p.p.p.8.: z.,.g.Q.5._ =.4.o.! b K.s @   y x.B # Q   ",
"p.p.p.p.p.p.p.p.k.Z.<.j.>.` . 7 =.F.b.f.l         ~ X.h -.0 ",
"p.p.p.p.p.p.p.p.v.m.X.! / ( 0 0 ` 5.Z.x.X.y         ~ o.;.q ",
"s.s.s.s.s.s.p.p.8.9.8.R ' c 3 1 Y.R.m.b.X.b.p     2 Q o.` 2 ",
"r.q.q.0.0.a.r.F D K K $.c d   r ~./.!.+...c.o.^ 7 R #.] j   ",
"7.7.8.8.9.P L               # _ Y./.^.$.S.f.x.4.( [ ] k     ",
"D D H H L G                 < #.:.Y.W.T.g.h.N.D.h l 4       ",
"* * & M M                     q ;.] ) z y m.F.[             ",
"                              v $.w     3 =.3.[ #           ",
"                                          v ;.*.<           ",
"                                          $ g g             "
};
